<?xml version="1.0" encoding="UTF-8" standalone="no"?>
<!-- Created with Inkscape (http://www.inkscape.org/) -->

<svg
   xmlns:dc="http://purl.org/dc/elements/1.1/"
   xmlns:cc="http://creativecommons.org/ns#"
   xmlns:rdf="http://www.w3.org/1999/02/22-rdf-syntax-ns#"
   xmlns:svg="http://www.w3.org/2000/svg"
   xmlns="http://www.w3.org/2000/svg"
   xmlns:sodipodi="http://sodipodi.sourceforge.net/DTD/sodipodi-0.dtd"
   xmlns:inkscape="http://www.inkscape.org/namespaces/inkscape"
   width="250mm"
   height="100mm"
   viewBox="0 0 250 100"
   version="1.1"
   id="svg894"
   inkscape:version="0.92.2 (unknown)"
   sodipodi:docname="agorakit-banner.svg">
  <defs
     id="defs888" />
  <sodipodi:namedview
     id="base"
     pagecolor="#ffffff"
     bordercolor="#666666"
     borderopacity="1.0"
     inkscape:pageopacity="0.0"
     inkscape:pageshadow="2"
     inkscape:zoom="1"
     inkscape:cx="606.56649"
     inkscape:cy="189.05448"
     inkscape:document-units="mm"
     inkscape:current-layer="layer1"
     showgrid="false"
     fit-margin-top="0.1"
     fit-margin-left="0.1"
     fit-margin-right="0.1"
     fit-margin-bottom="0.1"
     inkscape:window-width="1920"
     inkscape:window-height="1027"
     inkscape:window-x="0"
     inkscape:window-y="0"
     inkscape:window-maximized="1" />
  <metadata
     id="metadata891">
    <rdf:RDF>
      <cc:Work
         rdf:about="">
        <dc:format>image/svg+xml</dc:format>
        <dc:type
           rdf:resource="http://purl.org/dc/dcmitype/StillImage" />
        <dc:title></dc:title>
      </cc:Work>
    </rdf:RDF>
  </metadata>
  <g
     inkscape:label="Calque 1"
     inkscape:groupmode="layer"
     id="layer1"
     transform="translate(-20.96731,17.607815)">
    <rect
       style="opacity:1;fill:#0b4e6b;fill-opacity:1;stroke:none;stroke-width:0.490758;stroke-miterlimit:4;stroke-dasharray:1.47227403, 1.47227403;stroke-dashoffset:0;stroke-opacity:1"
       id="rect869"
       width="256.09656"
       height="104.75488"
       x="18.331778"
       y="-20.520908" />
    <path
       id="path914"
       style="font-style:normal;font-variant:normal;font-weight:200;font-stretch:normal;font-size:medium;line-height:0;font-family:Roboto;-inkscape-font-specification:'Roboto Ultra-Light';letter-spacing:0px;word-spacing:0px;fill:#ffffff;fill-opacity:0.98113248;fill-rule:nonzero;stroke:none;stroke-width:0.92815673"
       d="m 83.904108,44.737549 q -0.362557,-1.250837 -0.362557,-3.589356 -1.160196,1.885318 -3.172412,2.918617 -2.012215,1.0333 -4.550149,1.0333 -2.719202,0 -4.386988,-1.468373 -1.64965,-1.486501 -1.64965,-3.861277 0,-2.701081 2.429162,-4.314478 2.44728,-1.631526 6.489839,-1.667782 h 4.840198 v -2.864234 q 0,-2.465416 -1.559015,-3.825021 -1.540889,-1.359604 -4.423252,-1.359604 -2.682948,0 -4.477623,1.377733 -1.794684,1.377732 -1.794684,3.408075 l -0.978917,-0.03625 q 0,-2.392904 2.10286,-4.060685 2.10285,-1.667782 5.148364,-1.667782 3.172412,0 5.039603,1.59527 1.867192,1.577141 1.921573,4.459503 v 9.372207 q 0,3.226795 0.50759,4.386991 v 0.163153 z M 75.81899,44.139322 q 2.755466,0 4.731428,-1.232708 1.994089,-1.232708 2.991133,-3.462459 v -4.658912 h -4.532022 q -4.20571,0 -6.435458,1.667782 -1.812802,1.359604 -1.812802,3.389947 0,1.794678 1.432109,3.045514 1.432118,1.250836 3.625612,1.250836 z"
       inkscape:connector-curvature="0" />
    <path
       id="path916"
       style="font-style:normal;font-variant:normal;font-weight:200;font-stretch:normal;font-size:medium;line-height:0;font-family:Roboto;-inkscape-font-specification:'Roboto Ultra-Light';letter-spacing:0px;word-spacing:0px;fill:#ffffff;fill-opacity:0.98113248;fill-rule:nonzero;stroke:none;stroke-width:0.92815673"
       d="m 89.886366,34.730859 q 0,-4.695168 1.975962,-7.323736 1.975962,-2.646698 5.420286,-2.646698 2.193504,0 3.897536,1.015172 1.70404,0.997043 2.73734,2.936746 v -3.589356 h 0.99704 v 19.270129 q 0,3.879404 -1.99409,6.054772 -1.99408,2.193496 -5.420284,2.193496 -1.975962,0 -3.625612,-0.852019 -1.631523,-0.85202 -2.791719,-2.447289 l 0.688859,-0.65261 q 1.142069,1.450245 2.501679,2.211624 1.359601,0.779506 3.190539,0.779506 3.027388,0 4.713288,-1.849062 1.68592,-1.830934 1.7403,-5.184626 V 41.63765 q -1.01517,1.667782 -2.75547,2.574185 -1.722165,0.888275 -3.915659,0.888275 -3.408071,0 -5.384033,-2.701082 -1.975962,-2.70108 -1.975962,-7.414376 z m 0.997044,0.380689 q 0,4.205711 1.667786,6.616742 1.667777,2.392905 4.677038,2.392905 2.483543,0 4.223836,-1.142069 1.74029,-1.160195 2.46542,-3.244922 v -8.900878 q -1.59527,-5.093985 -6.653002,-5.093985 -3.027388,0 -4.713292,2.374775 -1.667786,2.374777 -1.667786,6.997432 z"
       inkscape:connector-curvature="0" />
    <path
       id="path918"
       style="font-style:normal;font-variant:normal;font-weight:200;font-stretch:normal;font-size:medium;line-height:0;font-family:Roboto;-inkscape-font-specification:'Roboto Ultra-Light';letter-spacing:0px;word-spacing:0px;fill:#ffffff;fill-opacity:0.98113248;fill-rule:nonzero;stroke:none;stroke-width:0.92815673"
       d="m 109.70034,34.549578 q 0,-2.809849 1.06956,-5.0396 1.08768,-2.24788 3.04551,-3.498717 1.97596,-1.250836 4.4595,-1.250836 2.46542,0 4.42326,1.214581 1.95782,1.21458 3.04551,3.444331 1.10581,2.229752 1.12393,5.021473 v 0.870147 q 0,2.827978 -1.06955,5.057729 -1.06955,2.229751 -3.04551,3.480587 -1.95783,1.250837 -4.44138,1.250837 -2.48354,0 -4.4595,-1.232708 -1.95783,-1.232708 -3.04551,-3.444332 -1.08769,-2.229752 -1.10582,-5.003345 z m 0.97892,0.761379 q 0,2.447288 0.96078,4.495759 0.97892,2.030343 2.70109,3.17241 1.74029,1.142069 3.97004,1.142069 3.3537,0 5.45655,-2.519801 2.12099,-2.5198 2.12099,-6.489846 v -0.56197 q 0,-2.411032 -0.97892,-4.459502 -0.97892,-2.048472 -2.71921,-3.190539 -1.72217,-1.160196 -3.91567,-1.160196 -3.35369,0 -5.47467,2.556057 -2.12098,2.556056 -2.12098,6.435461 z"
       inkscape:connector-curvature="0" />
    <path
       id="path920"
       style="font-style:normal;font-variant:normal;font-weight:200;font-stretch:normal;font-size:medium;line-height:0;font-family:Roboto;-inkscape-font-specification:'Roboto Ultra-Light';letter-spacing:0px;word-spacing:0px;fill:#ffffff;fill-opacity:0.98113248;fill-rule:nonzero;stroke:none;stroke-width:0.92815673"
       d="m 140.28238,25.829981 -1.26896,-0.108769 q -2.50167,0 -4.18759,1.631526 -1.6859,1.613398 -2.21162,4.532015 v 12.852796 h -0.97892 V 25.122987 h 0.97892 V 29.2018 q 0.79764,-2.048471 2.39291,-3.244922 1.59527,-1.196453 4.0063,-1.196453 0.85202,0 1.37773,0.199409 z"
       inkscape:connector-curvature="0" />
    <path
       id="path922"
       style="font-style:normal;font-variant:normal;font-weight:200;font-stretch:normal;font-size:medium;line-height:0;font-family:Roboto;-inkscape-font-specification:'Roboto Ultra-Light';letter-spacing:0px;word-spacing:0px;fill:#ffffff;fill-opacity:0.98113248;fill-rule:nonzero;stroke:none;stroke-width:0.92815673"
       d="m 155.98128,44.737549 q -0.36256,-1.250837 -0.36256,-3.589356 -1.1602,1.885318 -3.17241,2.918617 -2.01222,1.0333 -4.55015,1.0333 -2.7192,0 -4.38699,-1.468373 -1.64965,-1.486501 -1.64965,-3.861277 0,-2.701081 2.42917,-4.314478 2.44728,-1.631526 6.48983,-1.667782 h 4.8402 v -2.864234 q 0,-2.465416 -1.55902,-3.825021 -1.54088,-1.359604 -4.42325,-1.359604 -2.68294,0 -4.47762,1.377733 -1.79468,1.377732 -1.79468,3.408075 l -0.97892,-0.03625 q 0,-2.392904 2.10286,-4.060685 2.10285,-1.667782 5.14836,-1.667782 3.17242,0 5.03961,1.59527 1.86719,1.577141 1.92158,4.459503 v 9.372207 q 0,3.226795 0.50758,4.386991 v 0.163153 z m -8.08512,-0.598227 q 2.75546,0 4.73143,-1.232708 1.99409,-1.232708 2.99113,-3.462459 v -4.658912 h -4.53202 q -4.20571,0 -6.43546,1.667782 -1.8128,1.359604 -1.8128,3.389947 0,1.794678 1.43211,3.045514 1.43212,1.250836 3.62561,1.250836 z"
       inkscape:connector-curvature="0" />
    <path
       id="path924"
       style="font-style:normal;font-variant:normal;font-weight:200;font-stretch:normal;font-size:medium;line-height:0;font-family:Roboto;-inkscape-font-specification:'Roboto Ultra-Light';letter-spacing:0px;word-spacing:0px;fill:#ffffff;fill-opacity:0.98113248;fill-rule:nonzero;stroke:none;stroke-width:0.92815673"
       d="m 166.74934,34.132633 -0.0363,0.03625 -2.8461,2.447288 v 8.121371 h -0.97891 V 16.892845 h 0.97891 v 18.653774 l 2.30227,-2.175367 8.919,-8.248268 h 1.39586 l -9.00964,8.357036 9.5716,11.257526 h -1.26894 z"
       inkscape:connector-curvature="0" />
    <path
       id="path926"
       style="font-style:normal;font-variant:normal;font-weight:200;font-stretch:normal;font-size:medium;line-height:0;font-family:Roboto;-inkscape-font-specification:'Roboto Ultra-Light';letter-spacing:0px;word-spacing:0px;fill:#ffffff;fill-opacity:0.98113248;fill-rule:nonzero;stroke:none;stroke-width:0.92815673"
       d="M 181.65061,44.737549 H 180.6717 V 25.122987 h 0.97891 z m -1.4865,-25.741846 q 0,-0.416946 0.29005,-0.706995 0.29006,-0.308177 0.707,-0.308177 0.41694,0 0.70699,0.308177 0.30818,0.290049 0.30818,0.706995 0,0.416944 -0.30818,0.706993 -0.29005,0.290049 -0.70699,0.290049 -0.41695,0 -0.707,-0.290049 -0.29005,-0.290049 -0.29005,-0.706993 z"
       inkscape:connector-curvature="0" />
    <path
       id="path928"
       style="font-style:normal;font-variant:normal;font-weight:200;font-stretch:normal;font-size:medium;line-height:0;font-family:Roboto;-inkscape-font-specification:'Roboto Ultra-Light';letter-spacing:0px;word-spacing:0px;fill:#ffffff;fill-opacity:0.98113248;fill-rule:nonzero;stroke:none;stroke-width:0.92815673"
       d="m 190.31583,19.829593 v 5.293394 h 4.4595 v 0.997043 h -4.4595 v 13.922351 q 0,2.084727 0.67074,3.08177 0.68886,0.997044 2.28413,0.997044 0.79764,0 1.9397,-0.163153 l 0.16316,0.924532 q -0.59823,0.217536 -2.04847,0.217536 -2.13912,0 -3.06364,-1.178324 -0.92454,-1.196452 -0.94267,-3.752508 V 26.12003 h -3.62561 v -0.997043 h 3.62561 v -5.293394 z"
       inkscape:connector-curvature="0" />
    <path
       style="fill:none;stroke:#ffffff;stroke-width:1.04917324;stroke-linecap:butt;stroke-linejoin:miter;stroke-miterlimit:4;stroke-dasharray:none;stroke-opacity:1"
       d="m 84.355109,44.390461 c 1.861124,5.01194 3.987218,-1.15391 7.3639,5.06923"
       id="path933"
       inkscape:connector-curvature="0"
       sodipodi:nodetypes="cc" />
    <path
       style="fill:none;stroke:#ffffff;stroke-width:1;stroke-linecap:butt;stroke-linejoin:miter;stroke-miterlimit:4;stroke-dasharray:none;stroke-opacity:1"
       d="m 104.38037,25.810401 c 0.22066,-19.87772 27.99981,-16.84758 27.74593,-0.39255"
       id="path935"
       inkscape:connector-curvature="0"
       sodipodi:nodetypes="cc" />
    <path
       style="fill:none;stroke:#ffffff;stroke-width:0.98000002;stroke-linecap:butt;stroke-linejoin:miter;stroke-miterlimit:4;stroke-dasharray:none;stroke-opacity:1"
       d="m 163.37658,16.961517 c -0.36162,-20.821552 26.27891,-12.948126 26.43956,3.400824"
       id="path937"
       inkscape:connector-curvature="0"
       sodipodi:nodetypes="cc" />
    <path
       style="fill:none;stroke:#ffffff;stroke-width:1;stroke-linecap:butt;stroke-linejoin:miter;stroke-miterlimit:4;stroke-dasharray:none;stroke-opacity:1"
       d="m 194.26715,44.556871 c 9.38516,-0.84488 19.6962,-15.60414 32.64769,-5.66964"
       id="path939"
       inkscape:connector-curvature="0"
       sodipodi:nodetypes="cc" />
    <flowRoot
       xml:space="preserve"
       id="flowRoot857"
       style="fill:black;fill-opacity:1;stroke:none;font-family:sans-serif;font-style:normal;font-weight:normal;font-size:40px;line-height:0;letter-spacing:0px;word-spacing:0px"><flowRegion
         id="flowRegion859"><rect
           id="rect861"
           width="431"
           height="62"
           x="366"
           y="274.95276" /></flowRegion><flowPara
         id="flowPara863"></flowPara></flowRoot>    <text
       xml:space="preserve"
       style="font-style:normal;font-variant:normal;font-weight:300;font-stretch:normal;font-size:8.80273151px;line-height:0;font-family:Roboto;-inkscape-font-specification:'Roboto Light';letter-spacing:0px;word-spacing:0px;fill:#ffffff;fill-opacity:1;stroke:none;stroke-width:0.22006828"
       x="109.96121"
       y="55.770763"
       id="text867"><tspan
         sodipodi:role="line"
         id="tspan865"
         x="109.96121"
         y="55.770763"
         style="font-style:normal;font-variant:normal;font-weight:300;font-stretch:normal;font-family:Roboto;-inkscape-font-specification:'Roboto Light';fill:#ffffff;fill-opacity:1;stroke-width:0.22006828">groupware for citizens</tspan></text>
  </g>
</svg>
