<?xml version="1.0" encoding="UTF-8" standalone="no"?>
<!-- Created with Inkscape (http://www.inkscape.org/) -->

<svg
   xmlns:dc="http://purl.org/dc/elements/1.1/"
   xmlns:cc="http://creativecommons.org/ns#"
   xmlns:rdf="http://www.w3.org/1999/02/22-rdf-syntax-ns#"
   xmlns:svg="http://www.w3.org/2000/svg"
   xmlns="http://www.w3.org/2000/svg"
   xmlns:sodipodi="http://sodipodi.sourceforge.net/DTD/sodipodi-0.dtd"
   xmlns:inkscape="http://www.inkscape.org/namespaces/inkscape"
   width="157.63681mm"
   height="48.920235mm"
   viewBox="0 0 157.63681 48.920235"
   version="1.1"
   id="svg894"
   inkscape:version="0.92.2 (unknown)"
   sodipodi:docname="agorakit-logo.svg">
  <defs
     id="defs888" />
  <sodipodi:namedview
     id="base"
     pagecolor="#ffffff"
     bordercolor="#666666"
     borderopacity="1.0"
     inkscape:pageopacity="0.0"
     inkscape:pageshadow="2"
     inkscape:zoom="0.70710678"
     inkscape:cx="463.09734"
     inkscape:cy="120.96397"
     inkscape:document-units="mm"
     inkscape:current-layer="layer1"
     showgrid="false"
     fit-margin-top="0.1"
     fit-margin-left="0.1"
     fit-margin-right="0.1"
     fit-margin-bottom="0.1"
     inkscape:window-width="1920"
     inkscape:window-height="1027"
     inkscape:window-x="0"
     inkscape:window-y="0"
     inkscape:window-maximized="1" />
  <metadata
     id="metadata891">
    <rdf:RDF>
      <cc:Work
         rdf:about="">
        <dc:format>image/svg+xml</dc:format>
        <dc:type
           rdf:resource="http://purl.org/dc/dcmitype/StillImage" />
        <dc:title></dc:title>
      </cc:Work>
    </rdf:RDF>
  </metadata>
  <g
     inkscape:label="Calque 1"
     inkscape:groupmode="layer"
     id="layer1"
     transform="translate(-20.96731,-33.471948)">
    <path
       id="path914"
       style="font-style:normal;font-variant:normal;font-weight:200;font-stretch:normal;font-size:medium;line-height:0;font-family:Roboto;-inkscape-font-specification:'Roboto Ultra-Light';letter-spacing:0px;word-spacing:0px;fill:#0c4f6b;fill-opacity:0.98113248;fill-rule:nonzero;stroke:none;stroke-width:0.92815673"
       d="m 35.189066,74.388349 q -0.362557,-1.250837 -0.362557,-3.589356 -1.160196,1.885318 -3.172412,2.918617 -2.012215,1.0333 -4.550149,1.0333 -2.719202,0 -4.386988,-1.468373 -1.64965,-1.486501 -1.64965,-3.861277 0,-2.701081 2.429162,-4.314478 2.44728,-1.631526 6.489839,-1.667782 h 4.840198 v -2.864234 q 0,-2.465416 -1.559015,-3.825021 -1.540889,-1.359604 -4.423252,-1.359604 -2.682948,0 -4.477623,1.377733 -1.794684,1.377732 -1.794684,3.408075 l -0.978917,-0.03625 q 0,-2.392904 2.10286,-4.060685 2.10285,-1.667782 5.148364,-1.667782 3.172412,0 5.039603,1.59527 1.867192,1.577141 1.921573,4.459503 v 9.372207 q 0,3.226795 0.50759,4.386991 v 0.163153 z m -8.085118,-0.598227 q 2.755466,0 4.731428,-1.232708 1.994089,-1.232708 2.991133,-3.462459 v -4.658912 h -4.532022 q -4.20571,0 -6.435458,1.667782 -1.812802,1.359604 -1.812802,3.389947 0,1.794678 1.432109,3.045514 1.432118,1.250836 3.625612,1.250836 z"
       inkscape:connector-curvature="0" />
    <path
       id="path916"
       style="font-style:normal;font-variant:normal;font-weight:200;font-stretch:normal;font-size:medium;line-height:0;font-family:Roboto;-inkscape-font-specification:'Roboto Ultra-Light';letter-spacing:0px;word-spacing:0px;fill:#0c4f6b;fill-opacity:0.98113248;fill-rule:nonzero;stroke:none;stroke-width:0.92815673"
       d="m 41.171324,64.381659 q 0,-4.695168 1.975962,-7.323736 1.975962,-2.646698 5.420286,-2.646698 2.193504,0 3.897535,1.015172 1.70404,0.997043 2.737338,2.936746 v -3.589356 h 0.997045 v 19.270129 q 0,3.879404 -1.994089,6.054772 -1.99408,2.193496 -5.420287,2.193496 -1.975962,0 -3.625612,-0.852019 -1.631523,-0.85202 -2.791719,-2.447289 l 0.688859,-0.65261 q 1.142069,1.450245 2.501679,2.211624 1.359601,0.779506 3.190539,0.779506 3.027387,0 4.713291,-1.849062 1.685913,-1.830934 1.740294,-5.184626 V 71.28845 q -1.015171,1.667782 -2.755465,2.574185 -1.722167,0.888275 -3.915661,0.888275 -3.408071,0 -5.384033,-2.701082 -1.975962,-2.70108 -1.975962,-7.414376 z m 0.997044,0.380689 q 0,4.205711 1.667786,6.616742 1.667777,2.392905 4.677038,2.392905 2.483543,0 4.223837,-1.142069 1.740294,-1.160195 2.465416,-3.244922 v -8.900878 q -1.595269,-5.093985 -6.652999,-5.093985 -3.027388,0 -4.713292,2.374775 -1.667786,2.374777 -1.667786,6.997432 z"
       inkscape:connector-curvature="0" />
    <path
       id="path918"
       style="font-style:normal;font-variant:normal;font-weight:200;font-stretch:normal;font-size:medium;line-height:0;font-family:Roboto;-inkscape-font-specification:'Roboto Ultra-Light';letter-spacing:0px;word-spacing:0px;fill:#0c4f6b;fill-opacity:0.98113248;fill-rule:nonzero;stroke:none;stroke-width:0.92815673"
       d="m 60.985298,64.200378 q 0,-2.809849 1.069552,-5.0396 1.087688,-2.24788 3.045514,-3.498717 1.975962,-1.250836 4.459505,-1.250836 2.465417,0 4.423252,1.214581 1.957826,1.21458 3.045514,3.444331 1.105806,2.229752 1.123933,5.021473 v 0.870147 q 0,2.827978 -1.069552,5.057729 -1.069552,2.229751 -3.045514,3.480587 -1.957826,1.250837 -4.441379,1.250837 -2.483543,0 -4.459496,-1.232708 -1.957835,-1.232708 -3.045514,-3.444332 -1.087688,-2.229752 -1.105815,-5.003345 z m 0.978917,0.761379 q 0,2.447288 0.960782,4.495759 0.978917,2.030343 2.701084,3.17241 1.740294,1.142069 3.970042,1.142069 3.3537,0 5.45655,-2.519801 2.120987,-2.5198 2.120987,-6.489846 v -0.56197 q 0,-2.411032 -0.978918,-4.459502 -0.978918,-2.048472 -2.719211,-3.190539 -1.722167,-1.160196 -3.915662,-1.160196 -3.35369,0 -5.474676,2.556057 -2.120978,2.556056 -2.120978,6.435461 z"
       inkscape:connector-curvature="0" />
    <path
       id="path920"
       style="font-style:normal;font-variant:normal;font-weight:200;font-stretch:normal;font-size:medium;line-height:0;font-family:Roboto;-inkscape-font-specification:'Roboto Ultra-Light';letter-spacing:0px;word-spacing:0px;fill:#0c4f6b;fill-opacity:0.98113248;fill-rule:nonzero;stroke:none;stroke-width:0.92815673"
       d="m 91.567338,55.480781 -1.268967,-0.108769 q -2.50167,0 -4.187583,1.631526 -1.685904,1.613398 -2.211621,4.532015 V 74.388349 H 82.920249 V 54.773787 h 0.978918 V 58.8526 q 0.797639,-2.048471 2.392908,-3.244922 1.59527,-1.196453 4.006296,-1.196453 0.85202,0 1.377737,0.199409 z"
       inkscape:connector-curvature="0" />
    <path
       id="path922"
       style="font-style:normal;font-variant:normal;font-weight:200;font-stretch:normal;font-size:medium;line-height:0;font-family:Roboto;-inkscape-font-specification:'Roboto Ultra-Light';letter-spacing:0px;word-spacing:0px;fill:#0c4f6b;fill-opacity:0.98113248;fill-rule:nonzero;stroke:none;stroke-width:0.92815673"
       d="m 107.26624,74.388349 q -0.36256,-1.250837 -0.36256,-3.589356 -1.1602,1.885318 -3.17241,2.918617 -2.01222,1.0333 -4.550151,1.0333 -2.719203,0 -4.386989,-1.468373 -1.64965,-1.486501 -1.64965,-3.861277 0,-2.701081 2.429163,-4.314478 2.44728,-1.631526 6.489837,-1.667782 h 4.8402 v -2.864234 q 0,-2.465416 -1.55902,-3.825021 -1.54088,-1.359604 -4.42325,-1.359604 -2.682946,0 -4.47762,1.377733 -1.794684,1.377732 -1.794684,3.408075 l -0.978918,-0.03625 q 0,-2.392904 2.10286,-4.060685 2.10285,-1.667782 5.148362,-1.667782 3.17241,0 5.03961,1.59527 1.86719,1.577141 1.92157,4.459503 v 9.372207 q 0,3.226795 0.50759,4.386991 v 0.163153 z m -8.085121,-0.598227 q 2.755461,0 4.731431,-1.232708 1.99409,-1.232708 2.99113,-3.462459 v -4.658912 h -4.53202 q -4.205713,0 -6.435461,1.667782 -1.812801,1.359604 -1.812801,3.389947 0,1.794678 1.432108,3.045514 1.432118,1.250836 3.625613,1.250836 z"
       inkscape:connector-curvature="0" />
    <path
       id="path924"
       style="font-style:normal;font-variant:normal;font-weight:200;font-stretch:normal;font-size:medium;line-height:0;font-family:Roboto;-inkscape-font-specification:'Roboto Ultra-Light';letter-spacing:0px;word-spacing:0px;fill:#0c4f6b;fill-opacity:0.98113248;fill-rule:nonzero;stroke:none;stroke-width:0.92815673"
       d="m 118.0343,63.783433 -0.0363,0.03625 -2.8461,2.447288 v 8.121371 h -0.97892 V 46.543645 h 0.97892 v 18.653774 l 2.30226,-2.175367 8.91901,-8.248268 h 1.39586 l -9.00965,8.357036 9.57161,11.257526 h -1.26895 z"
       inkscape:connector-curvature="0" />
    <path
       id="path926"
       style="font-style:normal;font-variant:normal;font-weight:200;font-stretch:normal;font-size:medium;line-height:0;font-family:Roboto;-inkscape-font-specification:'Roboto Ultra-Light';letter-spacing:0px;word-spacing:0px;fill:#0c4f6b;fill-opacity:0.98113248;fill-rule:nonzero;stroke:none;stroke-width:0.92815673"
       d="m 132.93557,74.388349 h -0.97892 V 54.773787 h 0.97892 z m -1.4865,-25.741846 q 0,-0.416946 0.29005,-0.706995 0.29005,-0.308177 0.707,-0.308177 0.41694,0 0.70699,0.308177 0.30818,0.290049 0.30818,0.706995 0,0.416944 -0.30818,0.706993 -0.29005,0.290049 -0.70699,0.290049 -0.41695,0 -0.707,-0.290049 -0.29005,-0.290049 -0.29005,-0.706993 z"
       inkscape:connector-curvature="0" />
    <path
       id="path928"
       style="font-style:normal;font-variant:normal;font-weight:200;font-stretch:normal;font-size:medium;line-height:0;font-family:Roboto;-inkscape-font-specification:'Roboto Ultra-Light';letter-spacing:0px;word-spacing:0px;fill:#0c4f6b;fill-opacity:0.98113248;fill-rule:nonzero;stroke:none;stroke-width:0.92815673"
       d="m 141.60079,49.480393 v 5.293394 h 4.4595 v 0.997043 h -4.4595 v 13.922351 q 0,2.084727 0.67074,3.08177 0.68886,0.997044 2.28413,0.997044 0.79764,0 1.9397,-0.163153 l 0.16316,0.924532 q -0.59823,0.217536 -2.04847,0.217536 -2.13912,0 -3.06364,-1.178324 -0.92454,-1.196452 -0.94267,-3.752508 V 55.77083 h -3.62561 v -0.997043 h 3.62561 v -5.293394 z"
       inkscape:connector-curvature="0" />
    <path
       style="fill:none;stroke:#0c4f6b;stroke-width:1.04917324;stroke-linecap:butt;stroke-linejoin:miter;stroke-miterlimit:4;stroke-dasharray:none;stroke-opacity:1"
       d="m 35.640067,74.041261 c 1.861124,5.01194 3.987218,-1.15391 7.3639,5.06923"
       id="path933"
       inkscape:connector-curvature="0"
       sodipodi:nodetypes="cc" />
    <path
       style="fill:none;stroke:#0c4f6b;stroke-width:1;stroke-linecap:butt;stroke-linejoin:miter;stroke-miterlimit:4;stroke-dasharray:none;stroke-opacity:1"
       d="m 55.665333,55.461201 c 0.220657,-19.87772 27.999801,-16.84758 27.74592,-0.39255"
       id="path935"
       inkscape:connector-curvature="0"
       sodipodi:nodetypes="cc" />
    <path
       style="fill:none;stroke:#0c4f6b;stroke-width:0.98000002;stroke-linecap:butt;stroke-linejoin:miter;stroke-miterlimit:4;stroke-dasharray:none;stroke-opacity:1"
       d="m 114.66154,46.612317 c -0.36162,-20.821552 26.27891,-12.948126 26.43956,3.400824"
       id="path937"
       inkscape:connector-curvature="0"
       sodipodi:nodetypes="cc" />
    <path
       style="fill:none;stroke:#0c4f6b;stroke-width:1;stroke-linecap:butt;stroke-linejoin:miter;stroke-miterlimit:4;stroke-dasharray:none;stroke-opacity:1"
       d="m 145.55211,74.207671 c 9.38516,-0.84488 19.6962,-15.60414 32.64769,-5.66964"
       id="path939"
       inkscape:connector-curvature="0"
       sodipodi:nodetypes="cc" />
  </g>
</svg>
