<?xml version="1.0" encoding="UTF-8" standalone="no"?>
<!-- Created with Inkscape (http://www.inkscape.org/) -->

<svg
   xmlns:dc="http://purl.org/dc/elements/1.1/"
   xmlns:cc="http://creativecommons.org/ns#"
   xmlns:rdf="http://www.w3.org/1999/02/22-rdf-syntax-ns#"
   xmlns:svg="http://www.w3.org/2000/svg"
   xmlns="http://www.w3.org/2000/svg"
   xmlns:sodipodi="http://sodipodi.sourceforge.net/DTD/sodipodi-0.dtd"
   xmlns:inkscape="http://www.inkscape.org/namespaces/inkscape"
   width="31.418247mm"
   height="14.90606mm"
   viewBox="0 0 31.418247 14.90606"
   version="1.1"
   id="svg3893"
   inkscape:version="0.92.2 (unknown)"
   sodipodi:docname="agorakit-logo.svg">
  <defs
     id="defs3887">
    <clipPath
       clipPathUnits="userSpaceOnUse"
       id="clipPath18">
      <path
         d="M 0,841.89 H 595.28 V 0 H 0 Z"
         id="path16"
         inkscape:connector-curvature="0" />
    </clipPath>
  </defs>
  <sodipodi:namedview
     id="base"
     pagecolor="#ffffff"
     bordercolor="#666666"
     borderopacity="1.0"
     inkscape:pageopacity="0.0"
     inkscape:pageshadow="2"
     inkscape:zoom="5.6"
     inkscape:cx="59.044073"
     inkscape:cy="33.893432"
     inkscape:document-units="mm"
     inkscape:current-layer="layer1"
     showgrid="false"
     fit-margin-top="0"
     fit-margin-left="0"
     fit-margin-right="0"
     fit-margin-bottom="0"
     inkscape:window-width="1920"
     inkscape:window-height="1027"
     inkscape:window-x="0"
     inkscape:window-y="0"
     inkscape:window-maximized="1" />
  <metadata
     id="metadata3890">
    <rdf:RDF>
      <cc:Work
         rdf:about="">
        <dc:format>image/svg+xml</dc:format>
        <dc:type
           rdf:resource="http://purl.org/dc/dcmitype/StillImage" />
        <dc:title></dc:title>
      </cc:Work>
    </rdf:RDF>
  </metadata>
  <g
     inkscape:label="Calque 1"
     inkscape:groupmode="layer"
     id="layer1"
     transform="translate(-51.570636,-19.671976)">
    <g
       id="g12"
       transform="matrix(0.35277777,0,0,-0.35277777,41.285259,306.13003)"
       inkscape:export-filename="/home/philippe/Sites/agorakit-website/agorakit-logo.png"
       inkscape:export-xdpi="969.57837"
       inkscape:export-ydpi="969.57837">
      <g
         id="g14"
         clip-path="url(#clipPath18)">
        <g
           id="g20"
           transform="translate(78.7124,790.1888)">
          <path
             d="m 0,0 h -2 c 0,3.356 -2.73,6.087 -6.086,6.087 -3.356,0 -6.087,-2.731 -6.087,-6.087 h -2 c 0,4.459 3.628,8.087 8.087,8.087 C -3.627,8.087 0,4.459 0,0"
             style="fill:#231f20;fill-opacity:1;fill-rule:nonzero;stroke:none"
             id="path22"
             inkscape:connector-curvature="0" />
        </g>
        <g
           id="g24"
           transform="translate(70.7408,807.191)">
          <path
             d="M 0,0 0.115,-0.001 0.23,-0.002 0.344,-0.005 0.459,-0.008 0.573,-0.012 0.687,-0.017 0.801,-0.022 0.915,-0.028 1.028,-0.035 1.142,-0.043 1.255,-0.051 1.368,-0.06 1.481,-0.07 1.593,-0.08 1.706,-0.091 1.818,-0.103 1.93,-0.115 l 0.112,-0.014 0.112,-0.013 0.111,-0.015 0.111,-0.015 0.112,-0.016 0.11,-0.017 0.111,-0.017 0.11,-0.018 0.111,-0.018 0.109,-0.02 0.11,-0.02 0.11,-0.02 0.109,-0.021 0.109,-0.022 0.109,-0.023 0.108,-0.023 0.109,-0.024 0.108,-0.025 0.107,-0.025 0.108,-0.026 0.107,-0.027 0.107,-0.027 0.107,-0.028 0.107,-0.028 0.106,-0.029 0.106,-0.03 0.106,-0.03 0.105,-0.031 0.106,-0.032 0.104,-0.032 0.105,-0.033 0.104,-0.034 0.105,-0.034 0.103,-0.035 0.104,-0.035 0.103,-0.036 0.103,-0.037 0.103,-0.037 0.102,-0.038 0.102,-0.038 0.102,-0.039 0.101,-0.04 0.102,-0.04 0.1,-0.041 0.101,-0.041 0.1,-0.042 0.1,-0.043 0.1,-0.043 0.099,-0.044 0.099,-0.044 0.099,-0.045 0.098,-0.046 0.098,-0.046 0.098,-0.047 0.097,-0.047 0.097,-0.048 0.097,-0.048 0.096,-0.049 0.096,-0.05 0.096,-0.05 0.095,-0.05 0.095,-0.052 0.095,-0.051 0.094,-0.053 0.094,-0.052 0.093,-0.054 0.094,-0.054 0.092,-0.054 0.093,-0.055 0.092,-0.056 0.092,-0.056 0.091,-0.057 0.091,-0.057 0.091,-0.058 0.09,-0.058 0.09,-0.059 0.089,-0.059 0.089,-0.06 0.089,-0.06 0.089,-0.061 0.087,-0.061 0.088,-0.062 0.087,-0.063 0.087,-0.062 0.086,-0.064 0.086,-0.064 0.086,-0.064 0.085,-0.065 0.085,-0.065 0.084,-0.066 0.084,-0.067 0.084,-0.067 0.083,-0.067 0.083,-0.068 0.082,-0.068 0.082,-0.069 0.082,-0.069 0.081,-0.07 0.08,-0.07 0.08,-0.071 0.08,-0.071 0.079,-0.072 0.079,-0.072 0.079,-0.073 0.078,-0.073 0.077,-0.073 0.078,-0.074 0.076,-0.075 0.077,-0.075 0.075,-0.075 0.076,-0.076 0.075,-0.076 0.074,-0.077 0.074,-0.077 0.074,-0.078 0.073,-0.078 0.072,-0.078 0.072,-0.079 0.072,-0.079 0.071,-0.08 0.071,-0.08 0.07,-0.081 0.07,-0.081 0.07,-0.081 0.068,-0.082 0.069,-0.083 0.068,-0.082 0.067,-0.083 0.067,-0.084 0.066,-0.084 0.066,-0.084 0.066,-0.085 0.065,-0.085 0.064,-0.086 0.064,-0.086 0.063,-0.086 0.063,-0.087 0.063,-0.087 0.061,-0.088 0.062,-0.088 0.061,-0.088 0.06,-0.089 0.06,-0.089 0.059,-0.089 0.059,-0.09 0.058,-0.091 0.058,-0.09 0.057,-0.091 0.057,-0.092 0.056,-0.091 0.055,-0.092 0.055,-0.093 0.055,-0.093 0.054,-0.093 0.053,-0.093 0.053,-0.094 0.053,-0.095 0.051,-0.094 0.052,-0.095 0.05,-0.096 0.05,-0.095 0.05,-0.096 0.049,-0.096 0.048,-0.097 0.048,-0.097 0.047,-0.097 0.047,-0.098 0.046,-0.098 0.046,-0.098 0.045,-0.099 0.044,-0.099 0.044,-0.099 0.043,-0.1 0.043,-0.1 0.042,-0.1 0.041,-0.101 0.041,-0.101 0.04,-0.101 0.04,-0.101 0.039,-0.102 0.038,-0.102 0.038,-0.102 0.037,-0.103 0.037,-0.103 0.036,-0.103 0.035,-0.104 0.035,-0.104 0.034,-0.104 0.034,-0.104 0.033,-0.105 0.032,-0.105 0.032,-0.105 0.031,-0.105 0.03,-0.106 0.03,-0.106 0.029,-0.106 0.029,-0.107 0.027,-0.107 0.028,-0.107 0.026,-0.107 0.026,-0.108 0.025,-0.107 0.025,-0.109 0.024,-0.108 0.023,-0.108 0.023,-0.109 0.022,-0.109 0.021,-0.109 0.021,-0.11 0.019,-0.11 0.02,-0.11 0.018,-0.11 0.018,-0.11 0.018,-0.111 0.016,-0.111 0.016,-0.111 0.015,-0.111 0.015,-0.111 0.014,-0.112 0.013,-0.112 0.012,-0.112 0.012,-0.112 0.011,-0.113 0.01,-0.112 0.01,-0.113 0.009,-0.113 0.008,-0.113 0.008,-0.114 0.007,-0.113 0.006,-0.114 0.005,-0.114 0.005,-0.114 0.004,-0.114 0.003,-0.115 0.003,-0.115 10e-4,-0.114 0.002,-0.115 v -0.109 l -4,-0.012 v 0.095 l -10e-4,0.09 -0.002,0.09 -0.002,0.089 -0.002,0.089 -0.003,0.089 -0.004,0.089 -0.004,0.088 -0.005,0.089 -0.005,0.088 -0.006,0.088 -0.007,0.088 -0.006,0.088 -0.008,0.088 -0.008,0.087 -0.009,0.088 -0.009,0.087 -0.009,0.087 -0.011,0.087 -0.01,0.086 -0.012,0.087 -0.011,0.086 -0.013,0.086 -0.013,0.086 -0.013,0.086 -0.014,0.085 -0.014,0.086 -0.015,0.085 -0.016,0.085 -0.016,0.085 -0.016,0.084 -0.017,0.085 -0.018,0.084 -0.018,0.084 -0.018,0.084 -0.019,0.084 -0.02,0.083 -0.02,0.084 -0.02,0.083 -0.021,0.083 -0.022,0.082 -0.022,0.083 -0.023,0.082 -0.023,0.082 -0.023,0.082 -0.024,0.082 -0.025,0.081 -0.025,0.081 -0.025,0.081 -0.026,0.081 -0.027,0.081 -0.026,0.08 -0.028,0.08 -0.028,0.08 -0.028,0.08 -0.029,0.079 -0.029,0.08 -0.03,0.079 -0.03,0.078 -0.031,0.079 -0.031,0.078 -0.032,0.078 -0.032,0.078 -0.032,0.078 -0.033,0.077 -0.034,0.077 -0.034,0.077 -0.034,0.077 -0.035,0.076 -0.035,0.077 -0.036,0.075 -0.036,0.076 -0.037,0.076 -0.037,0.075 -0.037,0.075 -0.038,0.074 -0.039,0.075 -0.039,0.074 -0.039,0.074 -0.04,0.073 -0.04,0.074 -0.04,0.073 -0.041,0.073 -0.042,0.072 -0.041,0.072 -0.043,0.072 -0.043,0.072 -0.043,0.072 -0.043,0.071 -0.044,0.071 -0.045,0.07 -0.044,0.07 -0.045,0.07 -0.046,0.07 -0.046,0.07 -0.047,0.069 -0.046,0.069 -0.047,0.068 -0.048,0.069 -0.048,0.067 -0.049,0.068 -0.049,0.068 -0.049,0.067 -0.049,0.066 -0.05,0.067 -0.051,0.066 -0.051,0.066 -0.051,0.065 -0.051,0.066 -0.052,0.064 -0.053,0.065 -0.052,0.064 -0.053,0.064 -0.054,0.064 -0.054,0.063 -0.054,0.063 -0.054,0.063 -0.055,0.062 -0.056,0.062 -0.055,0.062 -0.056,0.061 -0.057,0.061 -0.057,0.06 -0.057,0.061 -0.057,0.06 -0.058,0.059 -0.058,0.059 -0.059,0.059 -0.059,0.059 -0.059,0.058 -0.06,0.058 -0.06,0.057 -0.06,0.058 -0.06,0.056 L 9.247,-7.648 9.186,-7.592 9.125,-7.537 9.063,-7.481 9,-7.426 8.938,-7.372 8.875,-7.317 8.812,-7.264 8.748,-7.21 8.684,-7.157 8.62,-7.104 8.555,-7.052 8.49,-7 8.425,-6.949 8.359,-6.897 8.294,-6.847 8.227,-6.796 8.161,-6.746 8.094,-6.697 8.027,-6.647 7.96,-6.599 7.892,-6.55 7.824,-6.502 7.756,-6.454 7.687,-6.407 7.618,-6.36 7.549,-6.314 7.48,-6.268 7.41,-6.222 7.34,-6.177 7.27,-6.132 7.199,-6.088 7.128,-6.044 7.057,-6.001 6.986,-5.957 6.914,-5.915 6.842,-5.872 6.77,-5.831 6.697,-5.789 6.624,-5.748 6.551,-5.708 6.478,-5.668 6.404,-5.628 6.33,-5.589 6.256,-5.55 6.182,-5.511 6.107,-5.473 6.032,-5.436 5.957,-5.399 5.882,-5.362 5.806,-5.326 5.73,-5.29 5.654,-5.255 5.577,-5.22 5.501,-5.186 5.424,-5.152 5.347,-5.118 5.269,-5.085 5.192,-5.053 5.114,-5.021 5.036,-4.989 4.957,-4.958 4.879,-4.927 4.8,-4.897 l -0.079,0.03 -0.079,0.029 -0.08,0.029 -0.08,0.028 -0.08,0.028 -0.08,0.027 -0.08,0.027 -0.081,0.027 -0.08,0.026 L 4,-4.621 3.918,-4.596 3.837,-4.571 3.755,-4.547 3.673,-4.524 3.591,-4.501 3.509,-4.478 3.426,-4.456 3.344,-4.435 3.261,-4.414 3.178,-4.393 3.095,-4.373 3.011,-4.353 2.927,-4.334 2.844,-4.316 2.759,-4.298 2.675,-4.28 2.591,-4.263 2.506,-4.247 2.421,-4.231 2.336,-4.215 2.251,-4.2 2.166,-4.186 2.08,-4.172 1.994,-4.159 1.908,-4.146 1.822,-4.134 1.736,-4.122 1.649,-4.11 1.563,-4.1 1.476,-4.09 1.389,-4.08 1.302,-4.071 1.215,-4.062 1.127,-4.054 1.039,-4.047 0.952,-4.04 0.864,-4.033 0.775,-4.027 0.687,-4.022 0.598,-4.017 0.51,-4.013 0.421,-4.009 0.332,-4.006 0.243,-4.004 0.154,-4.002 0.064,-4 H -0.025 L -0.115,-3.999 -0.205,-4 H -0.294 L -0.384,-4.002 -0.473,-4.004 -0.562,-4.006 -0.651,-4.009 -0.74,-4.013 -0.829,-4.017 -0.917,-4.022 -1.005,-4.027 -1.093,-4.033 -1.182,-4.04 -1.269,-4.047 -1.357,-4.054 -1.445,-4.062 -1.532,-4.071 -1.619,-4.08 -1.706,-4.09 -1.793,-4.1 -1.879,-4.11 -1.966,-4.122 -2.052,-4.134 -2.138,-4.146 -2.224,-4.159 -2.31,-4.172 -2.395,-4.186 -2.481,-4.2 -2.566,-4.215 -2.651,-4.231 -2.736,-4.247 -2.82,-4.263 -2.905,-4.28 l -0.084,-0.018 -0.084,-0.018 -0.084,-0.018 -0.084,-0.019 -0.083,-0.02 -0.084,-0.02 -0.083,-0.021 -0.083,-0.021 -0.082,-0.021 -0.083,-0.022 -0.082,-0.023 -0.082,-0.023 -0.082,-0.023 -0.082,-0.024 -0.081,-0.025 -0.081,-0.025 -0.081,-0.025 -0.081,-0.026 -0.081,-0.027 -0.08,-0.027 -0.08,-0.027 -0.08,-0.028 -0.08,-0.028 -0.079,-0.029 -0.08,-0.029 -0.078,-0.03 -0.079,-0.03 L -5.187,-4.958 -5.265,-4.989 -5.343,-5.021 -5.421,-5.053 -5.499,-5.085 -5.576,-5.118 -5.653,-5.152 -5.73,-5.186 -5.807,-5.22 -5.883,-5.255 -5.96,-5.29 -6.035,-5.326 -6.111,-5.362 -6.186,-5.399 -6.262,-5.436 -6.337,-5.473 -6.411,-5.511 -6.486,-5.55 -6.56,-5.589 l -0.074,-0.039 -0.073,-0.039 -0.074,-0.041 -0.073,-0.04 -0.072,-0.041 -0.073,-0.042 -0.072,-0.041 -0.072,-0.043 -0.072,-0.042 -0.071,-0.044 -0.072,-0.043 -0.07,-0.044 -0.071,-0.044 -0.07,-0.045 -0.07,-0.045 -0.07,-0.046 -0.07,-0.046 L -7.848,-6.36 -7.917,-6.407 -7.985,-6.454 -8.053,-6.502 -8.121,-6.55 -8.189,-6.598 -8.257,-6.647 -8.324,-6.697 -8.39,-6.746 -8.457,-6.796 -8.523,-6.847 -8.589,-6.897 -8.654,-6.949 -8.719,-7 -8.784,-7.052 -8.849,-7.104 -8.913,-7.157 -8.977,-7.21 -9.041,-7.264 -9.104,-7.317 -9.167,-7.372 -9.23,-7.426 l -0.062,-0.055 -0.062,-0.055 -0.062,-0.056 -0.061,-0.056 -0.061,-0.057 -0.06,-0.056 -0.061,-0.058 -0.06,-0.057 -0.059,-0.058 -0.059,-0.058 -0.059,-0.059 -0.059,-0.058 -0.058,-0.06 -0.058,-0.059 -0.057,-0.06 -0.058,-0.061 -0.056,-0.06 -0.057,-0.061 -0.056,-0.061 -0.055,-0.062 -0.056,-0.062 -0.055,-0.062 -0.054,-0.063 -0.055,-0.063 -0.053,-0.063 -0.054,-0.064 -0.053,-0.064 -0.053,-0.064 -0.052,-0.065 -0.052,-0.064 -0.052,-0.066 -0.051,-0.065 -0.05,-0.066 -0.051,-0.066 -0.05,-0.067 -0.05,-0.066 -0.049,-0.067 -0.049,-0.068 -0.048,-0.067 -0.048,-0.068 -0.048,-0.069 -0.047,-0.068 -0.047,-0.069 -0.046,-0.069 -0.046,-0.07 -0.046,-0.07 -0.045,-0.07 -0.045,-0.07 -0.044,-0.07 -0.044,-0.071 -0.044,-0.071 -0.043,-0.072 -0.042,-0.072 -0.043,-0.072 -0.042,-0.072 -0.041,-0.072 -0.041,-0.073 -0.041,-0.073 -0.04,-0.074 -0.039,-0.073 -0.04,-0.074 -0.038,-0.074 -0.039,-0.075 -0.038,-0.074 -0.037,-0.075 -0.037,-0.075 -0.037,-0.076 -0.036,-0.076 -0.036,-0.075 -0.035,-0.077 -0.035,-0.076 -0.034,-0.077 -0.034,-0.077 -0.034,-0.077 -0.033,-0.077 -0.032,-0.078 -0.032,-0.078 -0.032,-0.078 -0.031,-0.078 -0.031,-0.079 -0.03,-0.078 -0.03,-0.079 -0.029,-0.08 -0.029,-0.079 -0.028,-0.08 -0.028,-0.08 -0.028,-0.08 -0.027,-0.08 -0.026,-0.081 -0.026,-0.081 -0.025,-0.081 -0.026,-0.081 -0.024,-0.081 -0.024,-0.082 -0.023,-0.082 -0.024,-0.082 -0.022,-0.082 -0.022,-0.083 -0.022,-0.082 -0.021,-0.083 -0.02,-0.083 -0.02,-0.084 -0.02,-0.083 -0.019,-0.084 -0.019,-0.084 -0.017,-0.084 -0.018,-0.084 -0.017,-0.085 -0.017,-0.084 -0.015,-0.085 -0.016,-0.085 -0.015,-0.085 -0.014,-0.086 -0.014,-0.085 -0.014,-0.086 -0.012,-0.086 -0.013,-0.086 -0.012,-0.086 -0.011,-0.087 -0.011,-0.086 -0.01,-0.087 -0.009,-0.087 -0.01,-0.087 -0.008,-0.088 -0.008,-0.087 -0.008,-0.088 -0.007,-0.088 -0.006,-0.088 -0.006,-0.088 -0.005,-0.088 -0.005,-0.089 -0.004,-0.088 -0.004,-0.089 -0.003,-0.089 -0.003,-0.089 -10e-4,-0.089 -0.002,-0.09 -0.001,-0.089 v -0.097 l -4,0.013 v 0.109 l 0.001,0.115 0.002,0.115 0.003,0.114 0.003,0.115 0.004,0.114 0.005,0.114 0.005,0.114 0.006,0.114 0.007,0.113 0.008,0.114 0.008,0.113 0.009,0.113 0.009,0.113 0.011,0.112 0.011,0.113 0.012,0.112 0.012,0.112 0.013,0.112 0.014,0.112 0.015,0.111 0.015,0.111 0.016,0.111 0.016,0.111 0.018,0.111 0.018,0.11 0.018,0.11 0.019,0.11 0.02,0.11 0.021,0.11 0.021,0.109 0.022,0.109 0.023,0.109 0.023,0.108 0.024,0.108 0.025,0.109 0.025,0.107 0.026,0.108 0.026,0.107 0.028,0.107 0.027,0.107 0.029,0.107 0.029,0.106 0.03,0.106 0.03,0.106 0.031,0.105 0.032,0.105 0.032,0.105 0.033,0.105 0.033,0.104 0.035,0.104 0.034,0.104 0.036,0.104 0.036,0.103 0.036,0.103 0.038,0.103 0.037,0.102 0.039,0.102 0.039,0.102 0.04,0.101 0.04,0.101 0.041,0.101 0.041,0.101 0.042,0.1 0.043,0.1 0.043,0.1 0.044,0.099 0.044,0.099 0.045,0.099 0.046,0.098 0.046,0.098 0.047,0.098 0.047,0.097 0.048,0.097 0.048,0.097 0.049,0.096 0.049,0.096 0.051,0.095 0.05,0.096 0.052,0.095 0.051,0.094 0.053,0.095 0.053,0.094 0.053,0.093 0.054,0.093 0.054,0.093 0.055,0.093 0.056,0.092 0.056,0.091 0.057,0.092 0.057,0.091 0.058,0.09 0.058,0.091 0.059,0.09 0.059,0.089 0.06,0.089 0.06,0.089 0.061,0.088 0.061,0.088 0.062,0.088 0.063,0.087 0.063,0.087 0.063,0.086 0.064,0.086 0.064,0.086 0.065,0.085 0.066,0.085 0.065,0.084 0.067,0.084 0.067,0.084 0.067,0.083 0.068,0.082 0.068,0.083 0.069,0.082 0.069,0.081 0.07,0.081 0.07,0.081 0.071,0.08 0.072,0.08 0.071,0.079 0.072,0.079 0.073,0.078 0.073,0.078 0.074,0.078 0.074,0.077 0.074,0.077 0.075,0.076 0.075,0.076 0.076,0.075 0.076,0.075 0.077,0.075 0.077,0.074 0.078,0.073 0.078,0.073 0.078,0.073 0.079,0.072 0.079,0.072 0.08,0.071 0.08,0.071 0.081,0.07 0.081,0.07 0.082,0.069 0.081,0.069 0.083,0.068 0.083,0.068 0.083,0.067 0.083,0.067 0.084,0.067 0.085,0.065 0.084,0.066 0.086,0.065 0.085,0.064 0.086,0.064 0.087,0.064 0.086,0.062 0.088,0.063 0.087,0.062 0.088,0.061 0.088,0.061 0.089,0.06 0.089,0.06 0.09,0.059 0.09,0.059 0.09,0.058 0.091,0.058 0.09,0.057 0.092,0.057 0.092,0.056 0.092,0.056 0.092,0.055 0.093,0.054 0.093,0.054 0.094,0.053 0.094,0.053 0.094,0.053 0.094,0.051 0.095,0.052 0.096,0.05 0.095,0.05 0.096,0.05 0.097,0.049 0.096,0.048 0.097,0.048 0.098,0.047 0.097,0.047 0.098,0.046 0.099,0.046 0.098,0.045 0.099,0.044 0.099,0.044 0.1,0.043 0.1,0.043 0.1,0.042 0.101,0.041 0.101,0.041 0.101,0.04 0.101,0.04 0.102,0.039 0.102,0.038 0.103,0.038 0.102,0.037 0.103,0.037 0.103,0.036 0.104,0.035 0.104,0.035 0.104,0.034 0.104,0.034 0.105,0.033 0.105,0.032 0.105,0.032 0.105,0.031 0.106,0.03 0.106,0.03 0.106,0.029 0.107,0.028 0.107,0.028 0.107,0.027 0.107,0.027 0.108,0.026 0.107,0.025 0.109,0.025 0.108,0.024 0.108,0.023 0.109,0.023 0.109,0.022 0.109,0.021 0.11,0.02 0.11,0.02 0.11,0.02 0.11,0.018 0.11,0.018 0.111,0.017 0.111,0.017 0.111,0.016 0.111,0.015 0.111,0.015 0.112,0.013 0.112,0.014 0.112,0.012 0.112,0.012 0.112,0.011 0.113,0.01 0.113,0.01 0.113,0.009 0.113,0.008 0.114,0.008 0.113,0.007 0.114,0.006 0.114,0.005 0.114,0.005 0.114,0.004 0.115,0.003 0.114,0.003 0.115,0.001 L -0.23,0 -0.115,0.001 Z"
             style="fill:#231f20;fill-opacity:1;fill-rule:evenodd;stroke:none"
             id="path26"
             inkscape:connector-curvature="0" />
        </g>
        <g
           id="g28"
           transform="translate(71.9047,791.189)">
          <path
             d="m 0,0 c 0,-0.774 -0.627,-1.401 -1.401,-1.401 -0.773,0 -1.401,0.627 -1.401,1.401 0,0.774 0.628,1.401 1.401,1.401 C -0.627,1.401 0,0.774 0,0"
             style="fill:#55ab56;fill-opacity:1;fill-rule:nonzero;stroke:none"
             id="path30"
             inkscape:connector-curvature="0" />
        </g>
        <g
           id="g32"
           transform="translate(55.1841,801.486)">
          <path
             d="m 0,0 c 0,-0.774 -0.627,-1.401 -1.401,-1.401 -0.773,0 -1.401,0.627 -1.401,1.401 0,0.774 0.628,1.401 1.401,1.401 C -0.627,1.401 0,0.774 0,0"
             style="fill:#404ba7;fill-opacity:1;fill-rule:nonzero;stroke:none"
             id="path34"
             inkscape:connector-curvature="0" />
        </g>
        <g
           id="g36"
           transform="translate(60.8699,807.162)">
          <path
             d="m 0,0 c 0,-0.774 -0.627,-1.401 -1.401,-1.401 -0.773,0 -1.401,0.627 -1.401,1.401 0,0.774 0.628,1.401 1.401,1.401 C -0.627,1.401 0,0.774 0,0"
             style="fill:#e2a412;fill-opacity:1;fill-rule:nonzero;stroke:none"
             id="path38"
             inkscape:connector-curvature="0" />
        </g>
        <g
           id="g40"
           transform="translate(72,810.6331)">
          <path
             d="m 0,0 c 0,-0.759 -0.615,-1.374 -1.374,-1.374 -0.759,0 -1.374,0.615 -1.374,1.374 0,0.759 0.615,1.374 1.374,1.374 C -0.615,1.374 0,0.759 0,0"
             style="fill:#ed1c24;fill-opacity:1;fill-rule:nonzero;stroke:none"
             id="path42"
             inkscape:connector-curvature="0" />
        </g>
        <g
           id="g44"
           transform="translate(90.951,799.085)">
          <path
             d="m 0,0 c 0,-0.759 -0.615,-1.374 -1.374,-1.374 -0.759,0 -1.374,0.615 -1.374,1.374 0,0.759 0.615,1.374 1.374,1.374 C -0.615,1.374 0,0.759 0,0"
             style="fill:#e2a412;fill-opacity:1;fill-rule:nonzero;stroke:none"
             id="path46"
             inkscape:connector-curvature="0" />
        </g>
        <g
           id="g48"
           transform="translate(81.9716,795.1331)">
          <path
             d="m 0,0 c 0,-0.759 -0.615,-1.374 -1.374,-1.374 -0.759,0 -1.374,0.615 -1.374,1.374 0,0.759 0.615,1.374 1.374,1.374 C -0.615,1.374 0,0.759 0,0"
             style="fill:#5ccaee;fill-opacity:1;fill-rule:nonzero;stroke:none"
             id="path50"
             inkscape:connector-curvature="0" />
        </g>
        <g
           id="g52"
           transform="translate(62.3521,795.1331)">
          <path
             d="m 0,0 c 0,-0.774 -0.627,-1.401 -1.401,-1.401 -0.773,0 -1.401,0.627 -1.401,1.401 0,0.774 0.628,1.401 1.401,1.401 C -0.627,1.401 0,0.774 0,0"
             style="fill:#ed1c24;fill-opacity:1;fill-rule:nonzero;stroke:none"
             id="path54"
             inkscape:connector-curvature="0" />
        </g>
        <g
           id="g56"
           transform="translate(66.3954,799.085)">
          <path
             d="m 0,0 c 0,-0.759 -0.615,-1.374 -1.374,-1.374 -0.759,0 -1.374,0.615 -1.374,1.374 0,0.759 0.615,1.374 1.374,1.374 C -0.615,1.374 0,0.759 0,0"
             style="fill:#5ccaee;fill-opacity:1;fill-rule:nonzero;stroke:none"
             id="path58"
             inkscape:connector-curvature="0" />
        </g>
        <g
           id="g60"
           transform="translate(72,800.89)">
          <path
             d="m 0,0 c 0,-0.759 -0.615,-1.374 -1.374,-1.374 -0.759,0 -1.374,0.615 -1.374,1.374 0,0.759 0.615,1.374 1.374,1.374 C -0.615,1.374 0,0.759 0,0"
             style="fill:#f1a80e;fill-opacity:1;fill-rule:nonzero;stroke:none"
             id="path62"
             inkscape:connector-curvature="0" />
        </g>
        <g
           id="g64"
           transform="translate(77.7127,799.085)">
          <path
             d="m 0,0 c 0,-0.759 -0.615,-1.374 -1.374,-1.374 -0.759,0 -1.374,0.615 -1.374,1.374 0,0.759 0.615,1.374 1.374,1.374 C -0.615,1.374 0,0.759 0,0"
             style="fill:#ed1c24;fill-opacity:1;fill-rule:nonzero;stroke:none"
             id="path66"
             inkscape:connector-curvature="0" />
        </g>
        <g
           id="g68"
           transform="translate(86.0934,807.162)">
          <path
             d="m 0,0 c 0,-0.759 -0.615,-1.374 -1.374,-1.374 -0.759,0 -1.374,0.615 -1.374,1.374 0,0.759 0.615,1.374 1.374,1.374 C -0.615,1.374 0,0.759 0,0"
             style="fill:#4872c1;fill-opacity:1;fill-rule:nonzero;stroke:none"
             id="path70"
             inkscape:connector-curvature="0" />
        </g>
        <g
           id="g72"
           transform="translate(100.7345,770.0948)">
          <path
             d="M 0,0 -0.029,-0.095 C -0.068,-0.127 -0.21,-0.182 -0.458,-0.261 l -0.115,0.047 C -3.378,1.94 -5.859,4.029 -8.015,6.057 v 0.07 l 5.782,4.538 1.002,0.878 h 0.83 L -7.271,6.104 C -5.019,3.966 -2.596,1.932 0,0 m -9.246,11.543 h 0.572 V -0.119 h -0.572 z"
             style="fill:#231f20;fill-opacity:1;fill-rule:nonzero;stroke:none"
             id="path74"
             inkscape:connector-curvature="0" />
        </g>
        <path
           d="m 104.569,781.638 h 0.572 v -11.662 h -0.572 z"
           style="fill:#231f20;fill-opacity:1;fill-rule:nonzero;stroke:none"
           id="path76"
           inkscape:connector-curvature="0" />
        <g
           id="g78"
           transform="translate(118.129,781.2861)">
          <path
             d="m 0,0 -2.376,0.024 h -2.175 v -11.21 H -5.124 V 0.024 H -7.242 L -9.704,0 -9.79,0.096 -9.704,0.475 H 0.029 L 0.086,0.381 Z"
             style="fill:#231f20;fill-opacity:1;fill-rule:nonzero;stroke:none"
             id="path80"
             inkscape:connector-curvature="0" />
        </g>
        <g
           id="g82"
           transform="translate(63.1291,775.7902)">
          <path
             d="m 0,0 v -0.03 l -0.001,-0.03 v -0.029 l -0.001,-0.03 -0.001,-0.029 -0.001,-0.03 -0.002,-0.029 -0.001,-0.03 -0.002,-0.029 -0.002,-0.029 -0.002,-0.03 L -0.016,-0.354 -0.018,-0.383 -0.021,-0.412 -0.024,-0.441 -0.027,-0.47 -0.03,-0.499 -0.033,-0.528 -0.037,-0.556 -0.041,-0.585 -0.045,-0.614 -0.049,-0.642 -0.053,-0.671 -0.057,-0.699 -0.062,-0.728 -0.066,-0.756 -0.071,-0.785 -0.077,-0.813 -0.082,-0.841 -0.087,-0.869 -0.093,-0.897 -0.099,-0.925 -0.105,-0.953 -0.111,-0.981 -0.117,-1.009 -0.124,-1.036 -0.131,-1.064 -0.138,-1.092 -0.145,-1.119 -0.151,-1.147 -0.159,-1.174 -0.166,-1.201 -0.174,-1.229 -0.182,-1.256 -0.19,-1.283 -0.198,-1.31 -0.206,-1.337 -0.215,-1.364 -0.223,-1.391 -0.232,-1.418 -0.241,-1.444 -0.25,-1.471 l -0.009,-0.027 -0.01,-0.026 -0.009,-0.026 -0.01,-0.027 -0.01,-0.026 -0.01,-0.026 -0.01,-0.026 -0.011,-0.026 -0.01,-0.026 L -0.35,-1.733 -0.36,-1.759 -0.371,-1.785 -0.383,-1.81 -0.394,-1.836 -0.405,-1.861 -0.417,-1.887 -0.429,-1.912 -0.44,-1.937 -0.452,-1.962 -0.465,-1.987 -0.477,-2.012 -0.489,-2.037 -0.502,-2.062 -0.515,-2.087 -0.528,-2.111 -0.541,-2.136 -0.554,-2.16 -0.567,-2.185 -0.581,-2.209 -0.594,-2.233 -0.608,-2.257 -0.622,-2.281 -0.636,-2.305 -0.65,-2.329 -0.665,-2.353 -0.679,-2.376 -0.694,-2.4 -0.708,-2.423 -0.723,-2.447 -0.738,-2.47 -0.753,-2.493 -0.769,-2.516 -0.784,-2.539 -0.8,-2.562 -0.815,-2.585 -0.831,-2.608 -0.847,-2.63 -0.863,-2.653 -0.879,-2.675 -0.896,-2.697 -0.912,-2.72 -0.929,-2.742 -0.946,-2.764 -0.962,-2.785 -0.98,-2.807 -0.997,-2.829 -1.014,-2.85 -1.031,-2.872 -1.049,-2.893 -1.066,-2.914 -1.084,-2.936 -1.102,-2.957 -1.12,-2.978 l -0.018,-0.02 -0.018,-0.021 -0.019,-0.021 -0.018,-0.02 -0.019,-0.02 -0.019,-0.021 -0.018,-0.02 -0.02,-0.02 -0.019,-0.02 -0.019,-0.02 -0.019,-0.019 -0.02,-0.02 -0.019,-0.019 -0.02,-0.02 -0.02,-0.019 -0.019,-0.019 -0.021,-0.019 -0.02,-0.019 -0.02,-0.019 -0.02,-0.018 -0.021,-0.019 -0.02,-0.018 L -1.567,-3.427 -1.588,-3.445 -1.609,-3.464 -1.63,-3.481 -1.651,-3.499 -1.672,-3.517 -1.694,-3.534 -1.715,-3.552 -1.736,-3.569 -1.758,-3.586 -1.78,-3.603 -1.802,-3.62 -1.824,-3.637 -1.846,-3.653 -1.868,-3.67 -1.89,-3.686 -1.913,-3.702 -1.935,-3.718 -1.958,-3.734 -1.981,-3.75 -2.003,-3.766 -2.026,-3.781 -2.049,-3.797 -2.072,-3.812 -2.096,-3.827 -2.119,-3.842 -2.142,-3.857 -2.165,-3.872 -2.189,-3.887 -2.212,-3.901 -2.236,-3.915 -2.26,-3.93 -2.284,-3.944 -2.308,-3.957 -2.332,-3.971 -2.356,-3.985 -2.381,-3.998 -2.405,-4.012 -2.429,-4.025 -2.454,-4.038 -2.479,-4.051 -2.503,-4.063 -2.528,-4.076 -2.553,-4.089 -2.578,-4.101 -2.603,-4.113 -2.628,-4.125 -2.653,-4.137 -2.679,-4.149 -2.704,-4.16 -2.73,-4.172 l -0.025,-0.011 -0.026,-0.011 -0.025,-0.011 -0.026,-0.011 -0.026,-0.01 -0.026,-0.011 -0.026,-0.01 -0.026,-0.011 -0.026,-0.01 -0.027,-0.01 -0.026,-0.009 -0.026,-0.01 -0.027,-0.009 -0.026,-0.009 -0.027,-0.01 -0.027,-0.008 -0.027,-0.009 -0.026,-0.009 -0.027,-0.008 -0.027,-0.009 -0.027,-0.008 -0.027,-0.008 -0.028,-0.008 -0.027,-0.007 -0.027,-0.008 -0.028,-0.007 -0.027,-0.007 -0.028,-0.007 -0.027,-0.007 -0.028,-0.007 -0.028,-0.006 -0.027,-0.007 -0.028,-0.006 -0.028,-0.006 -0.028,-0.005 -0.028,-0.006 -0.028,-0.006 -0.029,-0.005 -0.028,-0.005 -0.028,-0.005 -0.029,-0.005 -0.028,-0.004 -0.028,-0.005 -0.029,-0.004 -0.029,-0.004 -0.028,-0.004 -0.029,-0.004 -0.029,-0.003 -0.029,-0.004 -0.028,-0.003 -0.029,-0.003 -0.03,-0.003 -0.028,-0.003 -0.03,-0.002 -0.029,-0.002 -0.029,-0.003 -0.029,-0.002 -0.03,-10e-4 -0.029,-0.002 -0.029,-0.001 -0.03,-0.001 -0.03,-0.002 h -0.029 l -0.016,-0.001 v 0.003 h -0.032 -0.029 -0.03 l -0.03,0.001 -0.029,0.001 -0.03,10e-4 -0.03,0.001 -0.029,0.002 -0.029,0.001 -0.03,0.002 -0.029,0.002 -0.029,0.002 -0.029,0.002 -0.029,0.003 -0.029,0.002 -0.03,0.003 -0.029,0.003 -0.028,0.004 -0.029,0.003 -0.029,0.004 -0.029,0.003 -0.028,0.004 -0.029,0.004 -0.029,0.005 -0.028,0.004 -0.028,0.005 -0.029,0.004 -0.028,0.005 -0.028,0.006 -0.029,0.005 -0.028,0.005 -0.028,0.006 -0.028,0.006 -0.028,0.006 -0.028,0.006 -0.027,0.006 -0.028,0.007 -0.028,0.006 -0.027,0.007 -0.028,0.007 -0.027,0.007 -0.028,0.008 -0.027,0.007 -0.027,0.008 -0.028,0.008 -0.027,0.008 -0.027,0.008 -0.027,0.008 -0.027,0.009 -0.026,0.008 -0.027,0.009 -0.027,0.009 -0.027,0.009 -0.026,0.009 -0.027,0.01 -0.026,0.009 -0.026,0.01 -0.027,0.01 -0.026,0.01 -0.026,0.01 -0.026,0.01 -0.026,0.011 -0.026,0.011 -0.026,0.01 -0.025,0.011 -0.026,0.012 -0.025,0.011 -0.026,0.011 -0.025,0.012 -0.026,0.012 -0.025,0.011 -0.025,0.012 -0.025,0.013 -0.025,0.012 -0.025,0.012 -0.024,0.013 -0.025,0.013 -0.025,0.013 -0.025,0.013 -0.024,0.013 -0.024,0.013 -0.025,0.014 -0.024,0.013 -0.024,0.014 -0.024,0.014 -0.024,0.014 -0.024,0.014 -0.023,0.014 -0.024,0.015 -0.024,0.015 -0.023,0.014 -0.023,0.015 -0.023,0.015 -0.024,0.015 -0.023,0.016 -0.023,0.015 -0.023,0.016 -0.022,0.015 -0.023,0.016 -0.023,0.016 -0.022,0.016 -0.023,0.016 -0.022,0.017 -0.022,0.016 -0.022,0.017 -0.022,0.017 -0.022,0.016 -0.022,0.017 -0.022,0.018 -0.021,0.017 -0.021,0.017 -0.022,0.018 -0.021,0.017 -0.021,0.018 -0.021,0.018 -0.021,0.018 -0.021,0.018 -0.021,0.018 -0.02,0.019 -0.021,0.018 -0.02,0.019 -0.02,0.019 -0.02,0.018 -0.02,0.019 -0.02,0.02 -0.02,0.019 -0.02,0.019 -0.019,0.02 -0.02,0.019 -0.019,0.02 -0.019,0.02 -0.019,0.019 -0.02,0.021 -0.018,0.02 -0.019,0.02 -0.019,0.02 -0.018,0.021 -0.019,0.02 -0.018,0.021 -0.018,0.021 -0.018,0.021 -0.018,0.021 -0.018,0.021 -0.017,0.021 -0.018,0.021 -0.017,0.022 -0.017,0.021 -0.017,0.022 -0.018,0.022 -0.016,0.022 -0.017,0.022 -0.017,0.022 -0.016,0.022 -0.017,0.022 -0.016,0.023 -0.016,0.022 -0.016,0.023 -0.016,0.022 -0.015,0.023 -0.016,0.023 -0.015,0.023 -0.016,0.023 -0.015,0.023 -0.015,0.024 -0.015,0.023 -0.014,0.023 -0.015,0.024 -0.014,0.024 -0.015,0.023 -0.014,0.024 -0.014,0.024 -0.014,0.024 -0.014,0.024 -0.013,0.024 -0.014,0.025 -0.013,0.024 -0.013,0.024 -0.013,0.025 -0.013,0.025 -0.013,0.024 -0.013,0.025 -0.012,0.025 -0.012,0.025 -0.012,0.025 -0.012,0.025 -0.012,0.025 -0.012,0.026 -0.012,0.025 -0.011,0.026 -0.011,0.025 -0.012,0.026 -0.011,0.025 -0.01,0.026 -0.011,0.026 -0.01,0.026 -0.011,0.026 -0.01,0.026 -0.01,0.026 -0.01,0.027 -0.01,0.026 -0.009,0.026 -0.009,0.027 -0.01,0.026 -0.009,0.027 -0.009,0.027 -0.009,0.026 -0.008,0.027 -0.009,0.027 -0.008,0.027 -0.008,0.027 -0.008,0.027 -0.008,0.028 -0.007,0.027 -0.008,0.027 -0.007,0.028 -0.007,0.027 -0.007,0.028 -0.007,0.027 -0.007,0.028 -0.007,0.028 -0.006,0.027 -0.006,0.028 -0.006,0.028 -0.006,0.028 -0.006,0.028 -0.005,0.028 -0.005,0.028 -0.006,0.029 -0.005,0.028 -0.004,0.028 -0.005,0.029 -0.004,0.028 -0.004,0.029 -0.004,0.028 -0.004,0.029 -0.004,0.029 -0.004,0.029 -0.003,0.028 -0.003,0.029 -0.003,0.029 -0.003,0.029 -0.003,0.029 -0.002,0.029 -0.003,0.03 -0.002,0.029 -0.002,0.029 -0.002,0.029 -10e-4,0.03 -0.002,0.029 -10e-4,0.03 -10e-4,0.029 -10e-4,0.03 v 0.03 l -0.001,0.029 v 0.03 0.03 0.03 0.029 l 0.001,0.03 v 0.03 l 10e-4,0.029 10e-4,0.03 10e-4,0.03 0.002,0.029 10e-4,0.029 0.002,0.03 0.002,0.029 0.002,0.029 0.003,0.029 0.002,0.03 0.003,0.029 0.003,0.029 0.003,0.029 0.003,0.028 0.003,0.029 0.004,0.029 0.004,0.029 0.004,0.029 0.004,0.028 0.004,0.029 0.004,0.028 0.005,0.029 0.004,0.028 0.005,0.028 0.006,0.028 0.005,0.029 0.005,0.028 0.006,0.028 0.006,0.028 0.006,0.028 0.006,0.028 0.006,0.027 0.007,0.028 0.007,0.028 0.007,0.027 0.007,0.028 0.007,0.027 0.007,0.028 0.008,0.027 0.007,0.027 0.008,0.028 0.008,0.027 0.008,0.027 0.008,0.027 0.009,0.027 0.008,0.027 0.009,0.026 0.009,0.027 0.009,0.027 0.01,0.026 0.009,0.027 0.009,0.026 0.01,0.026 0.01,0.027 0.01,0.026 0.01,0.026 0.011,0.026 0.01,0.026 0.011,0.026 0.01,0.026 0.011,0.025 0.012,0.026 0.011,0.025 0.011,0.026 0.012,0.025 0.012,0.026 0.012,0.025 0.012,0.025 0.012,0.025 0.012,0.025 0.012,0.025 0.013,0.025 0.013,0.024 0.013,0.025 0.013,0.025 0.013,0.024 0.013,0.024 0.014,0.025 0.013,0.024 0.014,0.024 0.014,0.024 0.014,0.024 0.014,0.024 0.015,0.023 0.014,0.024 0.015,0.024 0.014,0.023 0.015,0.024 0.015,0.023 0.015,0.023 0.016,0.023 0.015,0.023 0.016,0.023 0.015,0.023 0.016,0.022 0.016,0.023 0.016,0.022 0.016,0.023 0.017,0.022 0.016,0.022 0.017,0.022 0.017,0.022 0.016,0.022 0.018,0.022 0.017,0.022 0.017,0.021 0.017,0.022 0.018,0.021 0.017,0.021 0.018,0.021 0.018,0.021 0.018,0.021 0.018,0.021 0.018,0.021 0.019,0.02 0.018,0.021 0.019,0.02 0.019,0.02 0.018,0.021 0.02,0.02 0.019,0.02 0.019,0.019 0.019,0.02 0.02,0.02 0.019,0.019 0.02,0.019 0.02,0.02 0.02,0.019 0.02,0.019 0.02,0.019 0.02,0.018 0.02,0.019 0.021,0.018 0.02,0.019 0.021,0.018 0.021,0.018 0.021,0.018 0.021,0.018 0.021,0.018 0.021,0.017 0.022,0.018 0.021,0.017 0.021,0.018 0.022,0.017 0.022,0.017 0.022,0.017 0.022,0.016 0.022,0.017 0.022,0.016 0.022,0.017 0.023,0.016 0.022,0.016 0.023,0.016 0.023,0.016 0.022,0.016 0.023,0.015 0.023,0.016 0.023,0.015 0.024,0.015 0.023,0.015 0.023,0.015 0.023,0.015 0.024,0.014 0.024,0.015 0.023,0.014 0.024,0.014 0.024,0.014 0.024,0.014 0.024,0.014 0.024,0.013 0.025,0.014 0.024,0.013 0.024,0.014 0.025,0.013 0.025,0.012 0.025,0.013 0.024,0.013 0.025,0.012 0.025,0.013 0.025,0.012 0.025,0.012 0.025,0.012 0.026,0.011 0.025,0.012 0.026,0.011 0.025,0.012 0.026,0.011 0.025,0.011 0.026,0.011 0.026,0.01 0.026,0.011 0.026,0.01 0.026,0.01 0.026,0.01 0.027,0.01 0.026,0.01 0.026,0.009 0.027,0.01 0.026,0.009 0.027,0.009 0.027,0.009 0.027,0.009 0.026,0.009 0.027,0.008 0.027,0.008 0.027,0.009 0.027,0.008 0.028,0.007 0.027,0.008 0.027,0.007 0.028,0.008 0.027,0.007 0.028,0.007 0.027,0.007 0.028,0.006 0.028,0.007 0.027,0.006 0.028,0.006 0.028,0.006 0.028,0.006 0.028,0.006 0.028,0.005 0.029,0.006 0.028,0.005 0.028,0.005 0.029,0.005 0.028,0.004 0.028,0.005 0.029,0.004 0.029,0.004 0.028,0.004 0.029,0.004 0.029,0.003 0.029,0.004 0.028,0.003 0.029,0.003 0.03,0.003 0.029,0.002 0.029,0.003 0.029,0.002 0.029,0.002 0.029,0.002 0.03,0.002 0.029,0.002 0.029,10e-4 0.03,0.001 0.03,0.001 0.029,10e-4 h 0.016 V 4.625 h 0.032 0.029 l 0.03,-0.001 h 0.03 l 0.029,-10e-4 0.03,-0.001 0.03,-10e-4 0.029,-0.002 0.029,-10e-4 0.03,-0.002 0.029,-0.002 0.029,-0.002 0.029,-0.003 0.03,-0.002 0.028,-0.003 0.03,-0.003 L -4.095,4.598 -4.067,4.595 -4.038,4.592 -4.009,4.588 -3.98,4.584 -3.952,4.581 -3.923,4.576 -3.894,4.572 -3.866,4.568 -3.838,4.563 -3.809,4.558 -3.781,4.553 -3.753,4.548 -3.724,4.543 -3.696,4.537 -3.668,4.532 -3.64,4.526 -3.612,4.52 -3.584,4.514 -3.557,4.507 -3.529,4.501 -3.501,4.494 -3.474,4.487 -3.446,4.48 -3.419,4.473 -3.391,4.466 -3.364,4.459 -3.337,4.451 -3.309,4.443 -3.282,4.435 -3.255,4.427 -3.228,4.419 -3.201,4.41 l 0.026,-0.008 0.027,-0.009 0.027,-0.009 0.027,-0.009 0.026,-0.01 0.027,-0.009 0.026,-0.01 0.026,-0.009 0.027,-0.01 0.026,-0.01 0.026,-0.01 0.026,-0.011 0.026,-0.01 L -2.832,4.275 -2.806,4.264 -2.781,4.253 -2.755,4.242 -2.73,4.231 -2.704,4.219 -2.679,4.208 -2.653,4.196 -2.628,4.184 -2.603,4.172 -2.578,4.16 -2.553,4.148 -2.528,4.135 -2.503,4.123 -2.479,4.11 -2.454,4.097 -2.429,4.084 -2.405,4.071 -2.381,4.058 -2.356,4.044 -2.332,4.03 -2.308,4.017 -2.284,4.003 -2.26,3.989 -2.236,3.975 -2.212,3.96 -2.189,3.946 -2.165,3.931 -2.142,3.916 -2.119,3.902 -2.096,3.887 -2.072,3.871 -2.049,3.856 -2.026,3.841 -2.003,3.825 -1.981,3.809 -1.958,3.794 -1.935,3.778 -1.913,3.762 -1.89,3.745 -1.868,3.729 -1.846,3.713 -1.824,3.696 -1.802,3.679 -1.78,3.662 -1.758,3.645 -1.736,3.628 -1.715,3.611 -1.694,3.594 -1.672,3.576 -1.651,3.558 -1.63,3.541 l 0.021,-0.018 0.021,-0.018 0.021,-0.018 0.021,-0.019 0.02,-0.018 0.021,-0.019 0.02,-0.018 0.02,-0.019 0.02,-0.019 0.021,-0.019 0.019,-0.019 0.02,-0.019 0.02,-0.019 0.019,-0.02 0.02,-0.019 0.019,-0.02 0.019,-0.02 0.019,-0.02 0.02,-0.02 0.018,-0.02 0.019,-0.02 0.019,-0.021 0.018,-0.02 0.019,-0.021 0.018,-0.02 L -1.12,3.037 -1.102,3.016 -1.084,2.995 -1.066,2.974 -1.049,2.953 -1.031,2.931 -1.014,2.91 -0.997,2.888 -0.98,2.867 -0.962,2.845 -0.946,2.823 -0.929,2.801 -0.912,2.779 -0.896,2.757 -0.879,2.734 -0.863,2.712 -0.847,2.69 -0.831,2.667 -0.815,2.644 -0.8,2.621 -0.784,2.599 -0.769,2.576 -0.753,2.552 -0.738,2.529 -0.723,2.506 -0.708,2.483 -0.694,2.459 -0.679,2.436 -0.665,2.412 -0.65,2.388 -0.636,2.365 -0.622,2.341 -0.608,2.317 -0.594,2.293 -0.581,2.268 -0.567,2.244 -0.554,2.22 -0.541,2.195 -0.528,2.171 -0.515,2.146 -0.502,2.121 -0.489,2.097 -0.477,2.072 -0.465,2.047 -0.452,2.022 -0.44,1.997 -0.429,1.971 -0.417,1.946 -0.405,1.921 -0.394,1.895 -0.383,1.87 -0.371,1.844 -0.36,1.818 l 0.01,-0.026 0.011,-0.025 0.01,-0.026 0.011,-0.026 0.01,-0.026 0.01,-0.027 0.01,-0.026 0.01,-0.026 0.009,-0.027 0.01,-0.026 L -0.25,1.53 -0.241,1.504 -0.232,1.477 -0.223,1.45 -0.215,1.423 -0.206,1.397 -0.198,1.37 -0.19,1.342 -0.182,1.315 -0.174,1.288 -0.166,1.261 -0.159,1.234 -0.151,1.206 -0.145,1.179 -0.138,1.151 -0.131,1.124 -0.124,1.096 -0.117,1.068 -0.111,1.04 -0.105,1.013 -0.099,0.985 -0.093,0.957 -0.087,0.929 -0.082,0.9 -0.077,0.872 -0.071,0.844 -0.066,0.816 -0.062,0.787 -0.057,0.759 -0.053,0.73 -0.049,0.702 -0.045,0.673 -0.041,0.645 -0.037,0.616 -0.033,0.587 -0.03,0.558 -0.027,0.529 -0.024,0.5 l 0.003,-0.029 0.003,-0.029 0.002,-0.029 0.003,-0.029 0.002,-0.029 0.002,-0.029 0.002,-0.03 0.001,-0.029 0.002,-0.03 0.001,-0.029 0.001,-0.03 0.001,-0.029 V 0.119 L 0,0.089 V 0.06 0.03 Z M 1.329,0.068 1.328,0.106 V 0.144 L 1.327,0.182 1.326,0.22 1.325,0.258 1.323,0.296 1.321,0.334 1.319,0.372 1.317,0.41 1.315,0.447 1.312,0.485 1.309,0.522 1.306,0.56 1.302,0.597 1.299,0.635 1.295,0.672 1.291,0.709 1.286,0.746 1.282,0.783 1.277,0.82 1.272,0.857 1.266,0.894 1.261,0.931 1.255,0.968 1.249,1.005 1.243,1.041 1.236,1.078 1.23,1.114 1.223,1.15 1.216,1.187 1.209,1.223 1.201,1.259 1.194,1.295 1.186,1.331 1.177,1.367 1.169,1.403 1.16,1.439 1.151,1.474 1.142,1.51 1.133,1.545 1.124,1.581 1.114,1.616 1.104,1.651 1.094,1.686 1.084,1.721 1.073,1.756 1.063,1.791 1.052,1.826 1.04,1.861 1.029,1.895 1.018,1.93 1.006,1.964 0.994,1.998 0.982,2.033 0.969,2.067 0.957,2.101 0.944,2.135 0.931,2.168 0.918,2.202 0.905,2.236 0.891,2.269 0.877,2.303 0.863,2.336 0.849,2.369 0.835,2.402 0.82,2.435 0.806,2.468 0.791,2.501 0.775,2.533 0.76,2.566 0.744,2.598 0.729,2.631 0.713,2.663 0.697,2.695 0.681,2.727 0.664,2.759 0.647,2.791 0.631,2.822 0.614,2.854 0.597,2.885 0.579,2.917 0.561,2.948 0.544,2.979 0.526,3.01 0.508,3.041 0.49,3.071 0.471,3.102 0.452,3.133 0.434,3.163 0.415,3.193 0.395,3.223 0.376,3.253 0.356,3.283 0.337,3.313 0.317,3.342 0.297,3.372 0.277,3.401 0.256,3.43 0.236,3.46 0.215,3.489 0.194,3.517 0.173,3.546 0.152,3.575 0.131,3.603 0.109,3.631 0.087,3.66 0.065,3.688 0.043,3.715 0.021,3.743 -0.001,3.771 -0.024,3.798 -0.047,3.826 -0.069,3.853 -0.092,3.88 -0.116,3.907 -0.139,3.934 -0.162,3.96 -0.186,3.987 -0.21,4.013 -0.234,4.039 -0.258,4.065 -0.282,4.091 -0.307,4.117 -0.331,4.143 -0.356,4.168 -0.381,4.194 -0.406,4.219 -0.431,4.244 -0.456,4.269 -0.482,4.293 -0.508,4.318 -0.534,4.342 -0.559,4.367 -0.585,4.391 -0.612,4.415 -0.638,4.439 -0.664,4.462 -0.691,4.486 -0.718,4.509 -0.745,4.532 -0.772,4.555 -0.799,4.578 -0.827,4.601 -0.854,4.623 -0.881,4.646 -0.909,4.668 -0.937,4.69 -0.965,4.712 -0.993,4.734 -1.022,4.755 -1.05,4.777 -1.079,4.798 -1.107,4.819 -1.136,4.84 l -0.029,0.021 -0.029,0.02 -0.03,0.02 -0.029,0.021 -0.029,0.02 -0.03,0.02 -0.029,0.019 -0.03,0.02 -0.031,0.019 -0.029,0.019 -0.031,0.019 -0.03,0.019 -0.031,0.019 -0.03,0.018 L -1.584,5.133 -1.615,5.151 -1.646,5.169 -1.677,5.186 -1.708,5.204 -1.739,5.221 -1.771,5.239 -1.802,5.256 -1.834,5.272 -1.866,5.289 -1.898,5.305 -1.929,5.322 -1.962,5.338 -1.994,5.354 -2.026,5.369 -2.059,5.385 -2.091,5.4 -2.124,5.415 -2.157,5.43 -2.19,5.445 -2.222,5.46 -2.256,5.474 -2.289,5.488 -2.322,5.502 -2.356,5.516 -2.389,5.529 -2.423,5.543 -2.456,5.556 -2.49,5.569 -2.524,5.582 -2.558,5.594 -2.592,5.607 -2.626,5.619 -2.661,5.631 -2.695,5.643 -2.73,5.654 l -0.034,0.011 -0.035,0.012 -0.035,0.01 -0.035,0.011 -0.034,0.011 -0.035,0.01 -0.036,0.01 -0.035,0.01 -0.035,0.01 L -3.08,5.758 -3.115,5.767 -3.151,5.776 -3.186,5.785 -3.222,5.794 -3.258,5.802 -3.294,5.81 -3.33,5.818 -3.366,5.826 -3.402,5.834 -3.438,5.841 -3.474,5.848 -3.511,5.855 -3.547,5.861 -3.584,5.868 -3.62,5.874 -3.657,5.88 -3.694,5.886 -3.731,5.891 -3.768,5.896 -3.804,5.902 -3.841,5.906 -3.878,5.911 -3.916,5.915 -3.953,5.919 -3.99,5.923 -4.028,5.927 -4.065,5.93 -4.102,5.934 -4.14,5.937 -4.177,5.939 -4.215,5.942 -4.253,5.944 -4.291,5.946 -4.329,5.948 -4.366,5.95 -4.404,5.951 -4.443,5.952 -4.48,5.953 H -4.496 V 5.957 H -4.5 V 5.963 5.957 H -4.532 -4.57 L -4.608,5.956 -4.646,5.955 -4.685,5.954 -4.722,5.953 -4.76,5.952 -4.798,5.95 -4.836,5.948 -4.874,5.945 -4.911,5.943 -4.949,5.94 -4.987,5.937 -5.024,5.934 -5.061,5.931 -5.099,5.927 -5.136,5.923 -5.173,5.919 -5.211,5.914 -5.248,5.91 -5.285,5.905 -5.321,5.9 -5.358,5.895 -5.395,5.889 -5.432,5.883 -5.469,5.877 -5.505,5.871 -5.542,5.865 -5.578,5.858 -5.615,5.851 -5.651,5.844 -5.687,5.837 -5.723,5.83 -5.759,5.822 -5.795,5.814 -5.831,5.806 -5.867,5.797 -5.903,5.789 -5.938,5.78 -5.974,5.771 -6.009,5.762 -6.045,5.752 -6.08,5.742 -6.115,5.733 -6.151,5.722 -6.185,5.712 -6.22,5.702 -6.255,5.691 -6.29,5.68 -6.325,5.669 -6.359,5.658 -6.394,5.646 -6.428,5.634 -6.463,5.622 -6.497,5.61 -6.531,5.598 -6.565,5.585 -6.599,5.572 -6.633,5.559 -6.666,5.546 -6.7,5.533 -6.733,5.519 -6.767,5.506 -6.8,5.492 -6.833,5.477 -6.867,5.463 -6.899,5.448 -6.932,5.434 -6.965,5.419 -6.998,5.404 -7.03,5.388 -7.063,5.373 -7.095,5.357 -7.127,5.341 -7.16,5.325 -7.191,5.309 -7.223,5.292 -7.255,5.276 -7.287,5.259 -7.318,5.242 -7.35,5.225 -7.381,5.207 -7.412,5.19 -7.443,5.172 -7.474,5.154 -7.505,5.136 -7.536,5.118 -7.566,5.099 -7.597,5.081 -7.627,5.062 -7.657,5.043 -7.687,5.024 -7.718,5.004 -7.747,4.985 -7.777,4.965 -7.807,4.945 -7.836,4.925 -7.865,4.905 -7.895,4.885 -7.924,4.864 -7.953,4.843 -7.982,4.822 -8.01,4.801 -8.039,4.78 -8.067,4.759 -8.096,4.737 -8.124,4.715 -8.152,4.693 -8.18,4.671 -8.208,4.649 -8.235,4.627 -8.262,4.604 -8.29,4.582 -8.317,4.559 -8.344,4.536 -8.371,4.513 -8.398,4.489 -8.425,4.466 -8.451,4.442 -8.477,4.418 -8.504,4.394 -8.529,4.37 -8.555,4.346 -8.581,4.321 -8.607,4.297 -8.633,4.272 -8.658,4.247 -8.683,4.222 -8.708,4.197 -8.733,4.172 -8.758,4.146 -8.782,4.121 -8.807,4.095 -8.831,4.069 -8.855,4.043 -8.879,4.017 -8.903,3.99 -8.927,3.964 -8.95,3.937 -8.973,3.91 -8.997,3.883 -9.02,3.856 -9.042,3.829 -9.065,3.802 -9.088,3.774 -9.11,3.747 -9.132,3.719 -9.154,3.691 -9.176,3.663 -9.198,3.635 -9.219,3.606 -9.241,3.578 -9.262,3.549 -9.283,3.521 -9.304,3.492 -9.325,3.463 -9.345,3.434 -9.366,3.405 -9.386,3.375 -9.406,3.346 -9.426,3.316 -9.445,3.286 -9.465,3.257 -9.484,3.227 -9.504,3.197 -9.522,3.166 -9.541,3.136 -9.56,3.105 -9.579,3.075 -9.597,3.044 -9.615,3.013 -9.633,2.982 -9.651,2.951 -9.668,2.92 -9.686,2.889 -9.703,2.857 -9.72,2.826 -9.736,2.794 -9.753,2.762 -9.77,2.73 -9.786,2.698 -9.802,2.666 -9.818,2.634 -9.833,2.602 -9.849,2.569 -9.864,2.537 -9.88,2.504 -9.895,2.471 -9.909,2.438 -9.924,2.405 -9.938,2.372 -9.952,2.339 -9.966,2.306 -9.98,2.272 -9.994,2.239 -10.007,2.205 -10.02,2.172 -10.033,2.138 -10.046,2.104 -10.058,2.07 -10.071,2.036 -10.083,2.002 -10.095,1.967 -10.106,1.933 -10.118,1.898 -10.129,1.864 -10.141,1.829 -10.152,1.794 -10.162,1.76 -10.173,1.725 -10.183,1.69 -10.193,1.654 -10.203,1.619 -10.213,1.584 -10.222,1.549 -10.231,1.513 -10.24,1.477 -10.249,1.442 -10.258,1.406 -10.266,1.37 -10.275,1.334 -10.283,1.298 -10.29,1.262 -10.298,1.226 -10.305,1.19 -10.312,1.154 -10.319,1.117 -10.325,1.081 -10.332,1.044 -10.338,1.008 -10.344,0.971 -10.35,0.934 -10.355,0.898 -10.361,0.861 -10.366,0.824 -10.371,0.787 -10.375,0.75 -10.38,0.712 -10.384,0.675 -10.388,0.638 -10.391,0.6 -10.394,0.563 -10.398,0.526 -10.401,0.488 -10.403,0.45 -10.406,0.413 -10.408,0.375 -10.41,0.337 -10.412,0.299 -10.414,0.261 -10.415,0.224 -10.416,0.185 -10.417,0.147 V 0.109 L -10.418,0.071 V 0.033 -0.005 l 10e-4,-0.039 v -0.038 l 10e-4,-0.038 0.001,-0.038 10e-4,-0.038 0.002,-0.038 0.002,-0.037 0.002,-0.038 0.002,-0.038 0.003,-0.038 0.002,-0.037 0.003,-0.038 0.004,-0.037 0.003,-0.038 0.003,-0.037 0.004,-0.037 0.004,-0.037 0.005,-0.038 0.004,-0.037 0.005,-0.037 0.005,-0.037 0.006,-0.037 0.005,-0.036 0.006,-0.037 0.006,-0.037 0.006,-0.036 0.007,-0.037 0.006,-0.036 0.007,-0.037 0.007,-0.036 0.007,-0.036 0.008,-0.036 0.007,-0.036 0.008,-0.036 0.009,-0.036 0.008,-0.036 0.009,-0.036 0.009,-0.036 0.009,-0.035 0.009,-0.036 0.009,-0.035 0.01,-0.035 0.01,-0.035 0.01,-0.036 0.01,-0.035 0.011,-0.035 0.01,-0.034 0.011,-0.035 0.012,-0.035 0.011,-0.034 0.012,-0.035 0.011,-0.034 0.012,-0.035 0.012,-0.034 0.013,-0.034 0.012,-0.034 0.013,-0.034 0.013,-0.034 0.013,-0.033 0.013,-0.034 0.014,-0.033 0.014,-0.034 0.014,-0.033 0.014,-0.033 0.014,-0.033 0.015,-0.033 0.014,-0.033 0.015,-0.033 0.016,-0.033 0.015,-0.032 0.016,-0.033 0.015,-0.032 0.016,-0.032 0.016,-0.032 0.016,-0.032 0.017,-0.032 0.017,-0.032 0.016,-0.032 0.017,-0.031 0.017,-0.032 0.018,-0.031 0.018,-0.031 0.017,-0.031 0.018,-0.031 0.018,-0.031 0.018,-0.031 0.019,-0.03 0.019,-0.031 0.019,-0.03 0.018,-0.03 0.02,-0.031 0.019,-0.03 0.02,-0.029 0.019,-0.03 0.02,-0.03 0.02,-0.029 0.02,-0.03 0.021,-0.029 0.02,-0.029 0.021,-0.029 0.021,-0.029 0.021,-0.028 0.021,-0.029 0.022,-0.028 0.021,-0.029 0.022,-0.028 0.022,-0.028 0.022,-0.028 0.022,-0.027 0.022,-0.028 0.023,-0.028 0.023,-0.027 0.022,-0.027 0.023,-0.027 0.024,-0.027 0.023,-0.027 0.023,-0.027 0.024,-0.026 0.024,-0.026 0.024,-0.027 0.024,-0.026 0.024,-0.026 0.025,-0.025 0.024,-0.026 0.025,-0.026 0.025,-0.025 0.025,-0.025 0.025,-0.025 0.025,-0.025 0.026,-0.025 0.026,-0.024 0.026,-0.025 0.026,-0.024 0.025,-0.024 0.027,-0.024 0.026,-0.024 0.026,-0.024 0.027,-0.023 0.027,-0.023 0.027,-0.024 0.027,-0.023 0.027,-0.022 0.028,-0.023 0.027,-0.023 0.027,-0.022 0.028,-0.022 0.028,-0.022 0.028,-0.022 0.028,-0.022 0.029,-0.022 0.028,-0.021 0.029,-0.021 0.028,-0.021 0.029,-0.021 0.029,-0.021 0.029,-0.02 0.03,-0.021 0.029,-0.02 0.029,-0.02 0.03,-0.02 0.03,-0.02 0.029,-0.019 0.031,-0.019 0.03,-0.02 0.03,-0.019 0.03,-0.018 0.031,-0.019 0.03,-0.019 0.031,-0.018 0.031,-0.018 0.031,-0.018 0.031,-0.018 0.031,-0.017 0.031,-0.018 0.032,-0.017 0.031,-0.017 0.032,-0.017 0.032,-0.016 0.032,-0.017 0.031,-0.016 0.033,-0.016 0.032,-0.016 0.032,-0.016 0.033,-0.015 0.032,-0.016 0.033,-0.015 0.033,-0.015 0.033,-0.014 0.032,-0.015 0.034,-0.014 0.033,-0.014 0.033,-0.014 0.034,-0.014 0.033,-0.014 0.034,-0.013 0.033,-0.013 0.034,-0.013 0.034,-0.013 0.034,-0.013 0.034,-0.012 0.034,-0.012 0.035,-0.012 0.034,-0.012 0.035,-0.011 0.034,-0.012 0.035,-0.011 0.035,-0.011 0.035,-0.01 0.035,-0.011 0.034,-0.01 0.036,-0.01 0.035,-0.01 0.035,-0.01 0.036,-0.009 0.035,-0.01 0.036,-0.009 0.035,-0.009 0.036,-0.008 0.036,-0.009 0.036,-0.008 0.036,-0.008 0.036,-0.007 0.036,-0.008 0.036,-0.007 0.036,-0.007 0.037,-0.007 0.036,-0.007 0.037,-0.006 0.036,-0.006 0.037,-0.006 0.037,-0.006 0.037,-0.005 0.037,-0.006 0.036,-0.005 0.037,-0.005 0.037,-0.004 0.038,-0.005 0.037,-0.004 0.037,-0.004 0.038,-0.003 0.037,-0.004 0.037,-0.003 0.038,-0.003 0.038,-0.003 0.037,-0.002 0.038,-0.002 0.038,-0.003 0.038,-10e-4 0.038,-0.002 0.037,-0.001 0.039,-0.001 0.037,-10e-4 h 0.016 v -0.005 h 0.004 V -5.9 -5.895 h 0.032 l 0.038,10e-4 h 0.038 l 0.038,0.001 0.039,10e-4 0.038,0.002 0.037,10e-4 0.038,0.002 0.038,0.002 0.038,0.002 0.038,0.003 0.037,0.003 0.038,0.003 0.037,0.003 0.037,0.003 0.038,0.004 0.037,0.004 0.037,0.004 0.038,0.004 0.037,0.005 0.037,0.005 0.036,0.005 0.037,0.005 0.037,0.006 0.037,0.005 0.037,0.006 0.036,0.006 0.037,0.007 0.036,0.006 0.037,0.007 0.036,0.007 0.036,0.008 0.036,0.007 0.036,0.008 0.036,0.008 0.036,0.008 0.036,0.008 0.036,0.009 0.035,0.009 0.036,0.009 0.035,0.009 0.036,0.01 0.035,0.009 0.035,0.01 0.036,0.01 0.035,0.011 0.034,0.01 0.035,0.011 0.035,0.011 0.035,0.011 0.034,0.011 0.035,0.012 0.034,0.011 0.035,0.012 0.034,0.013 0.034,0.012 0.034,0.013 0.034,0.012 0.034,0.013 0.033,0.013 0.034,0.014 0.033,0.013 0.034,0.014 0.033,0.014 0.033,0.014 0.034,0.015 0.032,0.014 0.033,0.015 0.033,0.015 0.033,0.015 0.032,0.015 0.033,0.016 0.032,0.016 0.032,0.015 0.033,0.017 0.031,0.016 0.032,0.016 0.032,0.017 0.032,0.017 0.031,0.017 0.032,0.017 0.031,0.017 0.031,0.018 0.031,0.018 0.031,0.018 0.031,0.018 0.031,0.018 0.03,0.018 0.031,0.019 0.03,0.019 0.031,0.019 0.029,0.019 0.031,0.019 0.03,0.02 0.029,0.02 0.03,0.019 0.029,0.021 0.029,0.02 0.03,0.02 0.029,0.021 0.029,0.02 0.029,0.021 0.028,0.021 0.029,0.022 0.028,0.021 0.029,0.022 0.028,0.021 0.028,0.022 0.028,0.022 0.028,0.023 0.027,0.022 0.027,0.022 0.028,0.023 0.027,0.023 0.027,0.023 0.027,0.023 0.027,0.024 0.027,0.023 0.026,0.024 0.026,0.024 0.027,0.023 0.026,0.025 0.025,0.024 0.026,0.024 0.026,0.025 0.026,0.025 0.025,0.025 0.025,0.025 0.025,0.025 0.025,0.025 0.025,0.026 0.024,0.025 0.025,0.026 0.024,0.026 0.024,0.026 0.024,0.026 0.024,0.027 0.024,0.026 0.023,0.027 0.023,0.026 0.024,0.027 0.023,0.027 0.022,0.028 0.023,0.027 0.023,0.028 0.022,0.027 0.022,0.028 0.022,0.028 0.022,0.028 0.022,0.028 0.022,0.028 0.021,0.029 0.021,0.028 0.021,0.029 0.021,0.029 0.021,0.029 0.02,0.029 0.021,0.029 0.02,0.029 0.02,0.03 0.02,0.03 0.019,0.029 0.02,0.03 0.019,0.03 0.02,0.03 0.019,0.03 0.018,0.031 0.019,0.03 0.019,0.031 0.018,0.031 0.018,0.03 0.018,0.031 0.018,0.031 0.017,0.032 0.018,0.031 0.017,0.031 0.017,0.032 0.016,0.032 0.017,0.031 0.017,0.032 0.016,0.032 0.016,0.032 0.016,0.033 0.015,0.032 0.016,0.032 0.015,0.033 0.016,0.033 0.015,0.032 0.014,0.033 0.015,0.033 0.014,0.033 0.014,0.034 0.014,0.033 0.014,0.033 0.014,0.034 0.013,0.033 0.013,0.034 0.013,0.034 0.013,0.034 0.012,0.034 0.013,0.034 0.012,0.034 0.012,0.034 0.012,0.035 0.011,0.034 0.011,0.035 0.012,0.035 0.011,0.034 0.01,0.035 0.011,0.035 0.01,0.035 0.01,0.035 0.01,0.035 0.01,0.036 0.009,0.035 0.009,0.036 0.009,0.035 0.009,0.036 0.009,0.036 0.008,0.035 0.009,0.036 0.008,0.036 0.007,0.036 0.008,0.037 0.007,0.036 0.007,0.036 0.007,0.036 0.006,0.037 0.007,0.036 0.006,0.037 0.006,0.037 0.006,0.036 0.005,0.037 0.006,0.037 0.005,0.037 0.005,0.037 0.004,0.037 0.005,0.037 0.004,0.038 0.004,0.037 0.003,0.037 0.004,0.038 0.003,0.037 0.003,0.038 0.003,0.037 0.002,0.038 0.002,0.038 0.002,0.037 0.002,0.038 0.002,0.038 0.001,0.038 10e-4,0.038 0.001,0.038 v 0.038 l 10e-4,0.039 V 0.03 Z"
             style="fill:#231f20;fill-opacity:1;fill-rule:nonzero;stroke:none"
             id="path84"
             inkscape:connector-curvature="0" />
        </g>
        <g
           id="g86"
           transform="translate(31.5324,774.5969)">
          <path
             d="m 0,0 -0.999,0.017 -0.028,0.685 h 0.009 l 0.001,0.032 v 0.03 0.03 l 10e-4,0.029 0.001,0.03 10e-4,0.03 0.001,0.029 10e-4,0.029 0.002,0.03 0.002,0.029 0.002,0.029 0.002,0.03 0.002,0.029 0.003,0.029 0.002,0.029 0.003,0.029 0.003,0.029 0.003,0.029 0.004,0.029 0.003,0.028 0.004,0.029 0.004,0.029 0.004,0.029 0.004,0.028 0.005,0.029 0.004,0.028 0.005,0.028 0.005,0.029 0.005,0.028 0.006,0.028 0.005,0.028 0.006,0.028 0.006,0.028 0.006,0.028 0.006,0.028 0.006,0.028 0.007,0.028 0.006,0.027 0.007,0.028 0.007,0.028 0.007,0.027 0.008,0.027 0.007,0.028 0.008,0.027 0.007,0.027 0.008,0.027 0.009,0.027 0.008,0.027 0.008,0.027 0.009,0.027 0.009,0.027 0.009,0.026 0.009,0.027 0.009,0.027 0.01,0.026 0.009,0.026 0.01,0.027 0.01,0.026 0.01,0.026 0.01,0.026 0.01,0.026 0.011,0.026 0.01,0.026 0.011,0.026 0.011,0.026 0.011,0.025 0.012,0.026 0.011,0.025 0.012,0.026 0.011,0.025 0.012,0.025 0.012,0.025 0.012,0.026 0.013,0.025 0.012,0.024 0.013,0.025 0.013,0.025 0.012,0.025 0.013,0.024 0.014,0.024 0.013,0.025 0.013,0.024 0.014,0.024 0.014,0.024 0.014,0.024 0.014,0.024 0.014,0.024 0.014,0.024 0.015,0.024 0.014,0.023 0.015,0.023 0.015,0.024 0.015,0.023 0.015,0.023 0.015,0.023 0.016,0.023 0.015,0.023 0.016,0.023 0.016,0.023 0.016,0.022 0.016,0.023 0.016,0.022 0.017,0.023 0.016,0.021 0.017,0.023 0.016,0.022 0.017,0.022 0.017,0.021 0.017,0.022 0.018,0.021 0.017,0.022 0.018,0.021 0.017,0.021 0.018,0.022 0.018,0.021 0.018,0.021 0.018,0.02 0.018,0.021 0.019,0.021 0.018,0.02 0.019,0.021 0.018,0.02 0.019,0.02 0.019,0.02 0.019,0.02 0.02,0.02 0.019,0.019 0.019,0.02 0.02,0.019 0.02,0.02 0.019,0.019 0.02,0.019 0.02,0.019 0.021,0.019 0.02,0.019 0.02,0.018 0.021,0.019 0.02,0.018 L 0.55,4.161 0.571,4.179 0.592,4.198 0.613,4.215 0.634,4.233 0.655,4.251 0.676,4.268 0.698,4.286 0.719,4.303 0.741,4.32 0.763,4.337 0.785,4.354 0.807,4.371 0.829,4.387 0.851,4.404 0.873,4.42 0.896,4.436 0.918,4.452 0.941,4.468 0.963,4.484 0.986,4.5 1.009,4.516 1.032,4.531 1.055,4.546 1.078,4.561 1.101,4.576 1.125,4.591 1.148,4.606 1.172,4.62 1.195,4.635 1.219,4.649 1.243,4.663 1.267,4.678 1.291,4.691 1.315,4.705 1.339,4.719 1.363,4.732 1.388,4.746 1.412,4.759 1.437,4.772 1.461,4.785 1.486,4.798 1.511,4.81 1.536,4.822 1.561,4.835 1.586,4.847 1.611,4.859 1.636,4.871 1.662,4.883 1.687,4.894 1.712,4.906 1.738,4.917 1.764,4.928 1.789,4.939 1.815,4.95 1.841,4.96 1.867,4.971 1.893,4.981 1.919,4.992 1.945,5.001 1.971,5.011 1.998,5.021 2.024,5.031 2.051,5.04 2.077,5.049 2.104,5.058 2.13,5.067 2.157,5.076 2.184,5.085 2.211,5.093 2.238,5.102 2.265,5.11 2.292,5.118 2.319,5.125 2.347,5.133 2.374,5.141 2.401,5.148 2.429,5.155 2.456,5.162 2.484,5.169 2.512,5.176 2.539,5.182 2.567,5.189 2.595,5.195 2.623,5.2 2.651,5.206 2.679,5.212 2.707,5.217 2.735,5.223 2.764,5.228 2.792,5.233 2.82,5.238 2.849,5.242 2.877,5.247 2.906,5.251 2.934,5.255 2.963,5.259 2.992,5.263 3.02,5.266 3.049,5.27 3.078,5.273 3.107,5.276 3.136,5.279 3.165,5.282 3.194,5.284 3.224,5.286 3.253,5.289 3.282,5.291 3.311,5.292 3.341,5.294 3.37,5.295 3.4,5.296 3.429,5.297 3.459,5.298 3.488,5.299 h 0.03 0.03 L 3.578,5.3 3.608,5.299 h 0.029 0.03 L 3.697,5.298 3.726,5.297 3.756,5.296 3.785,5.295 3.815,5.294 3.844,5.292 3.874,5.291 3.903,5.289 3.932,5.286 3.961,5.284 3.99,5.282 4.019,5.279 4.048,5.276 4.077,5.273 4.106,5.27 4.135,5.266 4.164,5.263 4.193,5.259 4.221,5.255 4.25,5.251 4.278,5.247 4.307,5.242 4.335,5.238 4.364,5.233 4.392,5.228 4.42,5.223 4.448,5.217 4.477,5.212 4.505,5.206 4.533,5.2 4.561,5.195 4.589,5.189 4.616,5.182 4.644,5.176 4.672,5.169 4.699,5.162 4.727,5.155 4.754,5.148 4.782,5.141 4.809,5.133 4.836,5.125 4.863,5.118 4.891,5.11 4.918,5.102 4.945,5.093 4.972,5.085 4.998,5.076 5.025,5.067 5.052,5.058 5.078,5.049 5.105,5.04 5.132,5.031 5.158,5.021 5.184,5.011 5.211,5.001 5.237,4.992 5.263,4.981 5.289,4.971 5.315,4.96 5.341,4.95 5.366,4.939 5.392,4.928 5.418,4.917 5.443,4.906 5.469,4.894 5.494,4.883 5.52,4.871 5.545,4.859 5.57,4.847 5.595,4.835 5.62,4.822 5.645,4.81 5.67,4.798 5.694,4.785 5.719,4.772 5.743,4.759 5.768,4.745 5.792,4.732 5.817,4.719 5.841,4.705 5.865,4.691 5.889,4.678 5.913,4.663 5.937,4.649 5.96,4.635 5.984,4.62 6.008,4.606 6.031,4.591 6.054,4.576 6.078,4.561 6.101,4.546 6.124,4.531 6.147,4.516 6.17,4.5 6.192,4.484 6.215,4.468 6.238,4.452 6.26,4.436 6.283,4.42 6.305,4.404 6.327,4.387 6.349,4.371 6.371,4.354 6.393,4.337 6.415,4.32 6.436,4.303 6.458,4.286 6.479,4.268 6.501,4.251 6.522,4.233 6.543,4.215 6.564,4.198 6.585,4.179 6.606,4.161 6.627,4.143 6.647,4.124 6.668,4.106 6.688,4.088 6.708,4.069 6.728,4.05 6.748,4.031 6.768,4.012 6.788,3.993 6.808,3.973 6.827,3.954 6.847,3.934 6.866,3.915 6.885,3.895 6.905,3.875 6.923,3.855 6.942,3.835 6.961,3.815 6.98,3.794 6.998,3.774 7.017,3.753 7.035,3.732 7.053,3.712 7.071,3.691 7.089,3.67 7.107,3.648 7.124,3.627 7.142,3.606 7.159,3.584 7.176,3.563 7.194,3.541 7.211,3.52 7.227,3.498 7.244,3.476 7.261,3.453 7.277,3.432 7.294,3.409 7.31,3.387 7.326,3.364 7.342,3.342 7.358,3.319 7.373,3.296 7.389,3.273 7.404,3.25 7.42,3.227 7.435,3.204 7.45,3.181 7.465,3.157 7.479,3.134 7.494,3.111 7.509,3.087 7.523,3.063 7.537,3.039 7.551,3.015 7.565,2.991 7.579,2.967 7.592,2.943 7.606,2.919 7.619,2.894 7.632,2.87 7.645,2.846 7.658,2.821 7.671,2.796 7.684,2.771 7.696,2.747 7.708,2.722 7.721,2.696 7.733,2.671 7.745,2.646 7.756,2.621 7.768,2.595 7.779,2.57 7.79,2.544 7.802,2.519 7.813,2.493 7.823,2.467 7.834,2.441 7.845,2.415 7.855,2.389 7.865,2.363 7.875,2.337 7.885,2.311 7.895,2.284 7.904,2.258 7.914,2.232 7.923,2.205 7.932,2.178 7.941,2.152 7.95,2.125 7.958,2.098 7.967,2.071 7.975,2.044 7.983,2.017 7.991,1.99 7.999,1.963 8.007,1.936 8.014,1.908 8.022,1.881 8.029,1.854 8.036,1.826 8.043,1.798 8.049,1.771 8.056,1.743 8.062,1.715 8.068,1.687 8.074,1.659 8.08,1.631 8.086,1.603 8.091,1.575 8.096,1.547 8.102,1.519 8.107,1.49 8.111,1.462 8.116,1.434 8.12,1.405 8.125,1.377 8.129,1.348 8.133,1.319 8.136,1.29 8.14,1.262 8.143,1.233 8.147,1.204 8.15,1.175 8.153,1.146 8.155,1.117 8.158,1.088 8.16,1.059 8.162,1.029 8.164,1 8.166,0.971 8.167,0.956 H 8.165 L 8.164,0.033 Z M 9.502,0.706 V 0.743 0.781 L 9.501,0.819 9.5,0.857 9.499,0.895 9.498,0.933 9.496,0.971 9.495,1.009 9.492,1.047 9.49,1.084 9.488,1.122 9.485,1.16 9.482,1.197 9.479,1.235 9.475,1.272 9.472,1.309 9.468,1.347 9.464,1.384 9.459,1.421 9.455,1.458 9.45,1.495 9.445,1.532 9.44,1.569 9.434,1.606 9.428,1.643 9.422,1.679 9.416,1.716 9.41,1.752 9.403,1.789 9.396,1.825 9.389,1.862 9.382,1.898 9.374,1.934 9.367,1.97 9.359,2.006 9.351,2.042 9.342,2.077 9.334,2.113 9.325,2.149 9.316,2.184 9.306,2.22 9.297,2.255 9.287,2.291 9.277,2.326 9.267,2.361 9.257,2.396 9.247,2.431 9.236,2.466 9.225,2.501 9.214,2.535 9.202,2.57 9.191,2.604 9.179,2.639 9.167,2.673 9.155,2.707 9.143,2.742 9.13,2.775 9.117,2.809 9.104,2.843 9.091,2.877 9.078,2.91 9.064,2.944 9.05,2.977 9.036,3.011 9.022,3.044 9.008,3.077 8.993,3.11 8.979,3.143 8.964,3.176 8.949,3.208 8.933,3.241 8.918,3.273 8.902,3.306 8.886,3.338 8.87,3.37 8.854,3.402 8.837,3.434 8.821,3.465 8.804,3.497 8.787,3.529 8.77,3.56 8.752,3.592 8.735,3.623 8.717,3.654 8.699,3.685 8.681,3.716 8.663,3.746 8.644,3.777 8.625,3.807 8.607,3.838 8.588,3.868 8.568,3.898 8.549,3.928 8.53,3.958 8.51,3.988 8.49,4.017 8.47,4.047 8.45,4.076 8.429,4.105 8.409,4.134 8.388,4.163 8.367,4.192 8.346,4.221 8.325,4.249 8.304,4.278 8.282,4.306 8.26,4.334 8.238,4.362 8.216,4.39 8.194,4.418 8.172,4.446 8.149,4.473 8.126,4.5 8.104,4.528 8.081,4.555 8.057,4.582 8.034,4.608 8.01,4.635 7.987,4.662 7.963,4.688 7.939,4.714 7.915,4.74 7.891,4.766 7.866,4.792 7.842,4.817 7.817,4.843 7.792,4.868 7.767,4.894 7.742,4.918 7.716,4.943 7.691,4.968 7.665,4.993 7.64,5.017 7.614,5.041 7.588,5.066 7.561,5.09 7.535,5.113 7.509,5.137 7.482,5.161 7.455,5.184 7.428,5.207 7.401,5.23 7.374,5.253 7.347,5.276 7.319,5.298 7.291,5.32 7.264,5.343 7.236,5.365 7.208,5.387 7.18,5.408 7.151,5.43 7.123,5.451 7.094,5.473 7.066,5.494 7.037,5.514 7.008,5.535 6.979,5.556 6.949,5.576 6.92,5.596 6.891,5.616 6.861,5.636 6.831,5.656 6.801,5.676 6.771,5.695 6.741,5.714 6.711,5.733 6.681,5.752 6.65,5.771 6.62,5.789 6.589,5.807 6.558,5.825 6.527,5.843 6.496,5.861 6.465,5.878 6.434,5.896 6.402,5.913 6.371,5.93 6.339,5.947 6.307,5.964 6.275,5.98 6.243,5.996 6.211,6.012 6.179,6.028 6.147,6.044 6.114,6.06 6.082,6.075 6.049,6.09 6.016,6.105 5.983,6.12 5.95,6.134 5.917,6.149 5.884,6.163 5.851,6.177 5.817,6.19 5.784,6.204 5.75,6.217 5.716,6.231 5.683,6.244 5.649,6.256 5.615,6.269 5.581,6.281 5.546,6.293 5.512,6.305 5.478,6.317 5.443,6.329 5.409,6.34 5.374,6.351 5.339,6.362 5.304,6.373 5.269,6.383 5.234,6.394 5.199,6.404 5.164,6.414 5.129,6.423 5.093,6.433 5.058,6.442 5.022,6.451 4.987,6.46 4.951,6.469 4.915,6.477 4.879,6.485 4.843,6.493 4.807,6.501 4.771,6.508 4.735,6.516 4.698,6.523 4.662,6.529 4.626,6.536 4.589,6.543 4.553,6.549 4.516,6.555 4.479,6.56 4.442,6.566 4.405,6.571 4.368,6.576 4.331,6.581 4.294,6.585 4.257,6.59 4.22,6.594 4.183,6.598 4.145,6.602 4.108,6.605 4.07,6.608 4.033,6.611 3.995,6.614 3.958,6.617 3.92,6.619 3.882,6.621 3.844,6.623 3.806,6.624 3.768,6.626 3.73,6.627 3.692,6.628 H 3.654 3.616 L 3.578,6.629 3.54,6.628 H 3.501 3.463 L 3.425,6.627 3.387,6.626 3.349,6.624 3.311,6.623 3.273,6.621 3.236,6.619 3.198,6.617 3.16,6.614 3.123,6.611 3.085,6.608 3.048,6.605 3.01,6.602 2.973,6.598 2.936,6.594 2.898,6.59 2.861,6.585 2.824,6.581 2.787,6.576 2.75,6.571 2.713,6.566 2.676,6.56 2.64,6.555 2.603,6.549 2.566,6.543 2.53,6.536 2.493,6.529 2.457,6.523 2.421,6.516 2.385,6.508 2.348,6.501 2.312,6.493 2.276,6.485 2.24,6.477 2.205,6.469 2.169,6.46 2.133,6.451 2.098,6.442 2.062,6.433 2.027,6.423 1.992,6.414 1.956,6.404 1.921,6.394 1.886,6.383 1.851,6.373 1.816,6.362 1.782,6.351 1.747,6.34 1.712,6.329 1.678,6.317 1.643,6.305 1.609,6.293 1.575,6.281 1.541,6.269 1.507,6.256 1.473,6.244 1.439,6.231 1.406,6.217 1.372,6.204 1.338,6.19 1.305,6.177 1.272,6.163 1.238,6.149 1.205,6.134 1.172,6.12 1.14,6.105 1.107,6.09 1.074,6.075 1.042,6.06 1.009,6.044 0.977,6.028 0.945,6.012 0.912,5.996 0.88,5.98 0.849,5.964 0.817,5.947 0.785,5.93 0.754,5.913 0.722,5.896 0.691,5.878 0.66,5.861 0.629,5.843 0.598,5.825 0.567,5.807 0.536,5.789 0.505,5.771 0.475,5.752 0.445,5.733 0.414,5.714 0.384,5.695 0.354,5.676 0.324,5.656 0.295,5.636 0.265,5.616 0.236,5.596 0.206,5.576 0.177,5.556 0.148,5.535 0.119,5.514 0.09,5.494 0.061,5.473 0.033,5.451 0.005,5.43 -0.024,5.408 -0.052,5.387 -0.08,5.365 -0.108,5.343 -0.136,5.32 -0.163,5.298 -0.191,5.276 -0.218,5.253 -0.245,5.23 -0.272,5.207 -0.299,5.184 -0.326,5.161 -0.353,5.137 -0.379,5.113 -0.406,5.09 -0.432,5.066 -0.458,5.041 -0.484,5.017 -0.51,4.993 -0.535,4.968 -0.561,4.943 -0.586,4.918 -0.611,4.894 -0.636,4.868 -0.661,4.843 -0.686,4.817 -0.71,4.792 -0.735,4.766 -0.759,4.74 -0.783,4.714 -0.807,4.688 -0.831,4.662 -0.855,4.635 -0.878,4.608 -0.902,4.582 -0.925,4.555 -0.948,4.528 -0.971,4.5 -0.993,4.473 -1.016,4.446 -1.038,4.418 -1.06,4.39 -1.083,4.362 -1.104,4.334 -1.126,4.306 -1.148,4.278 -1.169,4.249 -1.19,4.221 -1.211,4.192 -1.232,4.163 -1.253,4.134 -1.274,4.105 -1.294,4.076 -1.314,4.047 -1.334,4.017 -1.354,3.988 -1.374,3.958 -1.393,3.928 -1.413,3.898 -1.432,3.868 -1.451,3.838 -1.47,3.807 -1.488,3.777 -1.507,3.746 -1.525,3.716 -1.543,3.685 -1.561,3.654 -1.579,3.623 -1.596,3.592 -1.614,3.56 -1.631,3.529 -1.648,3.497 -1.665,3.465 -1.681,3.434 -1.698,3.402 -1.714,3.37 -1.73,3.338 -1.746,3.306 -1.762,3.273 -1.777,3.241 -1.793,3.208 -1.808,3.176 -1.823,3.143 -1.838,3.11 -1.852,3.077 -1.866,3.044 -1.881,3.011 -1.895,2.977 -1.908,2.944 -1.922,2.91 -1.935,2.877 -1.948,2.843 -1.961,2.809 -1.974,2.775 -1.987,2.742 -1.999,2.707 -2.011,2.673 -2.023,2.639 -2.035,2.604 -2.047,2.57 -2.058,2.535 -2.069,2.501 -2.08,2.466 -2.091,2.431 -2.101,2.396 -2.112,2.361 -2.122,2.326 -2.131,2.291 -2.141,2.255 -2.151,2.22 -2.16,2.184 -2.169,2.149 -2.178,2.113 -2.186,2.077 -2.195,2.042 -2.203,2.006 -2.211,1.97 -2.219,1.934 -2.226,1.898 -2.233,1.862 -2.24,1.825 -2.247,1.789 -2.254,1.752 -2.26,1.716 -2.266,1.679 -2.272,1.643 -2.278,1.606 -2.284,1.569 -2.289,1.532 -2.294,1.495 -2.299,1.458 -2.303,1.421 -2.308,1.384 -2.312,1.347 -2.316,1.309 -2.32,1.272 -2.323,1.235 -2.326,1.197 -2.329,1.16 -2.332,1.122 -2.334,1.084 -2.337,1.047 -2.339,1.009 -2.341,0.971 -2.342,0.933 -2.343,0.895 -2.344,0.857 -2.345,0.819 -2.346,0.799 h -0.01 V 0.289 H -2.377 V -4.69 h 1.188 v 3.326 l 9.352,0.065 -0.004,-3.379 h 1.313 l 0.005,5.384 z"
             style="fill:#231f20;fill-opacity:1;fill-rule:nonzero;stroke:none"
             id="path88"
             inkscape:connector-curvature="0" />
        </g>
        <g
           id="g90"
           transform="translate(78.2068,774.5713)">
          <path
             d="m 0,0 -0.999,0.017 -0.028,0.685 h 0.009 v 0.032 l 0.001,0.03 v 0.03 l 10e-4,0.029 0.001,0.03 10e-4,0.03 0.001,0.029 10e-4,0.029 0.002,0.03 0.002,0.029 0.002,0.029 0.002,0.03 0.002,0.029 0.003,0.029 0.002,0.029 0.003,0.029 0.003,0.029 0.003,0.029 0.004,0.029 0.003,0.029 0.004,0.028 0.004,0.029 0.004,0.029 0.004,0.028 0.005,0.029 0.004,0.028 0.005,0.028 0.005,0.029 0.005,0.028 0.006,0.028 0.005,0.028 0.006,0.028 0.006,0.028 0.006,0.028 0.006,0.028 0.006,0.028 0.007,0.028 0.006,0.027 0.007,0.028 0.007,0.028 0.007,0.027 0.007,0.027 0.008,0.028 0.008,0.027 0.007,0.027 0.008,0.027 0.009,0.027 0.008,0.027 0.008,0.027 0.009,0.027 0.009,0.027 0.009,0.026 0.009,0.027 0.009,0.027 0.009,0.026 0.01,0.026 0.01,0.027 0.01,0.026 0.01,0.026 0.01,0.026 0.01,0.026 0.011,0.026 0.01,0.026 0.011,0.026 0.011,0.026 0.011,0.025 0.012,0.026 0.011,0.025 0.012,0.026 0.011,0.025 0.012,0.025 0.012,0.025 0.012,0.026 0.013,0.025 0.012,0.024 0.013,0.025 0.012,0.025 0.013,0.025 0.013,0.024 0.014,0.024 0.013,0.025 0.013,0.024 0.014,0.024 0.014,0.024 0.014,0.024 0.014,0.024 0.014,0.024 0.014,0.024 0.015,0.024 0.014,0.023 0.015,0.023 0.015,0.024 0.015,0.023 0.015,0.023 0.015,0.023 0.016,0.023 0.015,0.023 0.016,0.023 0.016,0.023 0.016,0.022 0.016,0.023 0.016,0.022 0.017,0.023 0.016,0.021 0.017,0.023 0.016,0.022 0.017,0.022 0.017,0.021 0.017,0.022 0.018,0.021 0.017,0.022 0.017,0.021 0.018,0.021 0.018,0.022 0.018,0.021 0.018,0.021 0.018,0.021 0.018,0.02 0.019,0.021 0.018,0.02 0.019,0.021 0.018,0.02 0.019,0.02 0.019,0.02 0.019,0.02 0.02,0.02 0.019,0.02 0.019,0.019 0.02,0.019 0.02,0.02 0.019,0.019 0.02,0.019 0.02,0.019 0.02,0.019 0.021,0.019 0.02,0.018 0.021,0.019 0.02,0.018 L 0.55,4.161 0.571,4.179 0.592,4.198 0.613,4.215 0.634,4.233 0.655,4.251 0.676,4.268 0.698,4.286 0.719,4.303 0.741,4.32 0.763,4.337 0.785,4.354 0.807,4.371 0.829,4.387 0.851,4.404 0.873,4.42 0.896,4.436 0.918,4.452 0.941,4.468 0.963,4.484 0.986,4.5 1.009,4.516 1.032,4.531 1.055,4.546 1.078,4.561 1.101,4.576 1.125,4.591 1.148,4.606 1.172,4.62 1.195,4.635 1.219,4.649 1.243,4.663 1.267,4.678 1.291,4.691 1.315,4.705 1.339,4.719 1.363,4.732 1.388,4.746 1.412,4.759 1.437,4.772 1.461,4.785 1.486,4.798 1.511,4.81 1.536,4.822 1.561,4.835 1.586,4.847 1.611,4.859 1.636,4.871 1.661,4.883 1.687,4.894 1.712,4.906 1.738,4.917 1.764,4.928 1.789,4.939 1.815,4.95 1.841,4.96 1.867,4.971 1.893,4.981 1.919,4.992 1.945,5.002 1.971,5.011 1.998,5.021 2.024,5.031 2.051,5.04 2.077,5.049 2.104,5.058 2.13,5.067 2.157,5.076 2.184,5.085 2.211,5.093 2.238,5.102 2.265,5.11 2.292,5.118 2.319,5.125 2.347,5.133 2.374,5.141 2.401,5.148 2.429,5.155 2.456,5.162 2.484,5.169 2.512,5.176 2.539,5.182 2.567,5.189 2.595,5.195 2.623,5.201 2.651,5.206 2.679,5.212 2.707,5.217 2.735,5.223 2.763,5.228 2.792,5.233 2.82,5.238 2.849,5.242 2.877,5.247 2.906,5.251 2.934,5.255 2.963,5.259 2.992,5.263 3.02,5.266 3.049,5.27 3.078,5.273 3.107,5.276 3.136,5.279 3.165,5.282 3.194,5.284 3.223,5.286 3.253,5.289 3.282,5.291 3.311,5.292 3.341,5.294 3.37,5.295 3.4,5.297 3.429,5.298 h 0.03 l 0.029,0.001 h 0.03 0.03 L 3.578,5.3 3.607,5.299 h 0.03 0.03 L 3.697,5.298 H 3.726 L 3.756,5.297 3.785,5.295 3.815,5.294 3.844,5.292 3.873,5.291 3.903,5.289 3.932,5.286 3.961,5.284 3.99,5.282 4.019,5.279 4.048,5.276 4.077,5.273 4.106,5.27 4.135,5.266 4.164,5.263 4.193,5.259 4.221,5.255 4.25,5.251 4.278,5.247 4.307,5.242 4.335,5.238 4.364,5.233 4.392,5.228 4.42,5.223 4.448,5.217 4.477,5.212 4.505,5.206 4.533,5.201 4.561,5.195 4.588,5.189 4.616,5.182 4.644,5.176 4.672,5.169 4.699,5.162 4.727,5.155 4.754,5.148 4.782,5.141 4.809,5.133 4.836,5.125 4.863,5.118 4.891,5.11 4.918,5.102 4.945,5.093 4.971,5.085 4.998,5.076 5.025,5.067 5.052,5.058 5.078,5.049 5.105,5.04 5.132,5.031 5.158,5.021 5.184,5.011 5.21,5.002 5.237,4.992 5.263,4.981 5.289,4.971 5.315,4.96 5.341,4.95 5.366,4.939 5.392,4.928 5.418,4.917 5.443,4.906 5.469,4.894 5.494,4.883 5.519,4.871 5.545,4.859 5.57,4.847 5.595,4.835 5.62,4.822 5.645,4.81 5.669,4.798 5.694,4.785 5.719,4.772 5.743,4.759 5.768,4.745 5.792,4.732 5.817,4.719 5.841,4.705 5.865,4.691 5.889,4.678 5.913,4.663 5.937,4.649 5.96,4.635 5.984,4.62 6.007,4.606 6.031,4.591 6.054,4.576 6.078,4.561 6.101,4.546 6.124,4.531 6.147,4.516 6.17,4.5 6.192,4.484 6.215,4.468 6.238,4.452 6.26,4.436 6.283,4.42 6.305,4.404 6.327,4.387 6.349,4.371 6.371,4.354 6.393,4.337 6.415,4.32 6.436,4.303 6.458,4.286 6.479,4.268 6.501,4.251 6.522,4.233 6.543,4.215 6.564,4.198 6.585,4.179 6.606,4.161 6.627,4.143 6.647,4.125 6.668,4.106 6.688,4.088 6.708,4.069 6.728,4.05 6.748,4.031 6.768,4.012 6.788,3.993 6.808,3.973 6.827,3.954 6.847,3.934 6.866,3.915 6.885,3.895 6.904,3.875 6.923,3.855 6.942,3.835 6.961,3.815 6.98,3.794 6.998,3.774 7.017,3.753 7.035,3.733 7.053,3.712 7.071,3.691 7.089,3.67 7.107,3.648 7.124,3.627 7.142,3.606 7.159,3.584 7.176,3.563 7.194,3.541 7.211,3.52 7.227,3.498 7.244,3.476 7.261,3.453 7.277,3.432 7.294,3.409 7.31,3.387 7.326,3.364 7.342,3.342 7.358,3.319 7.373,3.296 7.389,3.273 7.404,3.25 7.42,3.227 7.435,3.204 7.45,3.181 7.465,3.157 7.479,3.134 7.494,3.111 7.508,3.087 7.523,3.063 7.537,3.039 7.551,3.015 7.565,2.991 7.579,2.967 7.592,2.943 7.606,2.919 7.619,2.894 7.632,2.87 7.645,2.846 7.658,2.821 7.671,2.796 7.684,2.771 7.696,2.747 7.708,2.722 7.721,2.696 7.733,2.671 7.744,2.646 7.756,2.621 7.768,2.595 7.779,2.57 7.79,2.544 7.802,2.519 7.812,2.493 7.823,2.467 7.834,2.441 7.844,2.415 7.855,2.389 7.865,2.363 7.875,2.337 7.885,2.311 7.895,2.284 7.904,2.258 7.914,2.232 7.923,2.205 7.932,2.178 7.941,2.152 7.95,2.125 7.958,2.098 7.967,2.071 7.975,2.044 7.983,2.017 7.991,1.99 7.999,1.963 8.007,1.936 8.014,1.908 8.022,1.881 8.029,1.854 8.036,1.826 8.043,1.798 8.049,1.771 8.056,1.743 8.062,1.715 8.068,1.687 8.074,1.659 8.08,1.631 8.086,1.603 8.091,1.575 8.096,1.547 8.102,1.519 8.107,1.49 8.111,1.462 8.116,1.434 8.12,1.405 8.125,1.377 8.129,1.348 8.133,1.319 8.136,1.291 8.14,1.262 8.143,1.233 8.147,1.204 8.15,1.175 8.152,1.146 8.155,1.117 8.158,1.088 8.16,1.059 8.162,1.029 8.164,1 8.166,0.971 8.167,0.956 H 8.165 L 8.164,0.033 Z M 9.502,0.706 V 0.743 0.781 L 9.501,0.819 9.5,0.857 9.499,0.895 9.498,0.933 9.496,0.971 9.495,1.009 9.492,1.047 9.49,1.084 9.488,1.122 9.485,1.16 9.482,1.197 9.479,1.235 9.475,1.272 9.472,1.309 9.468,1.347 9.464,1.384 9.459,1.421 9.455,1.458 9.45,1.495 9.445,1.532 9.439,1.569 9.434,1.606 9.428,1.643 9.422,1.679 9.416,1.716 9.41,1.752 9.403,1.789 9.396,1.825 9.389,1.862 9.382,1.898 9.374,1.934 9.367,1.97 9.359,2.006 9.35,2.042 9.342,2.078 9.333,2.113 9.325,2.149 9.316,2.184 9.306,2.22 9.297,2.256 9.287,2.291 9.277,2.326 9.267,2.361 9.257,2.396 9.246,2.431 9.236,2.466 9.225,2.501 9.214,2.535 9.202,2.57 9.191,2.604 9.179,2.639 9.167,2.673 9.155,2.707 9.143,2.742 9.13,2.775 9.117,2.809 9.104,2.843 9.091,2.877 9.078,2.91 9.064,2.944 9.05,2.977 9.036,3.011 9.022,3.044 9.008,3.077 8.993,3.11 8.979,3.143 8.964,3.176 8.948,3.208 8.933,3.241 8.918,3.273 8.902,3.306 8.886,3.338 8.87,3.37 8.854,3.402 8.837,3.434 8.821,3.465 8.804,3.497 8.787,3.529 8.77,3.56 8.752,3.592 8.735,3.623 8.717,3.654 8.699,3.685 8.681,3.716 8.663,3.746 8.644,3.777 8.625,3.807 8.607,3.838 8.588,3.868 8.568,3.898 8.549,3.928 8.53,3.958 8.51,3.988 8.49,4.017 8.47,4.047 8.45,4.076 8.429,4.105 8.409,4.134 8.388,4.163 8.367,4.192 8.346,4.221 8.325,4.249 8.303,4.278 8.282,4.306 8.26,4.334 8.238,4.362 8.216,4.39 8.194,4.418 8.172,4.446 8.149,4.473 8.126,4.501 8.104,4.528 8.08,4.555 8.057,4.582 8.034,4.609 8.01,4.635 7.987,4.662 7.963,4.688 7.939,4.714 7.915,4.74 7.891,4.766 7.866,4.792 7.842,4.818 7.817,4.843 7.792,4.868 7.767,4.894 7.742,4.918 7.716,4.943 7.691,4.968 7.665,4.993 7.64,5.017 7.614,5.041 7.588,5.066 7.561,5.09 7.535,5.113 7.508,5.137 7.482,5.161 7.455,5.184 7.428,5.207 7.401,5.23 7.374,5.253 7.346,5.276 7.319,5.298 7.291,5.32 7.264,5.343 7.236,5.365 7.208,5.387 7.18,5.408 7.151,5.43 7.123,5.451 7.094,5.473 7.066,5.494 7.037,5.514 7.008,5.535 6.979,5.556 6.949,5.576 6.92,5.596 6.891,5.616 6.861,5.636 6.831,5.656 6.801,5.676 6.771,5.695 6.741,5.714 6.711,5.733 6.681,5.752 6.65,5.771 6.62,5.789 6.589,5.807 6.558,5.825 6.527,5.843 6.496,5.861 6.465,5.879 6.434,5.896 6.402,5.913 6.371,5.93 6.339,5.947 6.307,5.964 6.275,5.98 6.243,5.996 6.211,6.012 6.179,6.028 6.147,6.044 6.114,6.06 6.082,6.075 6.049,6.09 6.016,6.105 5.983,6.12 5.95,6.134 5.917,6.149 5.884,6.163 5.851,6.177 5.817,6.19 5.784,6.204 5.75,6.217 5.716,6.231 5.683,6.244 5.649,6.256 5.615,6.269 5.581,6.281 5.546,6.293 5.512,6.305 5.478,6.317 5.443,6.329 5.409,6.34 5.374,6.351 5.339,6.362 5.304,6.373 5.269,6.383 5.234,6.394 5.199,6.404 5.164,6.414 5.129,6.423 5.093,6.433 5.058,6.442 5.022,6.451 4.987,6.46 4.951,6.469 4.915,6.477 4.879,6.485 4.843,6.493 4.807,6.501 4.771,6.508 4.735,6.516 4.698,6.523 4.662,6.529 4.626,6.536 4.589,6.543 4.553,6.549 4.516,6.555 4.479,6.56 4.442,6.566 4.405,6.571 4.368,6.576 4.331,6.581 4.294,6.585 4.257,6.59 4.22,6.594 4.183,6.598 4.145,6.602 4.108,6.605 4.07,6.608 4.033,6.611 3.995,6.614 3.958,6.617 3.92,6.619 3.882,6.621 3.844,6.623 3.806,6.624 3.768,6.626 3.73,6.627 3.692,6.628 H 3.654 3.616 L 3.578,6.629 3.539,6.628 H 3.501 3.463 L 3.425,6.627 3.387,6.626 3.349,6.624 3.311,6.623 3.273,6.621 3.236,6.619 3.198,6.617 3.16,6.614 3.123,6.611 3.085,6.608 3.048,6.605 3.01,6.602 2.973,6.598 2.936,6.594 2.898,6.59 2.861,6.585 2.824,6.581 2.787,6.576 2.75,6.571 2.713,6.566 2.676,6.56 2.64,6.555 2.603,6.549 2.566,6.543 2.53,6.536 2.493,6.529 2.457,6.523 2.421,6.516 2.385,6.508 2.348,6.501 2.312,6.493 2.276,6.485 2.24,6.477 2.205,6.469 2.169,6.46 2.133,6.451 2.098,6.442 2.062,6.433 2.027,6.423 1.992,6.414 1.956,6.404 1.921,6.394 1.886,6.383 1.851,6.373 1.816,6.362 1.782,6.351 1.747,6.34 1.712,6.329 1.678,6.317 1.643,6.305 1.609,6.293 1.575,6.281 1.541,6.269 1.507,6.256 1.473,6.244 1.439,6.231 1.405,6.217 1.372,6.204 1.338,6.19 1.305,6.177 1.272,6.163 1.238,6.149 1.205,6.134 1.172,6.12 1.139,6.105 1.107,6.09 1.074,6.075 1.042,6.06 1.009,6.044 0.977,6.028 0.944,6.012 0.912,5.996 0.88,5.98 0.848,5.964 0.817,5.947 0.785,5.93 0.753,5.913 0.722,5.896 0.691,5.879 0.66,5.861 0.628,5.843 0.598,5.825 0.567,5.807 0.536,5.789 0.505,5.771 0.475,5.752 0.445,5.733 0.414,5.714 0.384,5.695 0.354,5.676 0.324,5.656 0.295,5.636 0.265,5.616 0.236,5.596 0.206,5.576 0.177,5.556 0.148,5.535 0.119,5.514 0.09,5.494 0.061,5.473 0.033,5.451 0.004,5.43 -0.024,5.408 -0.052,5.387 -0.08,5.365 -0.108,5.343 -0.136,5.32 -0.163,5.298 -0.191,5.276 -0.218,5.253 -0.245,5.23 -0.272,5.207 -0.299,5.184 -0.326,5.161 -0.353,5.137 -0.379,5.113 -0.406,5.09 -0.432,5.066 -0.458,5.041 -0.484,5.017 -0.51,4.993 -0.535,4.968 -0.561,4.943 -0.586,4.918 -0.611,4.894 -0.636,4.868 -0.661,4.843 -0.686,4.818 -0.711,4.792 -0.735,4.766 -0.759,4.74 -0.783,4.714 -0.807,4.688 -0.831,4.662 -0.855,4.635 -0.878,4.609 -0.902,4.582 -0.925,4.555 -0.948,4.528 -0.971,4.501 -0.993,4.473 -1.016,4.446 -1.038,4.418 -1.06,4.39 -1.083,4.362 -1.104,4.334 -1.126,4.306 -1.148,4.278 -1.169,4.249 -1.19,4.221 -1.211,4.192 -1.232,4.163 -1.253,4.134 -1.274,4.105 -1.294,4.076 -1.314,4.047 -1.334,4.017 -1.354,3.988 -1.374,3.958 -1.393,3.928 -1.413,3.898 -1.432,3.868 -1.451,3.838 -1.47,3.807 -1.488,3.777 -1.507,3.746 -1.525,3.716 -1.543,3.685 -1.561,3.654 -1.579,3.623 -1.596,3.592 -1.614,3.56 -1.631,3.529 -1.648,3.497 -1.665,3.465 -1.682,3.434 -1.698,3.402 -1.714,3.37 -1.73,3.338 -1.746,3.306 -1.762,3.273 -1.777,3.241 -1.793,3.208 -1.808,3.176 -1.823,3.143 -1.838,3.11 -1.852,3.077 -1.866,3.044 -1.881,3.011 -1.895,2.977 -1.908,2.944 -1.922,2.91 -1.935,2.877 -1.948,2.843 -1.961,2.809 -1.974,2.775 -1.987,2.742 -1.999,2.707 -2.011,2.673 -2.023,2.639 -2.035,2.604 -2.047,2.57 -2.058,2.535 -2.069,2.501 -2.08,2.466 -2.091,2.431 -2.101,2.396 -2.112,2.361 -2.122,2.326 -2.132,2.291 -2.141,2.256 -2.151,2.22 -2.16,2.184 -2.169,2.149 -2.178,2.113 -2.186,2.078 -2.195,2.042 -2.203,2.006 -2.211,1.97 -2.219,1.934 -2.226,1.898 -2.233,1.862 -2.24,1.825 -2.247,1.789 -2.254,1.752 -2.26,1.716 -2.266,1.679 -2.272,1.643 -2.278,1.606 -2.284,1.569 -2.289,1.532 -2.294,1.495 -2.299,1.458 -2.303,1.421 -2.308,1.384 -2.312,1.347 -2.316,1.309 -2.32,1.272 -2.323,1.235 -2.326,1.197 -2.329,1.16 -2.332,1.122 -2.334,1.084 -2.337,1.047 -2.339,1.009 -2.341,0.971 -2.342,0.933 -2.343,0.895 -2.344,0.857 -2.345,0.819 -2.346,0.799 h -0.01 V 0.289 H -2.377 V -4.69 h 1.188 v 3.326 l 9.352,0.065 -0.004,-3.379 h 1.313 l 0.005,5.384 z"
             style="fill:#231f20;fill-opacity:1;fill-rule:nonzero;stroke:none"
             id="path92"
             inkscape:connector-curvature="0" />
        </g>
        <g
           id="g94"
           transform="translate(74.4547,778.4503)">
          <path
             d="m 0,0 -0.019,0.031 -0.018,0.03 -0.019,0.03 -0.019,0.031 -0.019,0.03 -0.02,0.03 -0.019,0.03 -0.02,0.029 -0.02,0.03 -0.02,0.029 -0.02,0.03 -0.02,0.029 -0.021,0.029 -0.021,0.029 -0.02,0.029 L -0.317,0.475 -0.338,0.503 -0.359,0.531 -0.381,0.56 -0.403,0.588 -0.424,0.616 -0.446,0.644 -0.469,0.672 -0.491,0.699 -0.514,0.727 -0.536,0.754 -0.559,0.781 -0.582,0.808 -0.605,0.835 -0.629,0.862 -0.652,0.889 -0.676,0.915 -0.7,0.942 -0.724,0.968 -0.748,0.994 -0.772,1.02 -0.796,1.046 -0.821,1.071 -0.846,1.097 -0.871,1.122 -0.896,1.147 -0.921,1.172 -0.946,1.197 -0.972,1.222 -0.997,1.246 -1.023,1.271 -1.049,1.295 -1.075,1.319 -1.101,1.343 -1.128,1.367 -1.154,1.391 -1.181,1.414 -1.208,1.438 -1.234,1.461 -1.261,1.484 -1.289,1.507 -1.316,1.529 -1.343,1.552 -1.371,1.574 -1.399,1.596 -1.427,1.619 -1.455,1.64 -1.483,1.662 -1.511,1.684 -1.54,1.705 -1.568,1.726 -1.597,1.747 -1.626,1.768 -1.655,1.789 -1.684,1.81 l -0.029,0.02 -0.029,0.02 -0.03,0.02 -0.03,0.02 -0.029,0.02 -0.03,0.019 -0.03,0.02 -0.03,0.019 -0.03,0.019 -0.031,0.019 -0.03,0.018 -0.031,0.019 -0.031,0.018 -0.03,0.018 L -2.135,2.097 -2.166,2.115 -2.198,2.132 -2.229,2.15 -2.26,2.167 -2.292,2.184 -2.324,2.201 -2.355,2.217 -2.387,2.234 -2.419,2.25 -2.451,2.266 -2.484,2.282 -2.516,2.298 -2.548,2.313 -2.581,2.329 -2.613,2.344 -2.646,2.359 -2.679,2.374 -2.712,2.388 -2.745,2.402 -2.779,2.417 -2.812,2.431 -2.845,2.444 -2.879,2.458 -2.912,2.471 -2.946,2.484 -2.98,2.497 -3.014,2.51 -3.048,2.523 -3.082,2.535 -3.116,2.547 -3.15,2.559 -3.185,2.571 -3.219,2.583 -3.254,2.594 -3.288,2.605 -3.323,2.616 -3.358,2.627 -3.393,2.637 -3.428,2.648 -3.463,2.658 -3.498,2.667 -3.534,2.677 -3.569,2.687 -3.605,2.696 -3.64,2.705 -3.676,2.714 -3.712,2.722 -3.747,2.731 -3.783,2.739 -3.819,2.747 -3.855,2.755 -3.891,2.762 -3.928,2.769 -3.964,2.776 -4,2.783 -4.037,2.79 -4.073,2.796 -4.11,2.802 -4.147,2.808 -4.183,2.814 -4.22,2.82 -4.257,2.825 -4.294,2.83 -4.331,2.835 -4.368,2.839 -4.405,2.844 -4.443,2.848 -4.48,2.852 -4.517,2.856 -4.555,2.859 -4.592,2.862 -4.63,2.865 -4.667,2.868 -4.705,2.87 -4.742,2.873 -4.78,2.875 -4.818,2.877 -4.856,2.878 -4.894,2.879 -4.932,2.88 -4.97,2.881 -4.99,2.882 v 0.01 h -0.833 l -0.031,0.317 h -1.257 l 0.081,-11.636 0.664,0.012 v 0 l 0.665,0.012 -0.038,9.257 0.012,0.683 0.64,0.026 V 1.554 l 0.032,-0.001 h 0.03 0.03 L -4.966,1.552 -4.936,1.551 -4.907,1.55 -4.877,1.549 -4.848,1.548 -4.818,1.546 -4.789,1.544 -4.76,1.542 -4.731,1.54 -4.701,1.538 -4.672,1.535 -4.643,1.533 -4.614,1.53 -4.585,1.527 -4.556,1.524 -4.527,1.52 -4.499,1.517 -4.47,1.513 -4.441,1.509 -4.413,1.505 -4.384,1.501 -4.355,1.496 -4.327,1.492 -4.299,1.487 -4.27,1.482 -4.242,1.477 -4.214,1.471 -4.186,1.466 -4.158,1.46 -4.13,1.454 -4.102,1.448 -4.074,1.442 -4.046,1.436 -4.019,1.429 -3.991,1.423 -3.963,1.416 -3.936,1.409 -3.908,1.402 -3.881,1.394 -3.854,1.387 -3.826,1.379 -3.799,1.372 -3.772,1.364 -3.745,1.355 -3.718,1.347 -3.691,1.339 -3.664,1.33 l 0.027,-0.009 0.026,-0.009 0.027,-0.009 0.026,-0.009 0.027,-0.01 0.026,-0.009 0.027,-0.01 0.026,-0.01 0.026,-0.01 0.026,-0.01 0.026,-0.01 0.026,-0.011 0.026,-0.01 L -3.296,1.193 -3.271,1.182 -3.245,1.171 -3.219,1.159 -3.194,1.148 -3.169,1.136 -3.143,1.125 -3.118,1.113 -3.093,1.101 -3.068,1.089 -3.043,1.076 -3.018,1.064 -2.993,1.051 -2.968,1.038 -2.944,1.026 -2.919,1.013 -2.895,0.999 -2.87,0.986 -2.846,0.973 -2.822,0.959 -2.798,0.945 -2.774,0.931 -2.75,0.917 -2.726,0.903 -2.702,0.889 -2.679,0.874 -2.655,0.86 -2.632,0.845 -2.608,0.83 -2.585,0.815 -2.562,0.8 -2.539,0.785 -2.516,0.769 -2.493,0.754 -2.47,0.738 -2.447,0.722 -2.425,0.706 -2.402,0.69 -2.38,0.674 -2.358,0.657 -2.336,0.641 -2.313,0.624 -2.292,0.608 -2.27,0.591 l 0.022,-0.017 0.022,-0.017 0.021,-0.018 0.022,-0.017 0.021,-0.018 0.021,-0.017 0.022,-0.018 0.02,-0.018 0.021,-0.018 0.021,-0.018 0.021,-0.018 0.021,-0.019 0.02,-0.018 0.02,-0.019 0.021,-0.018 0.02,-0.019 0.02,-0.019 0.02,-0.019 0.019,-0.02 0.02,-0.019 0.02,-0.019 0.019,-0.02 0.019,-0.02 0.02,-0.019 0.019,-0.02 0.019,-0.02 0.019,-0.02 0.018,-0.021 0.019,-0.02 0.019,-0.021 0.018,-0.02 0.018,-0.021 0.01,-0.011 h 1.633 z"
             style="fill:#231f20;fill-opacity:1;fill-rule:nonzero;stroke:none"
             id="path96"
             inkscape:connector-curvature="0" />
        </g>
        <g
           id="g98"
           transform="translate(50.952,769.7537)">
          <path
             d="M 0,0 -0.066,3.596 H -0.06 V 4.784 H -2.851 V 3.596 h 1.456 L -1.372,2.356 -1.39,1.357 -2.074,1.329 v 0.009 h -0.033 -0.029 l -0.03,10e-4 -0.03,0.001 h -0.029 l -0.03,10e-4 -0.029,0.002 -0.029,0.001 -0.03,0.002 -0.029,10e-4 -0.029,0.002 -0.03,0.003 L -2.46,1.354 -2.489,1.356 -2.518,1.359 -2.547,1.362 -2.576,1.365 -2.605,1.368 -2.634,1.371 -2.663,1.375 -2.692,1.379 -2.72,1.383 -2.749,1.387 -2.777,1.391 -2.806,1.396 -2.834,1.4 -2.863,1.405 -2.891,1.41 -2.919,1.415 -2.947,1.42 -2.975,1.426 -3.003,1.431 -3.031,1.437 -3.059,1.443 -3.087,1.449 -3.115,1.456 -3.143,1.462 -3.171,1.469 -3.198,1.476 -3.226,1.483 -3.253,1.49 -3.281,1.497 -3.308,1.505 -3.335,1.512 -3.362,1.52 -3.389,1.528 -3.416,1.536 -3.443,1.545 -3.47,1.553 -3.497,1.562 -3.524,1.57 l -0.027,0.009 -0.026,0.009 -0.027,0.01 -0.026,0.009 -0.027,0.01 -0.026,0.009 -0.026,0.01 -0.026,0.01 -0.027,0.011 -0.025,0.01 -0.026,0.01 L -3.839,1.688 -3.865,1.699 -3.891,1.71 -3.916,1.721 -3.942,1.732 -3.968,1.744 -3.993,1.755 -4.018,1.767 -4.043,1.779 -4.068,1.791 -4.094,1.803 -4.119,1.815 -4.144,1.828 -4.168,1.84 -4.193,1.853 -4.218,1.866 -4.242,1.879 -4.266,1.892 -4.291,1.906 -4.315,1.919 -4.34,1.933 -4.364,1.947 -4.387,1.96 -4.411,1.974 -4.435,1.989 -4.459,2.003 -4.483,2.017 -4.506,2.032 -4.53,2.047 -4.553,2.062 -4.576,2.077 -4.599,2.092 -4.623,2.107 -4.646,2.122 -4.668,2.138 -4.691,2.154 -4.714,2.17 -4.737,2.186 -4.759,2.202 -4.781,2.218 -4.804,2.234 -4.826,2.251 -4.848,2.267 -4.87,2.284 -4.892,2.301 -4.913,2.318 -4.935,2.335 -4.956,2.352 -4.978,2.37 -4.999,2.387 -5.021,2.405 -5.042,2.423 -5.063,2.44 l -0.021,0.018 -0.021,0.019 -0.02,0.018 -0.021,0.018 -0.02,0.019 -0.021,0.018 -0.02,0.019 -0.02,0.019 -0.02,0.019 -0.02,0.019 -0.02,0.019 -0.02,0.02 -0.019,0.019 -0.019,0.02 -0.02,0.019 -0.019,0.02 -0.019,0.02 -0.019,0.02 -0.019,0.02 -0.019,0.02 -0.018,0.021 -0.019,0.02 -0.018,0.021 -0.019,0.021 -0.017,0.02 L -5.57,2.947 -5.587,2.968 -5.605,2.989 -5.623,3.011 -5.641,3.032 -5.658,3.053 -5.675,3.075 -5.692,3.097 -5.709,3.118 -5.726,3.14 -5.743,3.162 -5.759,3.184 -5.776,3.207 -5.792,3.229 -5.809,3.251 -5.825,3.274 -5.84,3.296 -5.856,3.319 -5.872,3.342 -5.888,3.365 -5.903,3.388 -5.918,3.411 -5.933,3.434 -5.948,3.457 -5.963,3.48 -5.978,3.504 -5.993,3.527 -6.007,3.551 -6.021,3.575 -6.035,3.599 -6.05,3.622 -6.063,3.647 -6.077,3.671 -6.091,3.695 -6.104,3.719 -6.118,3.743 -6.131,3.768 -6.144,3.792 -6.157,3.817 -6.17,3.842 -6.182,3.867 -6.195,3.891 -6.207,3.916 -6.219,3.942 -6.231,3.967 -6.243,3.992 -6.255,4.017 -6.266,4.043 -6.278,4.068 -6.289,4.094 -6.3,4.119 l -0.011,0.026 -0.011,0.026 -0.01,0.026 -0.011,0.026 -0.01,0.026 -0.011,0.026 -0.01,0.026 -0.01,0.026 -0.009,0.026 -0.01,0.027 -0.009,0.026 -0.01,0.027 L -6.43,4.459 -6.439,4.486 -6.448,4.513 -6.457,4.54 -6.465,4.567 -6.474,4.594 -6.482,4.621 -6.49,4.648 -6.498,4.675 -6.505,4.702 -6.513,4.73 -6.52,4.757 -6.527,4.784 -6.534,4.812 -6.541,4.84 -6.548,4.867 -6.554,4.895 -6.561,4.923 -6.567,4.951 -6.573,4.979 -6.579,5.007 -6.584,5.035 -6.59,5.063 -6.595,5.091 -6.6,5.119 -6.605,5.148 -6.61,5.176 -6.615,5.204 -6.619,5.233 -6.623,5.261 -6.627,5.29 -6.631,5.319 -6.635,5.347 -6.638,5.376 -6.642,5.405 -6.645,5.434 -6.648,5.463 -6.651,5.492 -6.654,5.521 -6.656,5.55 l -0.002,0.029 -0.003,0.029 -0.002,0.03 -10e-4,0.029 -0.002,0.029 -10e-4,0.03 -0.002,0.029 -0.001,0.03 v 0.029 l -0.001,0.03 -10e-4,0.03 v 0.03 0.029 0.03 0.03 l 10e-4,0.03 0.001,0.029 v 0.03 l 0.001,0.029 0.002,0.03 10e-4,0.029 0.002,0.03 10e-4,0.029 0.002,0.029 0.003,0.03 0.002,0.029 0.002,0.029 0.003,0.029 0.003,0.029 0.003,0.029 0.003,0.029 0.004,0.029 0.003,0.029 0.004,0.028 0.004,0.029 0.004,0.029 0.004,0.028 0.004,0.029 0.005,0.028 0.005,0.028 0.005,0.029 0.005,0.028 0.005,0.028 0.006,0.028 0.005,0.028 0.006,0.028 0.006,0.028 0.006,0.028 0.007,0.028 0.006,0.028 0.007,0.027 0.007,0.028 0.007,0.027 0.007,0.028 0.007,0.027 0.008,0.028 0.007,0.027 0.008,0.027 0.008,0.027 0.008,0.027 0.009,0.027 0.008,0.027 0.009,0.027 0.009,0.027 0.009,0.027 0.008,0.026 0.01,0.027 0.009,0.026 0.01,0.027 0.009,0.026 0.01,0.026 0.01,0.026 0.011,0.026 0.01,0.026 0.011,0.026 0.01,0.026 0.011,0.026 0.011,0.026 0.011,0.025 0.011,0.026 0.012,0.025 0.011,0.026 0.012,0.025 0.012,0.025 0.012,0.026 0.012,0.025 0.012,0.025 0.013,0.024 0.012,0.025 0.013,0.025 0.013,0.025 0.013,0.024 0.014,0.025 0.013,0.024 0.013,0.024 0.014,0.024 0.014,0.025 0.013,0.023 0.015,0.024 0.014,0.024 0.014,0.024 0.014,0.024 0.015,0.023 0.015,0.024 0.015,0.023 0.015,0.023 0.015,0.023 0.015,0.023 0.015,0.023 0.016,0.023 0.016,0.023 0.016,0.023 0.015,0.022 0.017,0.023 0.016,0.022 0.016,0.023 0.017,0.022 0.016,0.022 0.017,0.022 0.017,0.022 0.017,0.021 0.017,0.022 0.017,0.022 0.017,0.021 0.018,0.021 0.018,0.022 0.018,0.021 0.017,0.021 0.019,0.021 0.017,0.021 0.019,0.02 0.018,0.021 0.019,0.02 0.018,0.021 0.019,0.02 0.019,0.02 0.019,0.02 0.019,0.02 0.019,0.02 0.02,0.019 0.019,0.02 0.02,0.02 0.019,0.019 0.02,0.019 0.02,0.019 0.02,0.019 0.02,0.019 0.02,0.019 0.021,0.018 0.02,0.019 0.021,0.018 0.02,0.018 0.021,0.019 0.021,0.018 0.021,0.018 0.021,0.017 0.022,0.018 0.021,0.017 0.022,0.018 0.021,0.017 0.022,0.017 0.021,0.017 0.022,0.017 0.022,0.017 0.022,0.016 0.022,0.017 0.023,0.016 0.022,0.016 0.023,0.017 0.022,0.016 0.023,0.015 0.023,0.016 0.022,0.016 0.023,0.015 0.024,0.015 0.023,0.015 0.023,0.015 0.023,0.015 0.024,0.015 0.023,0.015 0.024,0.014 0.024,0.014 0.024,0.015 0.024,0.014 0.023,0.014 0.024,0.013 0.025,0.014 0.024,0.013 0.025,0.014 0.024,0.013 0.024,0.013 0.025,0.013 0.025,0.013 0.024,0.012 0.025,0.013 0.025,0.012 0.026,0.012 0.025,0.012 0.025,0.012 0.025,0.012 0.025,0.011 0.026,0.012 0.026,0.011 0.025,0.011 0.026,0.011 0.026,0.011 0.026,0.011 0.026,0.01 0.025,0.011 0.027,0.01 0.026,0.01 0.026,0.01 0.026,0.009 0.027,0.01 0.026,0.009 0.027,0.01 0.026,0.009 0.027,0.009 0.027,0.008 0.027,0.009 0.027,0.009 0.027,0.008 0.027,0.008 0.027,0.008 0.027,0.008 0.027,0.007 0.027,0.008 0.028,0.007 0.027,0.007 0.028,0.007 0.027,0.007 0.028,0.007 0.028,0.006 0.028,0.007 0.028,0.006 0.028,0.006 0.028,0.006 0.028,0.005 0.028,0.006 0.028,0.005 0.028,0.005 0.028,0.005 0.029,0.005 0.028,0.005 0.029,0.004 0.028,0.004 0.029,0.004 0.028,0.004 0.029,0.004 0.029,0.004 0.029,0.003 0.029,0.003 0.029,0.003 0.029,0.003 0.029,0.003 0.029,0.002 0.029,0.003 0.03,0.002 0.029,0.002 0.029,0.001 0.03,0.002 0.029,10e-4 0.029,0.002 0.03,10e-4 0.029,0.001 h 0.03 l 0.03,10e-4 h 0.03 0.031 l -0.004,1.329 H -2.115 L -2.153,11.857 H -2.191 L -2.229,11.856 -2.267,11.855 -2.305,11.854 -2.343,11.852 -2.381,11.85 -2.419,11.848 -2.456,11.846 -2.494,11.843 -2.532,11.841 -2.569,11.838 -2.607,11.834 -2.644,11.831 -2.682,11.827 -2.719,11.823 -2.756,11.819 -2.793,11.815 -2.83,11.81 -2.867,11.805 -2.904,11.8 -2.941,11.795 -2.978,11.79 -3.015,11.784 -3.051,11.778 -3.088,11.772 -3.124,11.765 -3.161,11.759 -3.197,11.752 -3.234,11.745 -3.27,11.737 -3.306,11.73 -3.342,11.722 -3.378,11.714 -3.414,11.706 -3.45,11.698 -3.485,11.689 -3.521,11.68 -3.557,11.671 -3.592,11.662 -3.628,11.653 -3.663,11.643 -3.698,11.633 -3.733,11.623 -3.768,11.613 -3.803,11.602 -3.838,11.591 -3.873,11.58 -3.907,11.569 -3.942,11.558 -3.977,11.546 -4.011,11.535 -4.045,11.523 -4.079,11.511 -4.114,11.498 -4.148,11.486 -4.181,11.473 -4.215,11.46 -4.249,11.447 -4.282,11.433 -4.316,11.42 -4.35,11.406 -4.383,11.392 -4.416,11.378 -4.449,11.364 -4.482,11.349 -4.515,11.334 -4.548,11.319 -4.58,11.304 -4.613,11.289 -4.646,11.273 -4.678,11.258 -4.71,11.242 -4.742,11.226 -4.774,11.209 -4.806,11.193 -4.838,11.176 -4.869,11.159 -4.901,11.142 -4.932,11.125 -4.964,11.108 -4.995,11.09 -5.026,11.073 -5.057,11.055 -5.088,11.036 -5.119,11.018 -5.149,11 -5.179,10.981 -5.21,10.962 -5.24,10.943 -5.27,10.924 -5.3,10.905 l -0.03,-0.02 -0.03,-0.019 -0.029,-0.02 -0.03,-0.02 -0.029,-0.021 -0.029,-0.02 -0.03,-0.021 -0.029,-0.02 L -5.564,10.723 -5.593,10.702 -5.622,10.681 -5.65,10.659 -5.678,10.638 -5.707,10.616 -5.734,10.594 -5.762,10.572 -5.79,10.55 -5.818,10.527 -5.845,10.505 -5.873,10.482 -5.9,10.459 -5.927,10.436 -5.954,10.413 -5.981,10.39 -6.007,10.366 -6.034,10.342 -6.06,10.319 -6.086,10.295 -6.112,10.271 -6.138,10.246 -6.164,10.222 -6.19,10.197 -6.215,10.173 -6.24,10.148 -6.266,10.123 -6.291,10.097 -6.315,10.072 -6.34,10.047 -6.365,10.021 -6.389,9.995 -6.414,9.969 -6.438,9.943 -6.462,9.917 -6.486,9.891 -6.509,9.864 -6.533,9.838 -6.556,9.811 -6.579,9.784 -6.602,9.757 -6.625,9.729 -6.648,9.702 -6.67,9.675 -6.693,9.647 -6.715,9.619 -6.737,9.591 -6.759,9.563 -6.781,9.535 -6.802,9.507 -6.823,9.478 -6.845,9.45 -6.866,9.421 -6.887,9.392 -6.908,9.363 -6.928,9.334 -6.948,9.305 -6.969,9.276 -6.989,9.246 -7.008,9.217 -7.028,9.187 -7.048,9.157 -7.067,9.127 -7.086,9.097 -7.105,9.067 -7.124,9.036 -7.143,9.006 -7.161,8.975 -7.18,8.945 -7.198,8.914 -7.215,8.883 -7.233,8.852 -7.251,8.821 -7.268,8.789 -7.285,8.758 -7.302,8.726 -7.319,8.695 -7.336,8.663 -7.352,8.631 -7.369,8.599 -7.385,8.567 -7.4,8.535 -7.416,8.502 -7.432,8.47 -7.447,8.437 -7.462,8.405 -7.477,8.372 -7.492,8.339 -7.506,8.306 -7.521,8.273 -7.535,8.24 -7.549,8.206 -7.563,8.173 -7.576,8.139 -7.589,8.106 -7.603,8.072 -7.616,8.038 -7.628,8.004 -7.641,7.97 -7.653,7.936 -7.666,7.902 -7.678,7.868 -7.689,7.833 -7.701,7.799 -7.712,7.764 -7.723,7.73 -7.734,7.695 -7.745,7.66 -7.756,7.625 -7.766,7.59 -7.776,7.555 -7.786,7.52 -7.795,7.484 -7.805,7.449 -7.814,7.414 -7.823,7.378 -7.832,7.342 -7.841,7.307 -7.849,7.271 -7.857,7.235 -7.865,7.199 -7.873,7.163 -7.88,7.127 -7.888,7.09 -7.895,7.054 -7.901,7.018 -7.908,6.981 -7.915,6.945 -7.921,6.908 -7.927,6.872 -7.932,6.835 -7.938,6.798 -7.943,6.761 -7.948,6.724 -7.953,6.687 -7.958,6.65 -7.962,6.613 -7.966,6.576 -7.97,6.538 -7.974,6.501 -7.977,6.464 -7.981,6.426 -7.983,6.388 -7.986,6.351 -7.989,6.313 -7.991,6.276 -7.993,6.238 -7.995,6.2 -7.996,6.162 -7.998,6.124 -7.999,6.086 -8,6.048 V 6.01 5.972 L -8.001,5.933 -8,5.895 V 5.857 5.819 L -7.999,5.781 -7.998,5.743 -7.996,5.705 -7.995,5.667 -7.993,5.629 -7.991,5.591 -7.989,5.554 -7.986,5.516 -7.983,5.478 -7.981,5.441 -7.977,5.403 -7.974,5.366 -7.97,5.329 -7.966,5.291 -7.962,5.254 -7.958,5.217 -7.953,5.18 -7.948,5.143 -7.943,5.106 -7.938,5.069 -7.932,5.032 -7.927,4.995 -7.921,4.959 -7.915,4.922 -7.908,4.886 -7.901,4.849 -7.895,4.813 -7.888,4.776 -7.88,4.74 -7.873,4.704 -7.865,4.668 -7.857,4.632 -7.849,4.596 -7.841,4.56 -7.832,4.525 -7.823,4.489 -7.814,4.453 -7.805,4.418 -7.795,4.383 -7.786,4.347 -7.776,4.312 -7.766,4.277 -7.756,4.242 -7.745,4.207 -7.734,4.172 -7.723,4.137 -7.712,4.103 -7.701,4.068 -7.689,4.034 -7.678,3.999 -7.666,3.965 -7.653,3.931 -7.641,3.897 -7.628,3.862 -7.616,3.829 -7.603,3.795 -7.589,3.761 -7.576,3.728 -7.563,3.694 -7.549,3.661 -7.535,3.627 -7.521,3.594 -7.506,3.561 -7.492,3.528 -7.477,3.495 -7.462,3.462 -7.447,3.43 -7.432,3.397 -7.416,3.365 -7.4,3.332 -7.385,3.3 -7.369,3.268 -7.352,3.236 -7.336,3.204 -7.319,3.172 -7.302,3.141 -7.285,3.109 -7.268,3.078 -7.251,3.046 -7.233,3.015 -7.215,2.984 -7.198,2.953 -7.18,2.922 l 0.019,-0.03 0.018,-0.031 0.019,-0.03 0.019,-0.031 0.019,-0.03 0.019,-0.03 0.019,-0.03 0.02,-0.03 0.02,-0.03 0.019,-0.029 0.02,-0.03 0.021,-0.029 0.02,-0.029 0.02,-0.029 L -6.887,2.475 -6.866,2.446 -6.845,2.417 -6.823,2.389 -6.802,2.36 -6.781,2.332 -6.759,2.304 -6.737,2.276 -6.715,2.248 -6.693,2.22 -6.67,2.192 -6.648,2.165 -6.625,2.138 -6.602,2.11 -6.579,2.083 -6.556,2.056 -6.533,2.03 -6.509,2.003 -6.486,1.976 -6.462,1.95 -6.438,1.924 -6.414,1.898 -6.389,1.872 -6.365,1.846 -6.34,1.82 -6.315,1.795 -6.291,1.77 -6.266,1.744 -6.24,1.719 -6.215,1.695 -6.19,1.67 -6.164,1.645 -6.138,1.621 -6.112,1.596 -6.086,1.572 -6.06,1.548 -6.034,1.525 -6.007,1.501 -5.981,1.477 -5.954,1.454 -5.927,1.431 -5.9,1.408 -5.873,1.385 -5.845,1.362 -5.818,1.34 -5.79,1.317 -5.762,1.295 -5.734,1.273 -5.707,1.251 -5.678,1.229 -5.65,1.208 l 0.028,-0.021 0.029,-0.022 0.029,-0.021 0.028,-0.021 0.029,-0.02 0.03,-0.021 0.029,-0.02 0.029,-0.021 0.03,-0.02 0.029,-0.019 0.03,-0.02 0.03,-0.02 0.03,-0.019 0.03,-0.019 0.03,-0.019 0.031,-0.019 0.03,-0.019 0.03,-0.018 L -5.088,0.831 -5.057,0.812 -5.026,0.795 -4.995,0.777 -4.964,0.759 -4.932,0.742 -4.901,0.725 -4.869,0.708 -4.838,0.691 -4.806,0.674 -4.774,0.658 -4.742,0.641 -4.71,0.625 -4.678,0.609 -4.646,0.594 -4.613,0.578 -4.58,0.563 -4.548,0.548 -4.515,0.533 -4.482,0.518 -4.449,0.504 -4.416,0.489 -4.383,0.475 -4.35,0.461 -4.316,0.447 -4.282,0.434 -4.249,0.42 -4.215,0.407 -4.181,0.394 -4.148,0.381 -4.114,0.369 -4.079,0.357 -4.045,0.344 -4.011,0.332 -3.977,0.321 -3.942,0.309 -3.907,0.298 -3.873,0.287 -3.838,0.276 -3.803,0.265 -3.768,0.254 -3.733,0.244 -3.698,0.234 -3.663,0.224 -3.628,0.214 -3.592,0.205 -3.557,0.196 -3.521,0.187 -3.485,0.178 -3.45,0.169 -3.414,0.161 -3.378,0.153 -3.342,0.145 -3.306,0.137 -3.27,0.13 -3.234,0.122 -3.197,0.115 -3.161,0.108 -3.124,0.102 -3.088,0.095 -3.051,0.089 -3.015,0.083 -2.978,0.077 -2.941,0.072 -2.904,0.067 -2.867,0.062 -2.83,0.057 -2.793,0.052 -2.756,0.048 -2.719,0.044 -2.682,0.04 -2.644,0.036 -2.607,0.033 -2.569,0.029 -2.532,0.026 -2.494,0.024 -2.456,0.021 -2.419,0.019 -2.381,0.017 -2.343,0.015 -2.305,0.014 -2.267,0.012 -2.229,0.011 -2.191,0.01 h 0.019 V 0 Z"
             style="fill:#231f20;fill-opacity:1;fill-rule:nonzero;stroke:none"
             id="path100"
             inkscape:connector-curvature="0" />
        </g>
      </g>
    </g>
  </g>
</svg>
