<?xml version="1.0" encoding="UTF-8" standalone="no"?>
<!-- Created with Inkscape (http://www.inkscape.org/) -->

<svg
   xmlns:dc="http://purl.org/dc/elements/1.1/"
   xmlns:cc="http://creativecommons.org/ns#"
   xmlns:rdf="http://www.w3.org/1999/02/22-rdf-syntax-ns#"
   xmlns:svg="http://www.w3.org/2000/svg"
   xmlns="http://www.w3.org/2000/svg"
   xmlns:sodipodi="http://sodipodi.sourceforge.net/DTD/sodipodi-0.dtd"
   xmlns:inkscape="http://www.inkscape.org/namespaces/inkscape"
   width="62.921272mm"
   height="34.969944mm"
   viewBox="0 0 62.921272 34.969944"
   version="1.1"
   id="svg3084"
   inkscape:version="0.92.2 (unknown)"
   sodipodi:docname="agorakit-banner.svg">
  <defs
     id="defs3078" />
  <sodipodi:namedview
     id="base"
     pagecolor="#ffffff"
     bordercolor="#666666"
     borderopacity="1.0"
     inkscape:pageopacity="0.0"
     inkscape:pageshadow="2"
     inkscape:zoom="2.8"
     inkscape:cx="103.30495"
     inkscape:cy="63.100055"
     inkscape:document-units="mm"
     inkscape:current-layer="layer1"
     showgrid="false"
     fit-margin-top="0"
     fit-margin-left="0"
     fit-margin-right="0"
     fit-margin-bottom="0"
     inkscape:window-width="1920"
     inkscape:window-height="1027"
     inkscape:window-x="0"
     inkscape:window-y="0"
     inkscape:window-maximized="1" />
  <metadata
     id="metadata3081">
    <rdf:RDF>
      <cc:Work
         rdf:about="">
        <dc:format>image/svg+xml</dc:format>
        <dc:type
           rdf:resource="http://purl.org/dc/dcmitype/StillImage" />
        <dc:title></dc:title>
      </cc:Work>
    </rdf:RDF>
  </metadata>
  <g
     inkscape:label="Calque 1"
     inkscape:groupmode="layer"
     id="layer1"
     transform="translate(-70.592941,-71.62812)">
    <rect
       style="opacity:1;fill:#113341;fill-opacity:1;stroke:none;stroke-width:0.1632667;stroke-miterlimit:4;stroke-dasharray:none;stroke-dashoffset:0;stroke-opacity:1"
       id="rect907-7"
       width="65.094635"
       height="36.765331"
       x="69.553505"
       y="70.494194"
       inkscape:export-filename="/home/philippe/Sites/agorakit-website/agorakit-banner.png"
       inkscape:export-xdpi="565"
       inkscape:export-ydpi="565" />
    <path
       inkscape:connector-curvature="0"
       id="path22-6"
       style="fill:#ffffff;fill-opacity:1;fill-rule:nonzero;stroke:none;stroke-width:0.35277775"
       d="m 103.44253,88.247717 h -0.70556 c 0,-1.18392 -0.96308,-2.14736 -2.14701,-2.14736 -1.183919,0 -2.147349,0.96344 -2.147349,2.14736 h -0.70556 c 0,-1.57304 1.27988,-2.85291 2.852909,-2.85291 1.57304,0 2.85257,1.27987 2.85257,2.85291" />
    <path
       inkscape:connector-curvature="0"
       id="path26-9"
       style="fill:#ffffff;fill-opacity:1;fill-rule:evenodd;stroke:none;stroke-width:0.35277775"
       d="m 100.63032,82.249717 0.0406,3.5e-4 0.0406,3.4e-4 0.0402,0.001 0.0406,0.001 0.0402,10e-4 0.0402,0.002 0.0402,0.002 0.0402,0.002 0.0399,0.003 0.0402,0.003 0.0399,0.003 0.0399,0.003 0.0399,0.004 0.0395,0.003 0.0399,0.004 0.0395,0.004 0.0395,0.004 0.0395,0.005 0.0395,0.005 0.0392,0.005 0.0392,0.005 0.0395,0.006 0.0388,0.006 0.0392,0.006 0.0388,0.006 0.0392,0.006 0.0384,0.007 0.0388,0.007 0.0388,0.007 0.0385,0.007 0.0385,0.008 0.0385,0.008 0.0381,0.008 0.0385,0.008 0.0381,0.009 0.0378,0.009 0.0381,0.009 0.0378,0.01 0.0377,0.01 0.0378,0.01 0.0378,0.01 0.0374,0.0102 0.0374,0.0106 0.0374,0.0106 0.037,0.0109 0.0374,0.0113 0.0367,0.0113 0.037,0.0116 0.0367,0.012 0.037,0.012 0.0363,0.0124 0.0367,0.0123 0.0363,0.0127 0.0363,0.0131 0.0363,0.0131 0.036,0.0134 0.036,0.0134 0.036,0.0138 0.0356,0.0141 0.036,0.0141 0.0353,0.0145 0.0356,0.0145 0.0353,0.0148 0.0353,0.0152 0.0353,0.0152 0.0349,0.0155 0.0349,0.0155 0.0349,0.0159 0.0346,0.0162 0.0346,0.0162 0.0346,0.0166 0.0342,0.0166 0.0342,0.0169 0.0342,0.0169 0.0339,0.0173 0.0339,0.0176 0.0339,0.0176 0.0335,0.0176 0.0335,0.0183 0.0335,0.018 0.0332,0.0187 0.0332,0.0183 0.0328,0.019 0.0332,0.019 0.0325,0.0191 0.0328,0.0194 0.0324,0.0198 0.0325,0.0198 0.0321,0.0201 0.0321,0.0201 0.0321,0.0205 0.0317,0.0205 0.0318,0.0208 0.0314,0.0208 0.0314,0.0212 0.0314,0.0212 0.0314,0.0215 0.0307,0.0215 0.031,0.0219 0.0307,0.0222 0.0307,0.0219 0.0303,0.0226 0.0303,0.0226 0.0303,0.0226 0.03,0.0229 0.03,0.0229 0.0296,0.0233 0.0296,0.0236 0.0296,0.0236 0.0293,0.0236 0.0293,0.024 0.0289,0.024 0.0289,0.0243 0.0289,0.0243 0.0286,0.0247 0.0282,0.0247 0.0282,0.025 0.0282,0.0251 0.0279,0.0254 0.0279,0.0254 0.0279,0.0258 0.0275,0.0258 0.0272,0.0257 0.0275,0.0261 0.0268,0.0265 0.0272,0.0265 0.0265,0.0265 0.0268,0.0268 0.0265,0.0268 0.0261,0.0272 0.0261,0.0272 0.0261,0.0275 0.0257,0.0275 0.0254,0.0275 0.0254,0.0279 0.0254,0.0279 0.0251,0.0282 0.0251,0.0282 0.0247,0.0286 0.0247,0.0286 0.0247,0.0286 0.024,0.0289 0.0243,0.0293 0.024,0.0289 0.0236,0.0293 0.0236,0.0296 0.0233,0.0296 0.0233,0.0296 0.0233,0.03 0.0229,0.03 0.0226,0.0303 0.0226,0.0303 0.0222,0.0303 0.0222,0.0307 0.0222,0.0307 0.0215,0.031 0.0219,0.031 0.0215,0.031 0.0212,0.0314 0.0212,0.0314 0.0208,0.0314 0.0208,0.0318 0.0204,0.0321 0.0204,0.0317 0.0201,0.0321 0.0201,0.0325 0.0198,0.0321 0.0194,0.0325 0.0194,0.0328 0.0194,0.0328 0.019,0.0328 0.0187,0.0328 0.0187,0.0332 0.0187,0.0335 0.018,0.0332 0.0183,0.0335 0.0177,0.0339 0.0177,0.0335 0.0177,0.0339 0.0173,0.0339 0.0169,0.0342 0.0169,0.0342 0.0166,0.0342 0.0166,0.0346 0.0162,0.0346 0.0162,0.0346 0.0159,0.0349 0.0155,0.0349 0.0155,0.0349 0.0152,0.0353 0.0152,0.0353 0.0148,0.0353 0.0145,0.0356 0.0145,0.0356 0.0141,0.0356 0.0141,0.0356 0.0138,0.036 0.0134,0.036 0.0134,0.036 0.013,0.0363 0.013,0.0363 0.0127,0.0363 0.0124,0.0367 0.0124,0.0367 0.012,0.0367 0.012,0.0367 0.0116,0.037 0.0113,0.037 0.0113,0.037 0.0109,0.037 0.0106,0.0374 0.0106,0.0374 0.0102,0.0374 0.0102,0.0378 0.01,0.0378 0.01,0.0377 0.009,0.0378 0.009,0.0381 0.009,0.0378 0.009,0.0385 0.009,0.0381 0.008,0.0381 0.008,0.0385 0.008,0.0385 0.007,0.0385 0.007,0.0388 0.007,0.0388 0.007,0.0388 0.006,0.0388 0.006,0.0388 0.006,0.0392 0.006,0.0392 0.006,0.0392 0.005,0.0392 0.005,0.0392 0.005,0.0395 0.005,0.0395 0.004,0.0395 0.004,0.0395 0.004,0.0399 0.003,0.0395 0.004,0.0399 0.003,0.0399 0.003,0.0399 0.003,0.0402 0.002,0.0399 0.002,0.0402 0.002,0.0402 0.002,0.0402 0.001,0.0402 0.001,0.0406 10e-4,0.0406 2.7e-4,0.0402 7.9e-4,0.0406 v 0.0385 l -1.41111,0.004 v -0.0335 l -2.6e-4,-0.0317 -8e-4,-0.0317 -7.9e-4,-0.0314 -7.9e-4,-0.0314 -10e-4,-0.0314 -0.001,-0.0314 -0.001,-0.031 -0.002,-0.0314 -0.002,-0.031 -0.002,-0.031 -0.002,-0.031 -0.002,-0.031 -0.003,-0.031 -0.003,-0.0307 -0.003,-0.031 -0.003,-0.0307 -0.003,-0.0307 -0.004,-0.0307 -0.004,-0.0303 -0.004,-0.0307 -0.004,-0.0303 -0.005,-0.0303 -0.005,-0.0303 -0.005,-0.0303 -0.005,-0.03 -0.005,-0.0303 -0.005,-0.03 -0.006,-0.03 -0.006,-0.03 -0.006,-0.0296 -0.006,-0.03 -0.006,-0.0296 -0.006,-0.0296 -0.006,-0.0296 -0.007,-0.0296 -0.007,-0.0293 -0.007,-0.0296 -0.007,-0.0293 -0.007,-0.0293 -0.008,-0.0289 -0.008,-0.0293 -0.008,-0.0289 -0.008,-0.0289 -0.008,-0.0289 -0.009,-0.0289 -0.009,-0.0286 -0.009,-0.0286 -0.009,-0.0286 -0.009,-0.0286 -0.01,-0.0286 -0.009,-0.0282 -0.01,-0.0282 -0.01,-0.0282 -0.01,-0.0282 -0.0102,-0.0279 -0.0102,-0.0282 -0.0106,-0.0279 -0.0106,-0.0275 -0.0109,-0.0279 -0.0109,-0.0275 -0.0113,-0.0275 -0.0113,-0.0275 -0.0113,-0.0275 -0.0116,-0.0272 -0.012,-0.0272 -0.012,-0.0272 -0.012,-0.0272 -0.0124,-0.0268 -0.0124,-0.0272 -0.0127,-0.0265 -0.0127,-0.0268 -0.013,-0.0268 -0.013,-0.0265 -0.013,-0.0265 -0.0134,-0.0261 -0.0138,-0.0265 -0.0138,-0.0261 -0.0138,-0.0261 -0.0141,-0.0257 -0.0141,-0.0261 -0.0141,-0.0258 -0.0145,-0.0258 -0.0148,-0.0254 -0.0145,-0.0254 -0.0152,-0.0254 -0.0152,-0.0254 -0.0152,-0.0254 -0.0152,-0.0251 -0.0155,-0.0251 -0.0159,-0.0247 -0.0155,-0.0247 -0.0159,-0.0247 -0.0162,-0.0247 -0.0162,-0.0247 -0.0166,-0.0243 -0.0162,-0.0243 -0.0166,-0.024 -0.0169,-0.0243 -0.0169,-0.0236 -0.0173,-0.024 -0.0173,-0.024 -0.0173,-0.0236 -0.0173,-0.0233 -0.0177,-0.0236 -0.018,-0.0233 -0.018,-0.0233 -0.018,-0.0229 -0.018,-0.0233 -0.0183,-0.0226 -0.0187,-0.0229 -0.0183,-0.0226 -0.0187,-0.0226 -0.019,-0.0226 -0.019,-0.0222 -0.019,-0.0222 -0.019,-0.0222 -0.0194,-0.0219 -0.0198,-0.0219 -0.0194,-0.0219 -0.0198,-0.0215 -0.0201,-0.0215 -0.0201,-0.0212 -0.0201,-0.0215 -0.0201,-0.0212 -0.0204,-0.0208 -0.0204,-0.0208 -0.0208,-0.0208 -0.0208,-0.0208 -0.0208,-0.0205 -0.0212,-0.0205 -0.0212,-0.0201 -0.0212,-0.0205 -0.0212,-0.0198 -0.0219,-0.0201 -0.0215,-0.0198 -0.0215,-0.0194 -0.0219,-0.0198 -0.0222,-0.0194 -0.0219,-0.019 -0.0222,-0.0194 -0.0222,-0.0187 -0.0226,-0.019 -0.0226,-0.0187 -0.0226,-0.0187 -0.0229,-0.0183 -0.0229,-0.0183 -0.0229,-0.018 -0.0233,-0.0183 -0.0229,-0.0176 -0.0236,-0.018 -0.0233,-0.0176 -0.0236,-0.0173 -0.0236,-0.0176 -0.0236,-0.0169 -0.024,-0.0173 -0.024,-0.0169 -0.024,-0.0169 -0.0243,-0.0166 -0.0243,-0.0166 -0.0243,-0.0162 -0.0243,-0.0162 -0.0247,-0.0162 -0.0247,-0.0159 -0.0247,-0.0159 -0.0251,-0.0155 -0.0251,-0.0155 -0.0251,-0.0152 -0.0251,-0.0155 -0.0254,-0.0148 -0.0254,-0.0152 -0.0254,-0.0145 -0.0257,-0.0148 -0.0257,-0.0145 -0.0257,-0.0141 -0.0257,-0.0141 -0.0261,-0.0141 -0.0261,-0.0138 -0.0261,-0.0138 -0.0261,-0.0138 -0.0265,-0.0134 -0.0265,-0.013 -0.0265,-0.0131 -0.0265,-0.013 -0.0268,-0.0127 -0.0268,-0.0127 -0.0268,-0.0123 -0.0272,-0.0124 -0.0268,-0.012 -0.0272,-0.012 -0.0272,-0.012 -0.0275,-0.0116 -0.0272,-0.0113 -0.0275,-0.0113 -0.0275,-0.0113 -0.0279,-0.0109 -0.0275,-0.0109 -0.0279,-0.0106 -0.0279,-0.0106 -0.0279,-0.0102 -0.0282,-0.0102 -0.0282,-0.01 -0.0282,-0.01 -0.0282,-0.01 -0.0282,-0.01 -0.0286,-0.009 -0.0282,-0.009 -0.0286,-0.009 -0.0289,-0.009 -0.0286,-0.009 -0.0289,-0.008 -0.0289,-0.008 -0.0289,-0.008 -0.0289,-0.008 -0.0293,-0.008 -0.0289,-0.007 -0.0293,-0.007 -0.0293,-0.007 -0.0293,-0.007 -0.0296,-0.007 -0.0296,-0.007 -0.0293,-0.006 -0.03,-0.006 -0.0296,-0.006 -0.0296,-0.006 -0.03,-0.006 -0.03,-0.006 -0.03,-0.006 -0.03,-0.005 -0.03,-0.005 -0.0303,-0.005 -0.0303,-0.005 -0.0303,-0.005 -0.0303,-0.004 -0.0303,-0.004 -0.0307,-0.004 -0.0303,-0.003 -0.0307,-0.004 -0.0307,-0.003 -0.0307,-0.003 -0.0307,-0.003 -0.031,-0.003 -0.031,-0.002 -0.0307,-0.002 -0.031,-0.002 -0.0314,-0.002 -0.031,-0.002 -0.0314,-0.002 -0.031,-0.001 -0.0314,-10e-4 -0.0314,-0.001 -0.0314,-7.1e-4 -0.0314,-7.2e-4 -0.0317,-7.1e-4 h -0.0314 l -0.0317,-3.5e-4 -0.0317,3.5e-4 h -0.0314 l -0.0317,7.1e-4 -0.0314,7.2e-4 -0.0314,7.1e-4 -0.0314,0.001 -0.0314,10e-4 -0.0314,0.001 -0.031,0.002 -0.031,0.002 -0.031,0.002 -0.0314,0.002 -0.0307,0.002 -0.0311,0.002 -0.031,0.003 -0.0307,0.003 -0.0307,0.003 -0.0307,0.003 -0.0307,0.004 -0.0303,0.003 -0.0307,0.004 -0.0303,0.004 -0.0303,0.004 -0.0303,0.005 -0.0303,0.005 -0.03,0.005 -0.0303,0.005 -0.03,0.005 -0.03,0.006 -0.03,0.006 -0.0296,0.006 -0.03,0.006 -0.0296,0.006 -0.0296,0.006 -0.0296,0.006 -0.0296,0.007 -0.0293,0.007 -0.0296,0.007 -0.0293,0.007 -0.0293,0.007 -0.0289,0.007 -0.0293,0.008 -0.0289,0.008 -0.0289,0.008 -0.0289,0.008 -0.0289,0.008 -0.0286,0.009 -0.0286,0.009 -0.0286,0.009 -0.0286,0.009 -0.0286,0.009 -0.0282,0.01 -0.0282,0.01 -0.0282,0.01 -0.0282,0.01 -0.0279,0.0102 -0.0282,0.0102 -0.0275,0.0106 -0.0279,0.0106 -0.0279,0.0109 -0.0275,0.0109 -0.0275,0.0113 -0.0275,0.0113 -0.0275,0.0113 -0.0272,0.0116 -0.0272,0.012 -0.0272,0.012 -0.0272,0.012 -0.0268,0.0124 -0.0272,0.0123 -0.0265,0.0127 -0.0268,0.0127 -0.0265,0.013 -0.0268,0.0131 -0.0265,0.013 -0.0261,0.0134 -0.0265,0.0138 -0.0261,0.0138 -0.0261,0.0138 -0.0257,0.0138 -0.0261,0.0145 -0.0257,0.0141 -0.0254,0.0145 -0.0257,0.0148 -0.0254,0.0145 -0.0254,0.0152 -0.0254,0.0148 -0.0251,0.0155 -0.0254,0.0152 -0.0247,0.0155 -0.0251,0.0155 -0.0247,0.0159 -0.0247,0.0159 -0.0247,0.0162 -0.0247,0.0162 -0.0243,0.0162 -0.0243,0.0166 -0.024,0.0166 -0.024,0.0169 -0.024,0.0169 -0.024,0.0169 -0.024,0.0173 -0.0236,0.0176 -0.0233,0.0173 -0.0236,0.0176 -0.0233,0.018 -0.0233,0.0176 -0.0229,0.0183 -0.0229,0.018 -0.0229,0.0183 -0.0229,0.0183 -0.0226,0.0187 -0.0226,0.0187 -0.0226,0.019 -0.0222,0.0187 -0.0222,0.0194 -0.0222,0.019 -0.0219,0.0194 -0.0219,0.0194 -0.0219,0.0198 -0.0215,0.0198 -0.0215,0.0201 -0.0212,0.0198 -0.0215,0.0205 -0.0212,0.0201 -0.0208,0.0205 -0.0208,0.0205 -0.0208,0.0208 -0.0208,0.0205 -0.0204,0.0212 -0.0204,0.0208 -0.0201,0.0212 -0.0205,0.0215 -0.0198,0.0212 -0.0201,0.0215 -0.0198,0.0215 -0.0194,0.0219 -0.0198,0.0219 -0.0194,0.0219 -0.019,0.0222 -0.0194,0.0222 -0.0187,0.0222 -0.019,0.0226 -0.0187,0.0226 -0.0187,0.0226 -0.0183,0.0229 -0.0183,0.0226 -0.0183,0.0233 -0.018,0.0229 -0.0176,0.0233 -0.018,0.0233 -0.0176,0.0236 -0.0176,0.0233 -0.0173,0.0236 -0.0173,0.024 -0.0169,0.0236 -0.0169,0.024 -0.0169,0.0243 -0.0166,0.024 -0.0166,0.0243 -0.0162,0.0243 -0.0162,0.0247 -0.0162,0.0247 -0.0159,0.0247 -0.0159,0.0247 -0.0155,0.0247 -0.0155,0.025 -0.0155,0.0251 -0.0152,0.0254 -0.0148,0.0254 -0.0152,0.0254 -0.0148,0.0254 -0.0145,0.0254 -0.0145,0.0258 -0.0145,0.0257 -0.0141,0.0261 -0.0138,0.0258 -0.0141,0.0261 -0.0134,0.0261 -0.0138,0.0265 -0.0134,0.0261 -0.0131,0.0265 -0.013,0.0265 -0.0131,0.0268 -0.0127,0.0268 -0.0127,0.0265 -0.0124,0.0272 -0.0123,0.0268 -0.012,0.0272 -0.012,0.0272 -0.012,0.0272 -0.0116,0.0272 -0.0113,0.0275 -0.0113,0.0275 -0.0113,0.0275 -0.0109,0.0275 -0.0109,0.0279 -0.0106,0.0275 -0.0106,0.0279 -0.0102,0.0282 -0.0102,0.0279 -0.01,0.0282 -0.01,0.0282 -0.01,0.0282 -0.01,0.0282 -0.009,0.0286 -0.009,0.0286 -0.009,0.0286 -0.009,0.0286 -0.008,0.0286 -0.009,0.0289 -0.008,0.0289 -0.009,0.0289 -0.008,0.0289 -0.008,0.0293 -0.008,0.0289 -0.007,0.0293 -0.007,0.0293 -0.007,0.0296 -0.007,0.0293 -0.007,0.0296 -0.007,0.0296 -0.006,0.0296 -0.006,0.0296 -0.006,0.03 -0.006,0.0296 -0.005,0.03 -0.006,0.03 -0.005,0.03 -0.005,0.0303 -0.005,0.03 -0.005,0.0303 -0.004,0.0303 -0.005,0.0303 -0.004,0.0303 -0.004,0.0307 -0.004,0.0303 -0.004,0.0307 -0.003,0.0307 -0.003,0.0307 -0.003,0.031 -0.003,0.0307 -0.003,0.031 -0.002,0.031 -0.002,0.031 -0.002,0.031 -0.002,0.031 -0.002,0.0314 -0.001,0.031 -10e-4,0.0314 -0.001,0.0314 -0.001,0.0314 -3.5e-4,0.0314 -7.1e-4,0.0317 -3.5e-4,0.0314 v 0.0342 l -1.41111,-0.005 v -0.0385 l 3.5e-4,-0.0406 7.1e-4,-0.0406 10e-4,-0.0402 0.001,-0.0406 0.001,-0.0402 0.002,-0.0402 0.002,-0.0402 0.002,-0.0402 0.002,-0.0399 0.003,-0.0402 0.003,-0.0399 0.003,-0.0399 0.003,-0.0399 0.004,-0.0395 0.004,-0.0399 0.004,-0.0395 0.004,-0.0395 0.005,-0.0395 0.005,-0.0395 0.005,-0.0392 0.005,-0.0392 0.006,-0.0392 0.006,-0.0392 0.006,-0.0392 0.006,-0.0388 0.006,-0.0388 0.007,-0.0388 0.007,-0.0388 0.007,-0.0388 0.007,-0.0385 0.008,-0.0384 0.008,-0.0385 0.008,-0.0381 0.009,-0.0381 0.009,-0.0384 0.009,-0.0378 0.009,-0.0381 0.009,-0.0378 0.01,-0.0378 0.01,-0.0378 0.0102,-0.0377 0.0102,-0.0374 0.0106,-0.0374 0.0106,-0.0374 0.0109,-0.037 0.0113,-0.037 0.0113,-0.037 0.0116,-0.037 0.0116,-0.0367 0.0124,-0.0367 0.012,-0.0367 0.0127,-0.0367 0.0127,-0.0363 0.0127,-0.0363 0.0134,-0.0363 0.0131,-0.036 0.0138,-0.036 0.0138,-0.036 0.0141,-0.0356 0.0141,-0.0356 0.0145,-0.0356 0.0145,-0.0356 0.0148,-0.0353 0.0152,-0.0353 0.0152,-0.0353 0.0155,-0.0349 0.0155,-0.0349 0.0159,-0.0349 0.0162,-0.0346 0.0162,-0.0346 0.0166,-0.0346 0.0166,-0.0342 0.0169,-0.0342 0.0169,-0.0342 0.0173,-0.0339 0.0173,-0.0339 0.018,-0.0335 0.0176,-0.0339 0.0183,-0.0335 0.018,-0.0332 0.0187,-0.0335 0.0187,-0.0332 0.0187,-0.0328 0.019,-0.0328 0.019,-0.0328 0.0194,-0.0328 0.0198,-0.0325 0.0198,-0.0321 0.0201,-0.0325 0.0201,-0.0321 0.0205,-0.0317 0.0205,-0.0321 0.0208,-0.0317 0.0208,-0.0314 0.0212,-0.0314 0.0212,-0.0314 0.0215,-0.031 0.0215,-0.031 0.0219,-0.031 0.0222,-0.0307 0.0222,-0.0307 0.0222,-0.0303 0.0226,-0.0303 0.0226,-0.0303 0.0229,-0.03 0.0233,-0.03 0.0229,-0.0296 0.0236,-0.0296 0.0236,-0.0296 0.0236,-0.0293 0.024,-0.0289 0.024,-0.0293 0.0243,-0.0289 0.0243,-0.0286 0.0247,-0.0286 0.0247,-0.0286 0.0251,-0.0282 0.0254,-0.0282 0.0251,-0.0279 0.0254,-0.0279 0.0258,-0.0275 0.0257,-0.0275 0.0261,-0.0275 0.0261,-0.0272 0.0261,-0.0272 0.0265,-0.0268 0.0265,-0.0268 0.0268,-0.0265 0.0268,-0.0265 0.0272,-0.0265 0.0272,-0.0261 0.0275,-0.0258 0.0275,-0.0257 0.0275,-0.0258 0.0279,-0.0254 0.0279,-0.0254 0.0282,-0.0251 0.0282,-0.0251 0.0286,-0.0247 0.0286,-0.0247 0.0289,-0.0243 0.0286,-0.0243 0.0293,-0.024 0.0293,-0.024 0.0293,-0.0236 0.0293,-0.0236 0.0296,-0.0236 0.03,-0.0229 0.0296,-0.0233 0.0303,-0.0229 0.03,-0.0226 0.0303,-0.0226 0.0307,-0.0226 0.0303,-0.0219 0.031,-0.0222 0.0307,-0.0219 0.031,-0.0215 0.031,-0.0215 0.0314,-0.0212 0.0314,-0.0212 0.0318,-0.0208 0.0317,-0.0208 0.0317,-0.0205 0.0321,-0.0205 0.0317,-0.0201 0.0325,-0.0201 0.0325,-0.0198 0.0325,-0.0198 0.0325,-0.0194 0.0328,-0.019 0.0328,-0.0191 0.0332,-0.0187 0.0332,-0.0187 0.0332,-0.0187 0.0332,-0.018 0.0335,-0.0183 0.0339,-0.0176 0.0335,-0.0176 0.0339,-0.0176 0.0342,-0.0173 0.0339,-0.0169 0.0342,-0.0169 0.0346,-0.0166 0.0342,-0.0166 0.0346,-0.0162 0.0349,-0.0162 0.0346,-0.0159 0.0349,-0.0155 0.0349,-0.0155 0.0353,-0.0152 0.0353,-0.0152 0.0353,-0.0148 0.0356,-0.0145 0.0356,-0.0145 0.0356,-0.0141 0.0356,-0.0141 0.036,-0.0138 0.036,-0.0134 0.0363,-0.0134 0.036,-0.013 0.0363,-0.0131 0.0363,-0.0127 0.0367,-0.0123 0.0367,-0.0124 0.0367,-0.012 0.0367,-0.012 0.037,-0.0116 0.037,-0.0113 0.037,-0.0113 0.037,-0.0109 0.0374,-0.0106 0.0374,-0.0106 0.0374,-0.0102 0.0378,-0.01 0.0378,-0.01 0.0377,-0.01 0.0378,-0.009 0.0381,-0.009 0.0378,-0.009 0.0385,-0.009 0.0381,-0.008 0.0381,-0.008 0.0385,-0.008 0.0385,-0.008 0.0385,-0.007 0.0388,-0.007 0.0388,-0.007 0.0388,-0.007 0.0388,-0.006 0.0388,-0.006 0.0392,-0.006 0.0392,-0.006 0.0392,-0.006 0.0392,-0.005 0.0392,-0.005 0.0395,-0.005 0.0395,-0.005 0.0395,-0.004 0.0395,-0.004 0.0395,-0.004 0.0399,-0.003 0.0399,-0.004 0.0399,-0.003 0.0399,-0.003 0.0402,-0.003 0.0399,-0.002 0.0402,-0.002 0.0402,-0.002 0.0402,-0.002 0.0402,-10e-4 0.0406,-0.001 0.0402,-0.001 0.0406,-3.4e-4 0.0406,-3.5e-4 0.0406,-3.4e-4 z" />
    <path
       inkscape:connector-curvature="0"
       id="path30-2"
       style="fill:#ffffff;fill-opacity:1;fill-rule:nonzero;stroke:none;stroke-width:0.35277775"
       d="m 101.04092,87.894867 c 0,0.27305 -0.22119,0.49424 -0.49424,0.49424 -0.2727,0 -0.49424,-0.22119 -0.49424,-0.49424 0,-0.27305 0.22154,-0.49424 0.49424,-0.49424 0.27305,0 0.49424,0.22119 0.49424,0.49424" />
    <path
       inkscape:connector-curvature="0"
       id="path34-0"
       style="fill:#ffffff;fill-opacity:1;fill-rule:nonzero;stroke:none;stroke-width:0.35277775"
       d="m 95.142271,84.262317 c 0,0.27305 -0.2212,0.49424 -0.49425,0.49424 -0.27269,0 -0.49424,-0.22119 -0.49424,-0.49424 0,-0.27305 0.22155,-0.49424 0.49424,-0.49424 0.27305,0 0.49425,0.22119 0.49425,0.49424" />
    <path
       inkscape:connector-curvature="0"
       id="path38-3"
       style="fill:#ffffff;fill-opacity:1;fill-rule:nonzero;stroke:none;stroke-width:0.35277775"
       d="m 97.148091,82.259947 c 0,0.27305 -0.22119,0.49425 -0.49424,0.49425 -0.2727,0 -0.49424,-0.2212 -0.49424,-0.49425 0,-0.27305 0.22154,-0.49424 0.49424,-0.49424 0.27305,0 0.49424,0.22119 0.49424,0.49424" />
    <path
       inkscape:connector-curvature="0"
       id="path42-0"
       style="fill:#ffffff;fill-opacity:1;fill-rule:nonzero;stroke:none;stroke-width:0.35277775"
       d="m 101.07454,81.035427 c 0,0.26775 -0.21696,0.48471 -0.48472,0.48471 -0.26775,0 -0.48471,-0.21696 -0.48471,-0.48471 0,-0.26776 0.21696,-0.48472 0.48471,-0.48472 0.26776,0 0.48472,0.21696 0.48472,0.48472" />
    <path
       inkscape:connector-curvature="0"
       id="path46-2"
       style="fill:#ffffff;fill-opacity:1;fill-rule:nonzero;stroke:none;stroke-width:0.35277775"
       d="m 107.76003,85.109337 c 0,0.26776 -0.21696,0.48472 -0.48471,0.48472 -0.26776,0 -0.48472,-0.21696 -0.48472,-0.48472 0,-0.26776 0.21696,-0.48472 0.48472,-0.48472 0.26775,0 0.48471,0.21696 0.48471,0.48472" />
    <path
       inkscape:connector-curvature="0"
       id="path50-1"
       style="fill:#ffffff;fill-opacity:1;fill-rule:nonzero;stroke:none;stroke-width:0.35277775"
       d="m 104.5923,86.503477 c 0,0.26776 -0.21696,0.48472 -0.48472,0.48472 -0.26775,0 -0.48471,-0.21696 -0.48471,-0.48472 0,-0.26776 0.21696,-0.48471 0.48471,-0.48471 0.26776,0 0.48472,0.21695 0.48472,0.48471" />
    <path
       inkscape:connector-curvature="0"
       id="path54-7"
       style="fill:#ffffff;fill-opacity:1;fill-rule:nonzero;stroke:none;stroke-width:0.35277775"
       d="m 97.670971,86.503477 c 0,0.27305 -0.22119,0.49424 -0.49424,0.49424 -0.27269,0 -0.49424,-0.22119 -0.49424,-0.49424 0,-0.27305 0.22155,-0.49424 0.49424,-0.49424 0.27305,0 0.49424,0.22119 0.49424,0.49424" />
    <path
       inkscape:connector-curvature="0"
       id="path58-2"
       style="fill:#ffffff;fill-opacity:1;fill-rule:nonzero;stroke:none;stroke-width:0.35277775"
       d="m 99.097361,85.109337 c 0,0.26776 -0.21696,0.48472 -0.48471,0.48472 -0.26776,0 -0.48472,-0.21696 -0.48472,-0.48472 0,-0.26776 0.21696,-0.48472 0.48472,-0.48472 0.26775,0 0.48471,0.21696 0.48471,0.48472" />
    <path
       inkscape:connector-curvature="0"
       id="path62-2"
       style="fill:#ffffff;fill-opacity:1;fill-rule:nonzero;stroke:none;stroke-width:0.35277775"
       d="m 101.07454,84.472577 c 0,0.26775 -0.21696,0.48471 -0.48472,0.48471 -0.26775,0 -0.48471,-0.21696 -0.48471,-0.48471 0,-0.26776 0.21696,-0.48472 0.48471,-0.48472 0.26776,0 0.48472,0.21696 0.48472,0.48472" />
    <path
       inkscape:connector-curvature="0"
       id="path66-7"
       style="fill:#ffffff;fill-opacity:1;fill-rule:nonzero;stroke:none;stroke-width:0.35277775"
       d="m 103.08985,85.109337 c 0,0.26776 -0.21696,0.48472 -0.48471,0.48472 -0.26776,0 -0.48472,-0.21696 -0.48472,-0.48472 0,-0.26776 0.21696,-0.48472 0.48472,-0.48472 0.26775,0 0.48471,0.21696 0.48471,0.48472" />
    <path
       inkscape:connector-curvature="0"
       id="path70-9"
       style="fill:#ffffff;fill-opacity:1;fill-rule:nonzero;stroke:none;stroke-width:0.35277775"
       d="m 106.04638,82.259947 c 0,0.26776 -0.21696,0.48472 -0.48472,0.48472 -0.26776,0 -0.48471,-0.21696 -0.48471,-0.48472 0,-0.26775 0.21695,-0.48471 0.48471,-0.48471 0.26776,0 0.48472,0.21696 0.48472,0.48471" />
    <path
       inkscape:connector-curvature="0"
       id="path74-2"
       style="fill:#ffffff;fill-opacity:1;fill-rule:nonzero;stroke:none;stroke-width:0.35277775"
       d="m 111.21143,95.336437 -0.0102,0.0335 c -0.0138,0.0113 -0.0639,0.0307 -0.15134,0.0586 l -0.0406,-0.0166 c -0.98954,-0.75989 -1.86478,-1.49684 -2.62537,-2.21227 v -0.0247 l 2.03976,-1.60091 0.35348,-0.30974 h 0.29281 l -2.42358,1.91876 c 0.79445,0.75424 1.64923,1.47179 2.56504,2.15336 m -3.26178,-4.07212 h 0.20179 v 4.1141 h -0.20179 z" />
    <path
       d="m 112.56416,91.264247 h 0.20179 v 4.1141 h -0.20179 z"
       style="fill:#ffffff;fill-opacity:1;fill-rule:nonzero;stroke:none;stroke-width:0.35277775"
       id="path76-8"
       inkscape:connector-curvature="0" />
    <path
       inkscape:connector-curvature="0"
       id="path80-7"
       style="fill:#ffffff;fill-opacity:1;fill-rule:nonzero;stroke:none;stroke-width:0.35277775"
       d="m 117.34783,91.388397 -0.8382,-0.008 h -0.7673 v 3.95463 h -0.20214 v -3.95463 h -0.74718 l -0.86854,0.008 -0.0303,-0.0339 0.0303,-0.13371 h 3.43359 l 0.0201,0.0332 z" />
    <path
       inkscape:connector-curvature="0"
       id="path84-6"
       style="fill:#ffffff;fill-opacity:1;fill-rule:nonzero;stroke:none;stroke-width:0.35277775"
       d="m 97.945081,93.327227 v 0.0106 l -2.6e-4,0.0106 v 0.0102 l -2.7e-4,0.0106 -2.6e-4,0.0102 -2.7e-4,0.0106 -7.9e-4,0.0102 -2.6e-4,0.0106 -8e-4,0.0102 -7.9e-4,0.0102 -7.9e-4,0.0106 -0.001,0.0102 -8e-4,0.0102 -10e-4,0.0102 -0.001,0.0102 -0.001,0.0102 -10e-4,0.0102 -0.001,0.0102 -0.001,0.01 -10e-4,0.0102 -0.001,0.0102 -0.001,0.01 -10e-4,0.0102 -0.001,0.01 -0.002,0.0102 -0.001,0.01 -0.002,0.0102 -0.002,0.01 -0.002,0.01 -0.002,0.01 -0.002,0.01 -0.002,0.01 -0.002,0.01 -0.002,0.01 -0.002,0.01 -0.002,0.01 -0.002,0.01 -0.002,0.01 -0.002,0.01 -0.002,0.01 -0.003,0.01 -0.002,0.01 -0.003,0.01 -0.003,0.01 -0.003,0.01 -0.003,0.01 -0.003,0.009 -0.003,0.01 -0.003,0.01 -0.003,0.01 -0.003,0.009 -0.003,0.01 -0.003,0.01 -0.004,0.009 -0.003,0.009 -0.003,0.01 -0.004,0.009 -0.003,0.009 -0.004,0.009 -0.004,0.009 -0.003,0.009 -0.004,0.009 -0.003,0.009 -0.004,0.009 -0.004,0.009 -0.004,0.009 -0.004,0.009 -0.004,0.009 -0.004,0.009 -0.004,0.009 -0.004,0.009 -0.005,0.009 -0.004,0.009 -0.004,0.009 -0.005,0.009 -0.005,0.009 -0.005,0.008 -0.005,0.009 -0.005,0.009 -0.005,0.009 -0.005,0.008 -0.005,0.009 -0.005,0.008 -0.005,0.009 -0.005,0.008 -0.005,0.009 -0.005,0.008 -0.005,0.008 -0.005,0.009 -0.005,0.008 -0.005,0.008 -0.005,0.008 -0.005,0.008 -0.006,0.008 -0.005,0.008 -0.006,0.008 -0.005,0.008 -0.006,0.008 -0.006,0.008 -0.006,0.008 -0.006,0.008 -0.006,0.008 -0.006,0.008 -0.006,0.008 -0.006,0.008 -0.006,0.007 -0.006,0.008 -0.006,0.008 -0.006,0.007 -0.006,0.008 -0.006,0.007 -0.006,0.007 -0.006,0.008 -0.006,0.007 -0.006,0.007 -0.006,0.007 -0.006,0.007 -0.007,0.007 -0.006,0.007 -0.007,0.007 -0.007,0.007 -0.006,0.007 -0.007,0.007 -0.007,0.007 -0.007,0.007 -0.007,0.007 -0.007,0.007 -0.007,0.007 -0.007,0.007 -0.007,0.007 -0.007,0.007 -0.007,0.007 -0.007,0.007 -0.007,0.007 -0.007,0.006 -0.007,0.007 -0.007,0.006 -0.007,0.006 -0.007,0.006 -0.007,0.007 -0.007,0.006 -0.007,0.006 -0.007,0.006 -0.008,0.006 -0.007,0.006 -0.007,0.006 -0.008,0.006 -0.008,0.006 -0.008,0.006 -0.008,0.006 -0.008,0.006 -0.008,0.006 -0.008,0.006 -0.008,0.006 -0.008,0.006 -0.008,0.006 -0.008,0.006 -0.008,0.006 -0.008,0.005 -0.008,0.006 -0.008,0.005 -0.008,0.005 -0.008,0.005 -0.008,0.005 -0.008,0.005 -0.008,0.005 -0.008,0.005 -0.008,0.005 -0.009,0.005 -0.008,0.005 -0.009,0.005 -0.009,0.005 -0.008,0.005 -0.009,0.005 -0.008,0.005 -0.009,0.005 -0.009,0.005 -0.009,0.005 -0.008,0.004 -0.009,0.005 -0.009,0.005 -0.009,0.004 -0.009,0.004 -0.009,0.004 -0.009,0.004 -0.009,0.004 -0.009,0.004 -0.009,0.004 -0.009,0.004 -0.009,0.004 -0.009,0.004 -0.009,0.004 -0.009,0.003 -0.009,0.004 -0.009,0.003 -0.009,0.004 -0.009,0.004 -0.01,0.003 -0.009,0.003 -0.009,0.004 -0.01,0.003 -0.009,0.003 -0.01,0.004 -0.01,0.003 -0.01,0.003 -0.009,0.003 -0.01,0.003 -0.01,0.003 -0.01,0.003 -0.01,0.003 -0.01,0.003 -0.01,0.002 -0.01,0.003 -0.01,0.002 -0.01,0.002 -0.01,0.002 -0.01,0.002 -0.01,0.002 -0.01,0.002 -0.01,0.002 -0.01,0.002 -0.01,0.002 -0.01,0.002 -0.01,0.002 -0.01,0.002 -0.0102,0.002 -0.01,0.002 -0.01,0.002 -0.0102,0.002 -0.01,0.001 -0.01,0.002 -0.0102,0.001 -0.0102,0.001 -0.01,10e-4 -0.0102,0.001 -0.0102,0.001 -0.0102,10e-4 -0.01,0.001 -0.0102,0.001 -0.0106,10e-4 -0.01,0.001 -0.0106,7.1e-4 -0.0102,7.2e-4 -0.0102,0.001 -0.0102,7.1e-4 -0.0106,3.4e-4 -0.0102,7.2e-4 -0.0102,3.4e-4 -0.0106,3.5e-4 -0.0106,7.1e-4 h -0.0102 l -0.006,3.4e-4 v -10e-4 h -0.0113 -0.0102 -0.0106 l -0.0106,-3.4e-4 -0.0102,-3.4e-4 -0.0106,-3.5e-4 -0.0106,-3.4e-4 -0.0102,-7.2e-4 -0.0102,-3.4e-4 -0.0106,-7.1e-4 -0.0102,-7.2e-4 -0.0102,-7.1e-4 -0.0102,-7.2e-4 -0.0102,-0.001 -0.0102,-7.1e-4 -0.0106,-0.001 -0.0102,-10e-4 -0.01,-0.001 -0.0102,-0.001 -0.0102,-10e-4 -0.0102,-0.001 -0.01,-0.001 -0.0102,-10e-4 -0.0102,-0.002 -0.01,-10e-4 -0.01,-0.002 -0.0102,-10e-4 -0.01,-0.002 -0.01,-0.002 -0.0102,-0.002 -0.01,-0.002 -0.01,-0.002 -0.01,-0.002 -0.01,-0.002 -0.01,-0.002 -0.009,-0.002 -0.01,-0.002 -0.01,-0.002 -0.01,-0.002 -0.01,-0.002 -0.01,-0.002 -0.01,-0.003 -0.01,-0.002 -0.01,-0.003 -0.01,-0.003 -0.01,-0.003 -0.01,-0.003 -0.01,-0.003 -0.01,-0.003 -0.009,-0.003 -0.01,-0.003 -0.01,-0.003 -0.01,-0.003 -0.009,-0.003 -0.01,-0.003 -0.009,-0.003 -0.009,-0.004 -0.01,-0.003 -0.009,-0.004 -0.009,-0.003 -0.009,-0.004 -0.009,-0.004 -0.009,-0.004 -0.009,-0.003 -0.009,-0.004 -0.009,-0.004 -0.009,-0.004 -0.009,-0.004 -0.009,-0.004 -0.009,-0.004 -0.009,-0.004 -0.009,-0.004 -0.009,-0.005 -0.009,-0.004 -0.009,-0.004 -0.008,-0.005 -0.009,-0.005 -0.009,-0.005 -0.009,-0.005 -0.008,-0.005 -0.009,-0.005 -0.009,-0.005 -0.008,-0.005 -0.009,-0.005 -0.008,-0.005 -0.009,-0.005 -0.008,-0.005 -0.008,-0.005 -0.009,-0.005 -0.008,-0.005 -0.008,-0.005 -0.008,-0.005 -0.008,-0.005 -0.009,-0.005 -0.008,-0.006 -0.008,-0.005 -0.008,-0.006 -0.008,-0.005 -0.008,-0.006 -0.008,-0.006 -0.008,-0.006 -0.008,-0.006 -0.008,-0.006 -0.008,-0.006 -0.008,-0.006 -0.008,-0.006 -0.008,-0.006 -0.008,-0.006 -0.008,-0.006 -0.007,-0.006 -0.007,-0.006 -0.008,-0.006 -0.007,-0.006 -0.007,-0.006 -0.007,-0.006 -0.007,-0.006 -0.007,-0.006 -0.007,-0.006 -0.007,-0.007 -0.007,-0.006 -0.007,-0.007 -0.007,-0.007 -0.007,-0.006 -0.007,-0.007 -0.007,-0.007 -0.007,-0.007 -0.007,-0.007 -0.007,-0.007 -0.007,-0.007 -0.007,-0.007 -0.007,-0.007 -0.007,-0.007 -0.007,-0.007 -0.006,-0.007 -0.007,-0.007 -0.007,-0.007 -0.006,-0.007 -0.007,-0.007 -0.006,-0.007 -0.006,-0.007 -0.006,-0.007 -0.006,-0.007 -0.006,-0.007 -0.006,-0.007 -0.006,-0.007 -0.006,-0.008 -0.006,-0.007 -0.006,-0.008 -0.006,-0.008 -0.006,-0.008 -0.006,-0.008 -0.006,-0.008 -0.006,-0.008 -0.006,-0.008 -0.006,-0.008 -0.006,-0.008 -0.006,-0.008 -0.006,-0.008 -0.005,-0.008 -0.006,-0.008 -0.005,-0.008 -0.006,-0.008 -0.005,-0.008 -0.005,-0.009 -0.005,-0.008 -0.005,-0.008 -0.005,-0.008 -0.005,-0.009 -0.005,-0.008 -0.005,-0.009 -0.005,-0.008 -0.005,-0.009 -0.005,-0.009 -0.005,-0.008 -0.005,-0.009 -0.005,-0.008 -0.005,-0.009 -0.005,-0.009 -0.005,-0.009 -0.005,-0.008 -0.005,-0.009 -0.004,-0.009 -0.004,-0.009 -0.004,-0.009 -0.004,-0.009 -0.004,-0.009 -0.004,-0.009 -0.004,-0.009 -0.004,-0.009 -0.004,-0.009 -0.004,-0.009 -0.004,-0.009 -0.004,-0.009 -0.004,-0.009 -0.003,-0.009 -0.004,-0.009 -0.003,-0.009 -0.003,-0.009 -0.004,-0.01 -0.003,-0.009 -0.003,-0.009 -0.003,-0.01 -0.003,-0.009 -0.003,-0.01 -0.003,-0.01 -0.003,-0.009 -0.003,-0.01 -0.003,-0.01 -0.003,-0.01 -0.003,-0.01 -0.003,-0.01 -0.003,-0.01 -0.002,-0.01 -0.003,-0.01 -0.002,-0.01 -0.002,-0.01 -0.002,-0.01 -0.002,-0.01 -0.002,-0.01 -0.002,-0.01 -0.002,-0.01 -0.002,-0.01 -0.002,-0.01 -0.002,-0.01 -0.002,-0.01 -0.002,-0.01 -0.002,-0.01 -0.002,-0.0102 -0.002,-0.01 -0.001,-0.01 -0.002,-0.0102 -0.001,-0.01 -0.001,-0.0102 -10e-4,-0.01 -0.001,-0.0102 -0.001,-0.0102 -10e-4,-0.0102 -0.001,-0.01 -0.001,-0.0102 -10e-4,-0.0102 -0.001,-0.0102 -0.001,-0.0102 -7.1e-4,-0.0102 -10e-4,-0.0106 -7.2e-4,-0.0102 -7.1e-4,-0.0102 -7.2e-4,-0.0102 -3.4e-4,-0.0106 -7.1e-4,-0.0102 -3.5e-4,-0.0106 -3.4e-4,-0.0102 -3.5e-4,-0.0106 v -0.0106 l -3.4e-4,-0.0102 v -0.0106 -0.0106 -0.0106 -0.0102 l 3.4e-4,-0.0106 v -0.0106 l 3.5e-4,-0.0102 3.4e-4,-0.0106 3.5e-4,-0.0106 7.1e-4,-0.0102 3.4e-4,-0.0102 7.2e-4,-0.0106 7.1e-4,-0.0102 7.2e-4,-0.0102 10e-4,-0.0102 7.1e-4,-0.0106 0.001,-0.0102 0.001,-0.0102 10e-4,-0.0102 0.001,-0.01 0.001,-0.0102 10e-4,-0.0102 0.001,-0.0102 0.001,-0.0102 10e-4,-0.01 0.001,-0.0102 0.001,-0.01 0.002,-0.0102 0.001,-0.01 0.002,-0.01 0.002,-0.01 0.002,-0.0102 0.002,-0.01 0.002,-0.01 0.002,-0.01 0.002,-0.01 0.002,-0.01 0.002,-0.009 0.002,-0.01 0.002,-0.01 0.002,-0.01 0.002,-0.01 0.002,-0.01 0.002,-0.01 0.003,-0.01 0.002,-0.01 0.003,-0.01 0.003,-0.01 0.003,-0.01 0.003,-0.01 0.003,-0.01 0.003,-0.01 0.003,-0.009 0.003,-0.01 0.003,-0.01 0.003,-0.009 0.003,-0.01 0.003,-0.009 0.003,-0.009 0.004,-0.01 0.003,-0.009 0.003,-0.009 0.004,-0.009 0.003,-0.009 0.004,-0.009 0.004,-0.009 0.004,-0.009 0.004,-0.009 0.004,-0.009 0.004,-0.009 0.004,-0.009 0.004,-0.009 0.004,-0.009 0.004,-0.009 0.004,-0.009 0.004,-0.009 0.004,-0.009 0.005,-0.009 0.005,-0.009 0.005,-0.009 0.005,-0.009 0.005,-0.008 0.005,-0.009 0.005,-0.009 0.005,-0.008 0.005,-0.009 0.005,-0.008 0.005,-0.009 0.005,-0.008 0.005,-0.008 0.005,-0.009 0.005,-0.008 0.005,-0.008 0.005,-0.008 0.005,-0.008 0.005,-0.008 0.006,-0.008 0.005,-0.008 0.006,-0.008 0.005,-0.008 0.006,-0.008 0.006,-0.008 0.006,-0.008 0.006,-0.008 0.006,-0.008 0.006,-0.008 0.006,-0.008 0.006,-0.008 0.006,-0.008 0.006,-0.008 0.006,-0.008 0.006,-0.007 0.006,-0.008 0.006,-0.007 0.006,-0.007 0.006,-0.007 0.006,-0.007 0.006,-0.007 0.006,-0.007 0.006,-0.007 0.007,-0.007 0.006,-0.007 0.007,-0.007 0.007,-0.007 0.006,-0.007 0.007,-0.007 0.007,-0.007 0.007,-0.007 0.007,-0.007 0.007,-0.007 0.007,-0.007 0.007,-0.007 0.007,-0.007 0.007,-0.007 0.007,-0.007 0.007,-0.007 0.007,-0.006 0.007,-0.007 0.007,-0.006 0.007,-0.007 0.007,-0.006 0.007,-0.006 0.007,-0.006 0.007,-0.006 0.007,-0.006 0.007,-0.006 0.008,-0.006 0.007,-0.006 0.007,-0.006 0.008,-0.006 0.008,-0.006 0.008,-0.006 0.008,-0.006 0.008,-0.006 0.008,-0.006 0.008,-0.006 0.008,-0.006 0.008,-0.006 0.008,-0.006 0.008,-0.006 0.008,-0.006 0.008,-0.005 0.008,-0.006 0.008,-0.005 0.009,-0.005 0.008,-0.005 0.008,-0.005 0.008,-0.005 0.008,-0.005 0.009,-0.005 0.008,-0.005 0.008,-0.005 0.009,-0.005 0.008,-0.005 0.009,-0.005 0.008,-0.005 0.009,-0.005 0.009,-0.005 0.008,-0.005 0.009,-0.005 0.009,-0.004 0.009,-0.005 0.008,-0.005 0.009,-0.004 0.009,-0.005 0.009,-0.004 0.009,-0.004 0.009,-0.004 0.009,-0.004 0.009,-0.004 0.009,-0.004 0.009,-0.004 0.009,-0.004 0.009,-0.004 0.009,-0.004 0.009,-0.004 0.009,-0.004 0.009,-0.004 0.009,-0.003 0.009,-0.003 0.01,-0.004 0.009,-0.003 0.009,-0.003 0.01,-0.004 0.009,-0.003 0.01,-0.003 0.01,-0.003 0.01,-0.003 0.009,-0.003 0.01,-0.003 0.01,-0.003 0.01,-0.003 0.01,-0.003 0.01,-0.002 0.01,-0.003 0.01,-0.002 0.01,-0.003 0.01,-0.002 0.01,-0.002 0.01,-0.002 0.01,-0.002 0.01,-0.002 0.009,-0.002 0.01,-0.002 0.01,-0.002 0.01,-0.002 0.01,-0.002 0.01,-0.002 0.0102,-0.002 0.01,-0.002 0.01,-0.002 0.0102,-0.002 0.01,-10e-4 0.01,-0.002 0.0102,-10e-4 0.0102,-0.001 0.01,-0.001 0.0102,-10e-4 0.0102,-0.001 0.0102,-0.001 0.01,-10e-4 0.0102,-0.001 0.0106,-0.001 0.0102,-7.2e-4 0.0102,-10e-4 0.0102,-7.1e-4 0.0102,-7.2e-4 0.0102,-7.1e-4 0.0106,-7.2e-4 0.0102,-7.1e-4 0.0102,-3.4e-4 0.0106,-3.5e-4 0.0106,-3.4e-4 0.0102,-3.5e-4 h 0.006 v 7.2e-4 h 0.0113 0.0102 l 0.0106,3.4e-4 h 0.0106 l 0.0102,3.5e-4 0.0106,3.4e-4 0.0106,3.4e-4 0.0102,7.2e-4 0.0102,3.4e-4 0.0106,7.2e-4 0.0102,7.1e-4 0.0102,7.2e-4 0.0102,0.001 0.0106,7.1e-4 0.01,10e-4 0.0106,0.001 0.0102,0.001 0.01,10e-4 0.0102,0.001 0.0102,0.001 0.0102,10e-4 0.01,0.001 0.0102,0.002 0.0102,0.001 0.01,0.001 0.01,0.002 0.0102,0.002 0.01,0.002 0.01,0.002 0.0102,0.002 0.01,0.002 0.01,0.002 0.01,0.002 0.01,0.002 0.01,0.002 0.01,0.002 0.01,0.002 0.01,0.002 0.01,0.002 0.01,0.002 0.01,0.002 0.01,0.002 0.01,0.002 0.01,0.003 0.01,0.003 0.01,0.003 0.01,0.003 0.01,0.003 0.01,0.003 0.009,0.003 0.01,0.003 0.01,0.003 0.01,0.003 0.009,0.003 0.01,0.003 0.009,0.003 0.009,0.003 0.01,0.004 0.009,0.003 0.009,0.004 0.009,0.004 0.009,0.003 0.009,0.004 0.009,0.004 0.009,0.004 0.009,0.004 0.009,0.004 0.009,0.004 0.009,0.004 0.009,0.004 0.009,0.004 0.009,0.004 0.009,0.004 0.009,0.004 0.009,0.005 0.009,0.004 0.008,0.005 0.009,0.005 0.009,0.005 0.009,0.005 0.008,0.005 0.009,0.005 0.008,0.005 0.009,0.005 0.009,0.005 0.008,0.005 0.009,0.005 0.008,0.005 0.008,0.005 0.008,0.005 0.008,0.005 0.008,0.005 0.008,0.005 0.008,0.006 0.008,0.005 0.008,0.005 0.008,0.006 0.008,0.006 0.008,0.005 0.008,0.006 0.008,0.006 0.008,0.006 0.008,0.006 0.008,0.006 0.008,0.006 0.008,0.006 0.008,0.006 0.008,0.006 0.008,0.006 0.007,0.006 0.007,0.006 0.008,0.006 0.007,0.006 0.007,0.006 0.007,0.006 0.007,0.006 0.007,0.006 0.007,0.007 0.007,0.006 0.007,0.007 0.007,0.006 0.007,0.007 0.007,0.007 0.007,0.007 0.007,0.007 0.007,0.007 0.007,0.007 0.007,0.007 0.007,0.007 0.007,0.007 0.007,0.007 0.007,0.007 0.007,0.007 0.006,0.007 0.007,0.007 0.007,0.007 0.006,0.007 0.007,0.007 0.006,0.007 0.006,0.007 0.006,0.007 0.006,0.007 0.006,0.007 0.006,0.007 0.006,0.008 0.006,0.007 0.006,0.008 0.006,0.007 0.006,0.008 0.006,0.008 0.006,0.008 0.006,0.008 0.006,0.008 0.006,0.008 0.006,0.008 0.006,0.008 0.006,0.008 0.006,0.008 0.005,0.008 0.006,0.008 0.005,0.008 0.006,0.008 0.005,0.008 0.005,0.008 0.005,0.008 0.005,0.008 0.005,0.008 0.005,0.008 0.005,0.009 0.005,0.008 0.005,0.008 0.005,0.009 0.005,0.008 0.005,0.009 0.005,0.009 0.005,0.008 0.005,0.009 0.005,0.009 0.005,0.009 0.005,0.009 0.005,0.009 0.004,0.009 0.004,0.009 0.005,0.009 0.004,0.009 0.004,0.009 0.004,0.009 0.004,0.009 0.004,0.009 0.004,0.009 0.004,0.009 0.004,0.009 0.003,0.009 0.004,0.009 0.003,0.009 0.004,0.009 0.004,0.009 0.003,0.01 0.004,0.009 0.003,0.009 0.003,0.01 0.004,0.009 0.003,0.01 0.003,0.009 0.003,0.01 0.003,0.01 0.003,0.01 0.003,0.009 0.003,0.01 0.003,0.01 0.003,0.01 0.003,0.01 0.003,0.01 0.002,0.01 0.003,0.01 0.002,0.01 0.002,0.01 0.002,0.009 0.002,0.01 0.002,0.01 0.002,0.01 0.002,0.01 0.002,0.01 0.002,0.01 0.002,0.01 0.002,0.0102 0.002,0.01 0.002,0.01 0.002,0.01 0.001,0.0102 0.002,0.01 0.001,0.0102 10e-4,0.01 0.001,0.0102 0.001,0.01 10e-4,0.0102 0.001,0.0102 0.001,0.0102 10e-4,0.0102 0.001,0.0102 0.001,0.0102 10e-4,0.0102 8e-4,0.0102 0.001,0.0102 7.9e-4,0.0102 7.9e-4,0.0102 8e-4,0.0106 2.6e-4,0.0102 7.9e-4,0.0106 2.7e-4,0.0102 2.6e-4,0.0106 2.7e-4,0.0102 v 0.0106 l 2.6e-4,0.0106 v 0.0102 0.0106 z m 0.46884,-0.024 -2.6e-4,-0.0134 v -0.0134 l -2.6e-4,-0.0134 -2.7e-4,-0.0134 -2.6e-4,-0.0134 -8e-4,-0.0134 -7.9e-4,-0.0134 -7.9e-4,-0.0134 -8e-4,-0.0134 -7.9e-4,-0.013 -0.001,-0.0134 -10e-4,-0.0131 -0.001,-0.0134 -0.001,-0.0131 -10e-4,-0.0134 -0.001,-0.0131 -0.001,-0.0131 -0.002,-0.013 -0.001,-0.0131 -0.002,-0.0131 -0.002,-0.013 -0.002,-0.0131 -0.002,-0.013 -0.002,-0.0131 -0.002,-0.0131 -0.002,-0.0127 -0.002,-0.013 -0.002,-0.0127 -0.002,-0.0127 -0.002,-0.013 -0.002,-0.0127 -0.003,-0.0127 -0.002,-0.0127 -0.003,-0.0127 -0.003,-0.0127 -0.003,-0.0127 -0.003,-0.0127 -0.003,-0.0123 -0.003,-0.0127 -0.003,-0.0124 -0.003,-0.0127 -0.004,-0.0124 -0.003,-0.0123 -0.004,-0.0124 -0.003,-0.0123 -0.004,-0.0124 -0.004,-0.0123 -0.004,-0.0124 -0.004,-0.0123 -0.004,-0.012 -0.004,-0.0123 -0.004,-0.012 -0.004,-0.012 -0.004,-0.0123 -0.005,-0.012 -0.004,-0.012 -0.005,-0.012 -0.005,-0.0116 -0.005,-0.012 -0.005,-0.012 -0.005,-0.0116 -0.005,-0.012 -0.005,-0.0116 -0.005,-0.0116 -0.005,-0.0116 -0.005,-0.0116 -0.005,-0.0116 -0.005,-0.0116 -0.006,-0.0113 -0.005,-0.0116 -0.006,-0.0113 -0.005,-0.0116 -0.006,-0.0113 -0.006,-0.0113 -0.006,-0.0113 -0.006,-0.0113 -0.006,-0.0113 -0.006,-0.0109 -0.006,-0.0113 -0.006,-0.0109 -0.006,-0.0113 -0.006,-0.0109 -0.006,-0.0109 -0.006,-0.0109 -0.006,-0.0109 -0.006,-0.0106 -0.007,-0.0109 -0.007,-0.0109 -0.006,-0.0106 -0.007,-0.0106 -0.007,-0.0106 -0.007,-0.0106 -0.007,-0.0106 -0.007,-0.0106 -0.007,-0.0102 -0.007,-0.0106 -0.007,-0.0102 -0.007,-0.0102 -0.007,-0.0106 -0.007,-0.0102 -0.007,-0.01 -0.007,-0.0102 -0.007,-0.0102 -0.007,-0.01 -0.008,-0.01 -0.008,-0.0102 -0.008,-0.01 -0.008,-0.01 -0.008,-0.01 -0.008,-0.01 -0.008,-0.01 -0.008,-0.01 -0.008,-0.01 -0.008,-0.01 -0.009,-0.01 -0.008,-0.01 -0.008,-0.009 -0.009,-0.01 -0.008,-0.009 -0.009,-0.009 -0.008,-0.009 -0.009,-0.009 -0.009,-0.009 -0.008,-0.009 -0.009,-0.009 -0.009,-0.009 -0.009,-0.009 -0.009,-0.009 -0.009,-0.009 -0.009,-0.008 -0.009,-0.009 -0.009,-0.009 -0.009,-0.009 -0.009,-0.009 -0.01,-0.008 -0.009,-0.009 -0.009,-0.008 -0.01,-0.008 -0.01,-0.008 -0.01,-0.008 -0.01,-0.008 -0.01,-0.008 -0.01,-0.008 -0.01,-0.008 -0.01,-0.008 -0.01,-0.008 -0.01,-0.008 -0.01,-0.008 -0.01,-0.008 -0.0102,-0.007 -0.01,-0.008 -0.0102,-0.007 -0.01,-0.007 -0.0102,-0.007 -0.0102,-0.007 -0.0102,-0.007 -0.0106,-0.007 -0.0102,-0.007 -0.0102,-0.007 -0.0106,-0.007 -0.0102,-0.007 -0.0106,-0.007 -0.0109,-0.007 -0.0102,-0.007 -0.0109,-0.007 -0.0106,-0.007 -0.0109,-0.007 -0.0106,-0.006 -0.0109,-0.007 -0.0109,-0.006 -0.0109,-0.006 -0.0109,-0.006 -0.0109,-0.006 -0.0109,-0.006 -0.0113,-0.006 -0.0109,-0.006 -0.0113,-0.006 -0.0113,-0.006 -0.0113,-0.006 -0.0109,-0.006 -0.0116,-0.006 -0.0113,-0.006 -0.0113,-0.005 -0.0116,-0.006 -0.0113,-0.005 -0.0116,-0.005 -0.0116,-0.005 -0.0116,-0.005 -0.0113,-0.005 -0.012,-0.005 -0.0116,-0.005 -0.0116,-0.005 -0.012,-0.005 -0.0116,-0.005 -0.012,-0.005 -0.0116,-0.005 -0.012,-0.005 -0.012,-0.005 -0.012,-0.004 -0.012,-0.005 -0.012,-0.004 -0.0124,-0.004 -0.012,-0.004 -0.0124,-0.004 -0.012,-0.004 -0.0124,-0.004 -0.0123,-0.004 -0.0124,-0.004 -0.012,-0.004 -0.0124,-0.004 -0.0127,-0.003 -0.0123,-0.004 -0.0124,-0.003 -0.0127,-0.003 -0.0124,-0.003 -0.0127,-0.003 -0.0123,-0.003 -0.0127,-0.003 -0.0127,-0.003 -0.0127,-0.003 -0.0127,-0.003 -0.0127,-0.003 -0.0127,-0.003 -0.0127,-0.002 -0.0127,-0.002 -0.0131,-0.002 -0.0127,-0.002 -0.013,-0.002 -0.0127,-0.002 -0.0131,-0.002 -0.0131,-0.002 -0.013,-0.002 -0.0131,-0.002 -0.0127,-0.002 -0.0131,-10e-4 -0.013,-0.002 -0.0134,-10e-4 -0.013,-0.001 -0.0131,-0.001 -0.0134,-10e-4 -0.013,-0.001 -0.0131,-0.001 -0.0134,-10e-4 -0.013,-7.2e-4 -0.0134,-0.001 -0.0134,-7.1e-4 -0.0134,-7.2e-4 -0.0134,-7.1e-4 -0.013,-7.2e-4 -0.0134,-3.4e-4 -0.0138,-3.4e-4 -0.0131,-3.5e-4 h -0.006 v -0.001 h -0.001 v -0.002 0.002 h -0.0113 -0.0134 l -0.0134,3.5e-4 -0.0134,3.4e-4 -0.0138,3.4e-4 -0.0131,3.5e-4 -0.0134,3.4e-4 -0.0134,7.2e-4 -0.0134,7.1e-4 -0.0134,0.001 -0.0131,7.1e-4 -0.0134,0.001 -0.0134,10e-4 -0.0131,0.001 -0.013,0.001 -0.0134,10e-4 -0.0131,0.001 -0.013,0.001 -0.0134,0.002 -0.013,0.001 -0.0131,0.002 -0.0127,0.002 -0.0131,0.002 -0.013,0.002 -0.0131,0.002 -0.0131,0.002 -0.0127,0.002 -0.013,0.002 -0.0127,0.002 -0.0131,0.002 -0.0127,0.002 -0.0127,0.002 -0.0127,0.002 -0.0127,0.003 -0.0127,0.003 -0.0127,0.003 -0.0127,0.003 -0.0127,0.003 -0.0123,0.003 -0.0127,0.003 -0.0124,0.003 -0.0127,0.004 -0.0124,0.003 -0.0123,0.003 -0.0127,0.004 -0.012,0.004 -0.0123,0.003 -0.0124,0.004 -0.0123,0.004 -0.0124,0.004 -0.012,0.004 -0.0124,0.004 -0.012,0.004 -0.0123,0.004 -0.012,0.004 -0.012,0.004 -0.012,0.005 -0.012,0.005 -0.012,0.005 -0.0116,0.005 -0.012,0.005 -0.0116,0.005 -0.012,0.005 -0.0116,0.005 -0.0116,0.005 -0.012,0.005 -0.0113,0.005 -0.0116,0.005 -0.0116,0.005 -0.0116,0.005 -0.0113,0.006 -0.0116,0.005 -0.0113,0.006 -0.0113,0.006 -0.0116,0.006 -0.0109,0.006 -0.0113,0.006 -0.0113,0.006 -0.0113,0.006 -0.0109,0.006 -0.0113,0.006 -0.0109,0.006 -0.0109,0.006 -0.0109,0.006 -0.0109,0.006 -0.0109,0.006 -0.0109,0.006 -0.0106,0.007 -0.0109,0.006 -0.0106,0.007 -0.0106,0.007 -0.0106,0.007 -0.0109,0.007 -0.0102,0.007 -0.0106,0.007 -0.0106,0.007 -0.0102,0.007 -0.0102,0.007 -0.0106,0.007 -0.0102,0.007 -0.0102,0.007 -0.0102,0.007 -0.01,0.007 -0.0102,0.007 -0.01,0.007 -0.0102,0.008 -0.01,0.008 -0.01,0.008 -0.01,0.008 -0.01,0.008 -0.01,0.008 -0.01,0.008 -0.01,0.008 -0.01,0.008 -0.01,0.008 -0.01,0.008 -0.01,0.009 -0.01,0.008 -0.009,0.008 -0.009,0.009 -0.01,0.008 -0.009,0.009 -0.009,0.008 -0.009,0.009 -0.009,0.009 -0.009,0.009 -0.009,0.009 -0.009,0.009 -0.009,0.009 -0.009,0.009 -0.009,0.009 -0.008,0.009 -0.009,0.009 -0.009,0.009 -0.008,0.009 -0.009,0.009 -0.008,0.01 -0.009,0.009 -0.008,0.009 -0.008,0.01 -0.009,0.01 -0.008,0.01 -0.008,0.01 -0.008,0.01 -0.008,0.01 -0.008,0.01 -0.008,0.01 -0.008,0.01 -0.008,0.01 -0.008,0.01 -0.007,0.0102 -0.008,0.01 -0.007,0.0102 -0.007,0.01 -0.007,0.0102 -0.007,0.0102 -0.007,0.0102 -0.007,0.0102 -0.007,0.0106 -0.007,0.0102 -0.007,0.0106 -0.007,0.0106 -0.007,0.0102 -0.007,0.0106 -0.007,0.0106 -0.006,0.0109 -0.007,0.0106 -0.007,0.0109 -0.007,0.0106 -0.006,0.0109 -0.006,0.0109 -0.006,0.0109 -0.006,0.0109 -0.006,0.0109 -0.006,0.0109 -0.006,0.0113 -0.006,0.0109 -0.006,0.0113 -0.006,0.0113 -0.006,0.0113 -0.006,0.0113 -0.006,0.0113 -0.006,0.0113 -0.005,0.0113 -0.006,0.0116 -0.005,0.0113 -0.006,0.0116 -0.005,0.0116 -0.005,0.0116 -0.005,0.0116 -0.005,0.0116 -0.005,0.0116 -0.005,0.0116 -0.005,0.012 -0.005,0.0116 -0.005,0.012 -0.005,0.0116 -0.005,0.012 -0.005,0.012 -0.004,0.012 -0.005,0.012 -0.004,0.012 -0.004,0.0123 -0.004,0.012 -0.004,0.0123 -0.004,0.012 -0.004,0.0123 -0.004,0.0124 -0.003,0.012 -0.004,0.0123 -0.003,0.0124 -0.004,0.0127 -0.003,0.0123 -0.003,0.0124 -0.003,0.0123 -0.003,0.0127 -0.003,0.0127 -0.003,0.0124 -0.003,0.0127 -0.003,0.0127 -0.003,0.0127 -0.003,0.0127 -0.002,0.0127 -0.003,0.0127 -0.002,0.0127 -0.002,0.0127 -0.002,0.013 -0.002,0.0127 -0.002,0.0131 -0.002,0.0127 -0.002,0.0131 -0.002,0.013 -0.002,0.0127 -0.002,0.0131 -0.002,0.0131 -0.002,0.013 -10e-4,0.0131 -0.002,0.0134 -10e-4,0.013 -0.001,0.0131 -0.001,0.0134 -10e-4,0.0131 -0.001,0.0131 -0.001,0.0134 -7.2e-4,0.0134 -10e-4,0.0131 -7.1e-4,0.0134 -7.2e-4,0.0134 -7.1e-4,0.0134 -7.1e-4,0.0134 -3.5e-4,0.0131 -3.4e-4,0.0138 -3.5e-4,0.0134 v 0.0134 l -3.4e-4,0.0134 v 0.0134 0.0134 l 3.4e-4,0.0138 v 0.0134 l 3.5e-4,0.0134 3.4e-4,0.0134 3.5e-4,0.0134 7.1e-4,0.0134 7.1e-4,0.0131 7.2e-4,0.0134 7.1e-4,0.0134 10e-4,0.0134 7.2e-4,0.013 0.001,0.0134 0.001,0.0131 10e-4,0.0134 0.001,0.0131 0.001,0.013 10e-4,0.0131 0.002,0.0134 10e-4,0.013 0.002,0.0131 0.002,0.0131 0.002,0.013 0.002,0.0127 0.002,0.0131 0.002,0.0131 0.002,0.0127 0.002,0.013 0.002,0.0127 0.002,0.0131 0.002,0.0127 0.002,0.0127 0.003,0.0127 0.002,0.0127 0.003,0.0127 0.003,0.0127 0.003,0.0127 0.003,0.0127 0.003,0.0127 0.003,0.0123 0.003,0.0127 0.003,0.0124 0.003,0.0123 0.003,0.0124 0.004,0.0127 0.003,0.0124 0.004,0.0123 0.003,0.012 0.004,0.0123 0.004,0.0124 0.004,0.012 0.004,0.0124 0.004,0.012 0.004,0.0124 0.004,0.012 0.005,0.012 0.004,0.012 0.005,0.012 0.005,0.012 0.005,0.0116 0.005,0.012 0.005,0.0116 0.005,0.012 0.005,0.0116 0.005,0.0116 0.005,0.0116 0.005,0.0116 0.005,0.0116 0.005,0.0116 0.006,0.0116 0.005,0.0113 0.006,0.0116 0.005,0.0113 0.006,0.0113 0.006,0.0113 0.006,0.0113 0.006,0.0113 0.006,0.0113 0.006,0.0113 0.006,0.0109 0.006,0.0113 0.006,0.0109 0.006,0.0109 0.006,0.0109 0.006,0.0109 0.006,0.0109 0.006,0.0109 0.007,0.0106 0.007,0.0109 0.007,0.0106 0.006,0.0106 0.007,0.0109 0.007,0.0106 0.007,0.0102 0.007,0.0106 0.007,0.0106 0.007,0.0102 0.007,0.0106 0.007,0.0102 0.007,0.0102 0.007,0.0102 0.007,0.0102 0.007,0.01 0.007,0.0102 0.008,0.01 0.007,0.0102 0.008,0.01 0.008,0.01 0.008,0.01 0.008,0.01 0.008,0.01 0.008,0.01 0.008,0.01 0.008,0.01 0.008,0.01 0.008,0.01 0.008,0.01 0.008,0.01 0.008,0.009 0.009,0.009 0.008,0.01 0.009,0.009 0.008,0.009 0.009,0.009 0.009,0.009 0.009,0.009 0.009,0.009 0.009,0.009 0.009,0.009 0.009,0.009 0.009,0.009 0.009,0.009 0.009,0.009 0.009,0.008 0.009,0.009 0.01,0.008 0.009,0.009 0.009,0.008 0.01,0.008 0.01,0.008 0.009,0.009 0.01,0.008 0.01,0.008 0.01,0.008 0.01,0.008 0.01,0.008 0.01,0.008 0.01,0.008 0.01,0.008 0.01,0.008 0.0102,0.008 0.01,0.007 0.0102,0.007 0.01,0.007 0.0102,0.007 0.0102,0.007 0.0102,0.007 0.0106,0.007 0.0102,0.007 0.0102,0.007 0.0106,0.007 0.0106,0.007 0.0102,0.007 0.0109,0.007 0.0106,0.007 0.0106,0.007 0.0106,0.006 0.0109,0.007 0.0106,0.007 0.0109,0.006 0.0109,0.006 0.0109,0.006 0.0109,0.006 0.0109,0.006 0.0109,0.006 0.0113,0.006 0.0109,0.006 0.0113,0.006 0.0113,0.006 0.0113,0.006 0.0109,0.006 0.0116,0.006 0.0113,0.006 0.0113,0.006 0.0116,0.005 0.0113,0.006 0.0116,0.005 0.0116,0.005 0.0116,0.005 0.0113,0.005 0.012,0.005 0.0116,0.005 0.0116,0.005 0.012,0.005 0.0116,0.005 0.012,0.005 0.0116,0.005 0.012,0.005 0.012,0.005 0.012,0.005 0.012,0.004 0.012,0.004 0.0124,0.004 0.012,0.004 0.0124,0.004 0.012,0.004 0.0123,0.004 0.0124,0.004 0.0123,0.004 0.0124,0.004 0.012,0.003 0.0127,0.004 0.0124,0.003 0.0123,0.004 0.0127,0.003 0.0123,0.003 0.0127,0.003 0.0124,0.003 0.0127,0.003 0.0127,0.003 0.0127,0.003 0.0127,0.003 0.0127,0.002 0.0127,0.003 0.0127,0.002 0.0127,0.002 0.0131,0.002 0.0127,0.002 0.0131,0.002 0.0127,0.002 0.013,0.002 0.0131,0.002 0.0131,0.002 0.013,0.002 0.0127,0.002 0.0131,0.002 0.0131,10e-4 0.0134,0.002 0.0131,10e-4 0.013,0.001 0.0134,0.001 0.0131,10e-4 0.013,0.001 0.0134,0.001 0.0134,10e-4 0.013,7.2e-4 0.0134,7.1e-4 0.0134,0.001 0.0134,3.5e-4 0.0134,7.1e-4 0.013,3.4e-4 0.0138,3.5e-4 0.0131,3.4e-4 h 0.006 v 0.002 h 10e-4 v 0.002 -0.002 h 0.0113 l 0.0134,-3.4e-4 h 0.0134 l 0.0134,-3.5e-4 0.0138,-3.4e-4 0.0134,-7.1e-4 0.0131,-3.5e-4 0.0134,-7.1e-4 0.0134,-7.2e-4 0.0134,-7.1e-4 0.0134,-10e-4 0.0131,-0.001 0.0134,-0.001 0.0131,-10e-4 0.0131,-0.001 0.0134,-0.001 0.0131,-10e-4 0.0131,-0.001 0.0134,-0.001 0.0131,-0.002 0.013,-0.002 0.0127,-0.002 0.013,-0.002 0.0131,-0.002 0.013,-0.002 0.0131,-0.002 0.0127,-0.002 0.0131,-0.002 0.0127,-0.002 0.0131,-0.002 0.0127,-0.002 0.0127,-0.003 0.0127,-0.002 0.0127,-0.003 0.0127,-0.003 0.0127,-0.003 0.0127,-0.003 0.0127,-0.003 0.0124,-0.003 0.0127,-0.003 0.0123,-0.003 0.0127,-0.003 0.0124,-0.003 0.0123,-0.004 0.0127,-0.003 0.0123,-0.004 0.012,-0.004 0.0123,-0.004 0.0124,-0.004 0.0123,-0.004 0.012,-0.004 0.0123,-0.004 0.012,-0.004 0.0123,-0.004 0.012,-0.005 0.012,-0.004 0.012,-0.005 0.012,-0.004 0.012,-0.005 0.0116,-0.005 0.012,-0.005 0.0116,-0.005 0.012,-0.005 0.0116,-0.005 0.0116,-0.005 0.012,-0.005 0.0113,-0.005 0.0116,-0.005 0.0116,-0.005 0.0116,-0.005 0.0113,-0.005 0.0116,-0.006 0.0113,-0.006 0.0113,-0.005 0.0116,-0.006 0.0109,-0.006 0.0113,-0.006 0.0113,-0.006 0.0113,-0.006 0.0109,-0.006 0.0113,-0.006 0.0109,-0.006 0.0109,-0.006 0.0109,-0.006 0.0109,-0.006 0.0109,-0.006 0.0109,-0.006 0.0106,-0.006 0.0109,-0.007 0.0106,-0.007 0.0109,-0.007 0.0102,-0.007 0.0109,-0.007 0.0106,-0.007 0.0102,-0.007 0.0106,-0.007 0.0102,-0.007 0.0102,-0.007 0.0106,-0.007 0.0102,-0.007 0.0102,-0.007 0.0102,-0.007 0.01,-0.007 0.0102,-0.008 0.01,-0.007 0.0102,-0.008 0.01,-0.007 0.01,-0.008 0.01,-0.008 0.01,-0.008 0.01,-0.008 0.01,-0.008 0.01,-0.008 0.01,-0.008 0.01,-0.008 0.01,-0.008 0.009,-0.008 0.01,-0.008 0.009,-0.009 0.009,-0.008 0.01,-0.008 0.009,-0.009 0.009,-0.008 0.009,-0.009 0.009,-0.009 0.009,-0.009 0.009,-0.009 0.009,-0.009 0.009,-0.009 0.009,-0.009 0.009,-0.009 0.009,-0.009 0.009,-0.009 0.008,-0.009 0.009,-0.009 0.008,-0.009 0.009,-0.01 0.008,-0.009 0.008,-0.01 0.008,-0.009 0.008,-0.01 0.008,-0.01 0.008,-0.01 0.008,-0.01 0.008,-0.01 0.008,-0.01 0.008,-0.01 0.008,-0.01 0.008,-0.01 0.008,-0.01 0.008,-0.01 0.007,-0.0102 0.007,-0.01 0.007,-0.0102 0.007,-0.0102 0.007,-0.0102 0.007,-0.0102 0.007,-0.0102 0.007,-0.0102 0.007,-0.0106 0.007,-0.0106 0.007,-0.0102 0.007,-0.0106 0.007,-0.0106 0.007,-0.0106 0.007,-0.0106 0.006,-0.0109 0.007,-0.0106 0.007,-0.0109 0.006,-0.0109 0.006,-0.0106 0.006,-0.0109 0.006,-0.0109 0.006,-0.0113 0.006,-0.0109 0.006,-0.0109 0.006,-0.0113 0.006,-0.0113 0.006,-0.0109 0.006,-0.0113 0.006,-0.0113 0.006,-0.0113 0.006,-0.0116 0.005,-0.0113 0.006,-0.0113 0.005,-0.0116 0.006,-0.0116 0.005,-0.0113 0.005,-0.0116 0.005,-0.0116 0.005,-0.0116 0.005,-0.012 0.005,-0.0116 0.005,-0.0116 0.005,-0.012 0.005,-0.0116 0.005,-0.012 0.005,-0.012 0.005,-0.012 0.004,-0.012 0.005,-0.012 0.004,-0.012 0.004,-0.012 0.004,-0.0123 0.004,-0.012 0.004,-0.0123 0.004,-0.0124 0.004,-0.012 0.003,-0.0124 0.004,-0.0123 0.004,-0.0124 0.003,-0.0123 0.004,-0.0124 0.003,-0.0127 0.003,-0.0124 0.003,-0.0127 0.003,-0.0123 0.003,-0.0127 0.003,-0.0127 0.003,-0.0124 0.003,-0.0127 0.003,-0.0127 0.002,-0.0127 0.003,-0.0131 0.002,-0.0127 0.002,-0.0127 0.002,-0.0127 0.002,-0.0131 0.002,-0.0127 0.002,-0.013 0.002,-0.0131 0.002,-0.0127 0.002,-0.0131 0.002,-0.013 0.002,-0.0131 0.002,-0.0131 0.001,-0.013 0.002,-0.0131 0.001,-0.0134 10e-4,-0.0131 0.001,-0.0131 0.001,-0.0134 10e-4,-0.0131 0.001,-0.0134 0.001,-0.013 7.9e-4,-0.0134 8e-4,-0.0134 7.9e-4,-0.0131 7.9e-4,-0.0134 8e-4,-0.0134 2.6e-4,-0.0134 2.7e-4,-0.0134 2.6e-4,-0.0134 v -0.0134 l 2.6e-4,-0.0138 v -0.0134 z" />
    <path
       inkscape:connector-curvature="0"
       id="path88-2"
       style="fill:#ffffff;fill-opacity:1;fill-rule:nonzero;stroke:none;stroke-width:0.35277775"
       d="m 86.798471,93.748197 -0.35242,-0.006 -0.01,-0.24166 h 0.003 l 3.4e-4,-0.0113 v -0.0106 -0.0106 l 3.5e-4,-0.0102 3.4e-4,-0.0106 3.4e-4,-0.0106 3.5e-4,-0.0102 3.4e-4,-0.0102 7.2e-4,-0.0106 7.1e-4,-0.0102 7.2e-4,-0.0102 7.1e-4,-0.0106 7.1e-4,-0.0102 10e-4,-0.0102 7.2e-4,-0.0102 0.001,-0.0102 0.001,-0.0102 10e-4,-0.0102 0.001,-0.0102 0.001,-0.01 10e-4,-0.0102 0.001,-0.0102 0.001,-0.0102 10e-4,-0.01 0.002,-0.0102 10e-4,-0.01 0.002,-0.01 0.002,-0.0102 0.002,-0.01 0.002,-0.01 0.002,-0.01 0.002,-0.01 0.002,-0.01 0.002,-0.01 0.002,-0.01 0.002,-0.01 0.002,-0.01 0.002,-0.009 0.002,-0.01 0.002,-0.01 0.003,-0.01 0.003,-0.01 0.002,-0.01 0.003,-0.01 0.002,-0.009 0.003,-0.01 0.003,-0.01 0.003,-0.01 0.003,-0.01 0.003,-0.01 0.003,-0.01 0.003,-0.009 0.003,-0.01 0.003,-0.01 0.004,-0.009 0.003,-0.009 0.003,-0.01 0.004,-0.009 0.003,-0.009 0.004,-0.009 0.003,-0.009 0.004,-0.009 0.004,-0.009 0.004,-0.009 0.004,-0.009 0.004,-0.009 0.004,-0.009 0.004,-0.009 0.004,-0.009 0.004,-0.009 0.004,-0.009 0.004,-0.009 0.004,-0.009 0.005,-0.009 0.004,-0.009 0.005,-0.009 0.005,-0.009 0.004,-0.009 0.005,-0.009 0.005,-0.008 0.005,-0.009 0.005,-0.009 0.005,-0.008 0.005,-0.009 0.005,-0.008 0.005,-0.009 0.005,-0.008 0.005,-0.009 0.005,-0.008 0.005,-0.008 0.005,-0.008 0.005,-0.008 0.005,-0.008 0.005,-0.008 0.005,-0.008 0.006,-0.008 0.005,-0.008 0.006,-0.008 0.006,-0.008 0.006,-0.008 0.006,-0.008 0.006,-0.008 0.006,-0.008 0.006,-0.007 0.006,-0.008 0.006,-0.008 0.006,-0.008 0.006,-0.007 0.006,-0.008 0.006,-0.007 0.006,-0.008 0.006,-0.007 0.006,-0.007 0.006,-0.008 0.006,-0.007 0.006,-0.007 0.006,-0.007 0.006,-0.007 0.007,-0.007 0.006,-0.007 0.007,-0.007 0.006,-0.007 0.007,-0.007 0.007,-0.007 0.007,-0.007 0.007,-0.007 0.007,-0.007 0.007,-0.007 0.007,-0.007 0.007,-0.007 0.007,-0.007 0.007,-0.007 0.007,-0.007 0.007,-0.007 0.007,-0.007 0.007,-0.006 0.007,-0.007 0.007,-0.006 0.007,-0.006 0.007,-0.006 0.007,-0.007 0.007,-0.006 0.007,-0.006 0.007,-0.006 0.007,-0.006 0.008,-0.006 0.007,-0.006 0.008,-0.006 0.008,-0.006 0.008,-0.006 0.008,-0.006 0.008,-0.006 0.008,-0.006 0.008,-0.006 0.008,-0.006 0.008,-0.006 0.008,-0.006 0.008,-0.006 0.008,-0.006 0.008,-0.006 0.008,-0.005 0.008,-0.005 0.008,-0.005 0.008,-0.005 0.009,-0.005 0.008,-0.005 0.008,-0.005 0.008,-0.005 0.008,-0.005 0.009,-0.005 0.009,-0.005 0.008,-0.005 0.009,-0.005 0.008,-0.005 0.009,-0.005 0.009,-0.005 0.008,-0.005 0.009,-0.005 0.008,-0.005 0.009,-0.005 0.009,-0.004 0.009,-0.004 0.009,-0.005 0.009,-0.004 0.009,-0.004 0.009,-0.004 0.009,-0.004 0.009,-0.004 0.009,-0.004 0.009,-0.004 0.009,-0.004 0.009,-0.004 0.009,-0.004 0.009,-0.003 0.009,-0.004 0.009,-0.003 0.009,-0.004 0.009,-0.003 0.009,-0.004 0.01,-0.003 0.009,-0.004 0.01,-0.003 0.009,-0.003 0.009,-0.003 0.009,-0.003 0.01,-0.003 0.01,-0.003 0.01,-0.003 0.01,-0.003 0.01,-0.003 0.01,-0.003 0.01,-0.002 0.01,-0.003 0.01,-0.003 0.01,-0.002 0.01,-0.002 0.01,-0.002 0.01,-0.002 0.01,-0.002 0.01,-0.002 0.01,-0.002 0.01,-0.002 0.01,-0.002 0.01,-0.002 0.01,-0.002 0.01,-0.002 0.01,-0.002 0.0102,-0.002 0.01,-0.002 0.01,-0.002 0.0102,-0.001 0.01,-0.002 0.0102,-0.001 0.01,-10e-4 0.0102,-0.001 0.0102,-0.001 0.01,-10e-4 0.0102,-0.001 0.0102,-0.001 0.0102,-10e-4 0.0102,-0.001 0.0102,-0.001 0.0102,-7.1e-4 0.0106,-7.2e-4 0.0102,-10e-4 0.0102,-7.1e-4 0.0102,-3.4e-4 0.0106,-7.2e-4 0.0102,-3.4e-4 0.0106,-3.5e-4 0.0102,-3.4e-4 0.0106,-3.4e-4 0.0102,-3.5e-4 h 0.0106 0.0106 l 0.0106,-3.4e-4 0.0106,3.4e-4 h 0.0102 0.0106 l 0.0106,3.5e-4 0.0102,3.4e-4 0.0106,3.4e-4 0.0102,3.5e-4 0.0106,3.4e-4 0.0102,7.2e-4 0.0106,3.4e-4 0.0102,7.1e-4 0.0102,10e-4 0.0102,7.2e-4 0.0102,7.1e-4 0.0102,0.001 0.0102,0.001 0.0102,10e-4 0.0102,0.001 0.0102,0.001 0.0102,10e-4 0.0102,0.001 0.01,0.001 0.0102,10e-4 0.01,0.001 0.0102,0.002 0.01,0.001 0.0102,0.002 0.01,0.002 0.01,0.002 0.01,0.002 0.0102,0.002 0.01,0.002 0.01,0.002 0.01,0.002 0.01,0.002 0.01,0.002 0.01,0.002 0.01,0.002 0.01,0.002 0.01,0.002 0.01,0.002 0.01,0.002 0.01,0.003 0.01,0.003 0.01,0.002 0.01,0.003 0.01,0.003 0.01,0.003 0.01,0.003 0.009,0.003 0.009,0.003 0.01,0.003 0.009,0.003 0.01,0.003 0.01,0.003 0.009,0.004 0.009,0.003 0.01,0.004 0.009,0.003 0.009,0.004 0.009,0.003 0.009,0.004 0.009,0.003 0.009,0.004 0.009,0.004 0.009,0.004 0.009,0.004 0.009,0.004 0.009,0.004 0.009,0.004 0.009,0.004 0.009,0.004 0.009,0.004 0.009,0.005 0.009,0.004 0.009,0.004 0.008,0.005 0.009,0.005 0.009,0.005 0.009,0.005 0.009,0.005 0.009,0.005 0.008,0.005 0.009,0.005 0.008,0.005 0.009,0.005 0.008,0.005 0.008,0.005 0.009,0.005 0.008,0.005 0.008,0.005 0.008,0.005 0.008,0.005 0.008,0.005 0.008,0.005 0.008,0.005 0.008,0.006 0.008,0.006 0.008,0.006 0.008,0.006 0.008,0.006 0.008,0.006 0.008,0.006 0.008,0.006 0.008,0.006 0.008,0.006 0.008,0.006 0.008,0.006 0.007,0.006 0.008,0.006 0.007,0.006 0.008,0.006 0.007,0.006 0.007,0.006 0.007,0.006 0.007,0.007 0.007,0.006 0.007,0.006 0.007,0.007 0.007,0.006 0.007,0.006 0.007,0.007 0.007,0.007 0.007,0.007 0.007,0.007 0.007,0.007 0.007,0.007 0.007,0.007 0.007,0.007 0.007,0.007 0.007,0.007 0.007,0.007 0.006,0.007 0.007,0.007 0.007,0.007 0.007,0.007 0.006,0.007 0.007,0.007 0.006,0.007 0.006,0.007 0.006,0.007 0.006,0.007 0.006,0.008 0.006,0.007 0.006,0.007 0.006,0.008 0.006,0.007 0.006,0.008 0.006,0.007 0.006,0.008 0.006,0.008 0.006,0.008 0.006,0.007 0.006,0.008 0.006,0.008 0.006,0.008 0.006,0.008 0.006,0.008 0.005,0.008 0.006,0.008 0.005,0.008 0.006,0.008 0.005,0.008 0.005,0.008 0.005,0.008 0.005,0.008 0.005,0.008 0.005,0.008 0.005,0.009 0.005,0.008 0.005,0.009 0.005,0.008 0.005,0.009 0.005,0.008 0.005,0.009 0.005,0.009 0.005,0.008 0.005,0.009 0.005,0.009 0.005,0.009 0.005,0.009 0.004,0.009 0.004,0.009 0.005,0.009 0.004,0.009 0.004,0.009 0.004,0.009 0.004,0.009 0.004,0.009 0.004,0.009 0.004,0.009 0.004,0.009 0.004,0.009 0.004,0.009 0.004,0.009 0.004,0.009 0.003,0.009 0.004,0.009 0.003,0.009 0.003,0.01 0.003,0.009 0.003,0.009 0.003,0.01 0.003,0.01 0.003,0.009 0.003,0.01 0.003,0.01 0.003,0.01 0.003,0.01 0.003,0.01 0.003,0.01 0.003,0.009 0.003,0.01 0.002,0.01 0.003,0.01 0.002,0.01 0.002,0.01 0.002,0.01 0.002,0.009 0.002,0.01 0.002,0.01 0.002,0.01 0.002,0.01 0.002,0.01 0.002,0.01 0.002,0.01 0.002,0.01 0.002,0.01 0.002,0.0102 0.001,0.01 0.002,0.01 0.001,0.0102 0.002,0.01 0.001,0.0102 0.001,0.0102 10e-4,0.0102 0.001,0.01 0.001,0.0102 10e-4,0.0102 0.001,0.0102 0.001,0.0102 7.1e-4,0.0102 0.001,0.0102 7.2e-4,0.0102 7.1e-4,0.0106 7.2e-4,0.0102 7.1e-4,0.0102 3.5e-4,0.005 h -7.2e-4 l -3.4e-4,0.32562 z m 3.3521,-0.24906 v -0.0131 -0.0134 l -3.5e-4,-0.0134 -3.4e-4,-0.0134 -3.5e-4,-0.0134 -3.4e-4,-0.0134 -7.1e-4,-0.0134 -3.5e-4,-0.0134 -0.001,-0.0134 -7.1e-4,-0.013 -7.2e-4,-0.0134 -0.001,-0.0134 -0.001,-0.0131 -10e-4,-0.0134 -0.001,-0.013 -10e-4,-0.0131 -0.001,-0.0134 -0.001,-0.013 -0.002,-0.0131 -0.001,-0.013 -0.002,-0.0131 -0.002,-0.0131 -0.002,-0.013 -0.002,-0.0131 -0.002,-0.0131 -0.002,-0.0127 -0.002,-0.013 -0.002,-0.0127 -0.002,-0.0131 -0.002,-0.0127 -0.002,-0.0131 -0.002,-0.0127 -0.003,-0.0127 -0.002,-0.0127 -0.003,-0.0127 -0.003,-0.0127 -0.003,-0.0124 -0.003,-0.0127 -0.003,-0.0127 -0.003,-0.0123 -0.004,-0.0127 -0.003,-0.0124 -0.003,-0.0127 -0.004,-0.0124 -0.003,-0.0123 -0.004,-0.0124 -0.003,-0.0123 -0.004,-0.0124 -0.004,-0.0123 -0.004,-0.012 -0.004,-0.0123 -0.004,-0.012 -0.004,-0.0124 -0.004,-0.012 -0.004,-0.012 -0.004,-0.0123 -0.005,-0.0116 -0.005,-0.012 -0.005,-0.012 -0.005,-0.012 -0.005,-0.0116 -0.005,-0.012 -0.005,-0.0116 -0.005,-0.012 -0.005,-0.0116 -0.005,-0.0116 -0.005,-0.0116 -0.005,-0.0116 -0.005,-0.0116 -0.005,-0.0113 -0.006,-0.0116 -0.005,-0.0113 -0.006,-0.0116 -0.006,-0.0113 -0.006,-0.0113 -0.006,-0.0113 -0.006,-0.0113 -0.006,-0.0109 -0.006,-0.0113 -0.006,-0.0113 -0.006,-0.0109 -0.006,-0.0113 -0.006,-0.0109 -0.006,-0.0109 -0.006,-0.0109 -0.006,-0.0109 -0.006,-0.0106 -0.007,-0.0109 -0.007,-0.0106 -0.006,-0.0109 -0.007,-0.0106 -0.007,-0.0106 -0.007,-0.0106 -0.007,-0.0106 -0.007,-0.0106 -0.007,-0.0102 -0.007,-0.0106 -0.007,-0.0102 -0.007,-0.0102 -0.007,-0.0102 -0.007,-0.0102 -0.007,-0.0102 -0.007,-0.0102 -0.007,-0.01 -0.007,-0.0102 -0.008,-0.01 -0.008,-0.01 -0.008,-0.01 -0.008,-0.01 -0.008,-0.01 -0.008,-0.01 -0.008,-0.01 -0.008,-0.009 -0.008,-0.01 -0.008,-0.01 -0.008,-0.01 -0.008,-0.009 -0.009,-0.01 -0.008,-0.01 -0.008,-0.009 -0.009,-0.009 -0.008,-0.009 -0.009,-0.009 -0.009,-0.009 -0.008,-0.009 -0.009,-0.009 -0.009,-0.009 -0.009,-0.009 -0.009,-0.008 -0.009,-0.009 -0.009,-0.009 -0.009,-0.009 -0.009,-0.008 -0.009,-0.009 -0.009,-0.009 -0.01,-0.008 -0.009,-0.008 -0.009,-0.009 -0.01,-0.008 -0.01,-0.008 -0.01,-0.008 -0.01,-0.008 -0.01,-0.008 -0.01,-0.008 -0.01,-0.008 -0.01,-0.008 -0.01,-0.008 -0.01,-0.008 -0.01,-0.008 -0.01,-0.007 -0.0102,-0.008 -0.01,-0.007 -0.0102,-0.008 -0.01,-0.007 -0.0102,-0.007 -0.0102,-0.007 -0.0102,-0.007 -0.0106,-0.007 -0.0102,-0.007 -0.0102,-0.007 -0.0106,-0.007 -0.0106,-0.007 -0.0106,-0.007 -0.0106,-0.007 -0.0106,-0.007 -0.0106,-0.007 -0.0106,-0.007 -0.0109,-0.007 -0.0106,-0.006 -0.0109,-0.006 -0.0109,-0.006 -0.0109,-0.006 -0.0109,-0.006 -0.0109,-0.006 -0.0109,-0.006 -0.0113,-0.006 -0.0109,-0.006 -0.0113,-0.006 -0.0113,-0.006 -0.0113,-0.006 -0.0113,-0.006 -0.0113,-0.006 -0.0113,-0.006 -0.0113,-0.006 -0.0116,-0.006 -0.0113,-0.005 -0.0116,-0.005 -0.0116,-0.005 -0.0116,-0.005 -0.0116,-0.005 -0.0116,-0.005 -0.0116,-0.005 -0.0116,-0.005 -0.012,-0.005 -0.0116,-0.005 -0.012,-0.005 -0.012,-0.005 -0.0116,-0.005 -0.012,-0.004 -0.012,-0.005 -0.012,-0.004 -0.0123,-0.004 -0.012,-0.004 -0.012,-0.004 -0.0124,-0.004 -0.012,-0.004 -0.0124,-0.004 -0.0123,-0.004 -0.0124,-0.004 -0.0123,-0.003 -0.0124,-0.004 -0.0124,-0.003 -0.0123,-0.004 -0.0124,-0.003 -0.0127,-0.003 -0.0123,-0.003 -0.0127,-0.003 -0.0124,-0.003 -0.0127,-0.003 -0.0127,-0.003 -0.0127,-0.003 -0.0127,-0.003 -0.0127,-0.003 -0.0127,-0.002 -0.0127,-0.003 -0.0131,-0.003 -0.0127,-0.002 -0.0127,-0.002 -0.0131,-0.002 -0.0127,-0.002 -0.0131,-0.002 -0.013,-0.002 -0.0131,-0.002 -0.013,-0.002 -0.0131,-0.002 -0.0131,-0.002 -0.013,-10e-4 -0.0131,-0.002 -0.0131,-10e-4 -0.013,-0.001 -0.0134,-0.001 -0.0131,-10e-4 -0.0134,-0.001 -0.0131,-0.001 -0.0134,-10e-4 -0.0131,-0.001 -0.0134,-7.2e-4 -0.0134,-7.1e-4 -0.0134,-7.2e-4 -0.0134,-3.4e-4 -0.0134,-7.2e-4 -0.0134,-3.4e-4 -0.0134,-3.4e-4 h -0.0134 -0.0134 l -0.0134,-3.5e-4 -0.0134,3.5e-4 h -0.0138 -0.0134 l -0.0134,3.4e-4 -0.0134,3.4e-4 -0.0134,7.2e-4 -0.0134,3.4e-4 -0.0134,7.2e-4 -0.013,7.1e-4 -0.0134,7.2e-4 -0.0134,0.001 -0.013,10e-4 -0.0134,0.001 -0.013,0.001 -0.0134,10e-4 -0.0131,0.001 -0.013,0.001 -0.0134,10e-4 -0.0131,0.002 -0.013,10e-4 -0.0131,0.002 -0.013,0.002 -0.0131,0.002 -0.0131,0.002 -0.0127,0.002 -0.013,0.002 -0.0131,0.002 -0.0127,0.002 -0.0131,0.002 -0.0127,0.002 -0.0127,0.003 -0.0127,0.003 -0.0131,0.002 -0.0127,0.003 -0.0127,0.003 -0.0127,0.003 -0.0123,0.003 -0.0127,0.003 -0.0127,0.003 -0.0123,0.003 -0.0127,0.003 -0.0124,0.003 -0.0123,0.003 -0.0127,0.004 -0.0124,0.003 -0.0123,0.004 -0.0124,0.003 -0.0123,0.004 -0.012,0.004 -0.0124,0.004 -0.0123,0.004 -0.012,0.004 -0.0123,0.004 -0.012,0.004 -0.012,0.004 -0.012,0.004 -0.012,0.005 -0.012,0.004 -0.012,0.005 -0.0116,0.005 -0.012,0.005 -0.012,0.005 -0.0116,0.005 -0.0116,0.005 -0.012,0.005 -0.0116,0.005 -0.0116,0.005 -0.0113,0.005 -0.0116,0.005 -0.0116,0.005 -0.0113,0.005 -0.0116,0.006 -0.0113,0.006 -0.0113,0.006 -0.0116,0.006 -0.0113,0.006 -0.0109,0.006 -0.0113,0.006 -0.0113,0.006 -0.0109,0.006 -0.0113,0.006 -0.0109,0.006 -0.0109,0.006 -0.0109,0.006 -0.0109,0.006 -0.0109,0.006 -0.0109,0.006 -0.0109,0.006 -0.0106,0.007 -0.0106,0.007 -0.0109,0.007 -0.0106,0.007 -0.0106,0.007 -0.0106,0.007 -0.0102,0.007 -0.0106,0.007 -0.0102,0.007 -0.0106,0.007 -0.0102,0.007 -0.0102,0.007 -0.0102,0.007 -0.0102,0.007 -0.0102,0.007 -0.01,0.008 -0.01,0.007 -0.0102,0.008 -0.01,0.007 -0.01,0.008 -0.01,0.008 -0.01,0.008 -0.01,0.008 -0.01,0.008 -0.01,0.008 -0.01,0.008 -0.01,0.008 -0.01,0.008 -0.01,0.008 -0.01,0.008 -0.009,0.009 -0.01,0.008 -0.009,0.008 -0.009,0.009 -0.009,0.009 -0.009,0.008 -0.009,0.009 -0.009,0.009 -0.009,0.009 -0.009,0.008 -0.009,0.009 -0.009,0.009 -0.009,0.009 -0.009,0.009 -0.009,0.009 -0.008,0.009 -0.009,0.009 -0.008,0.009 -0.009,0.009 -0.008,0.01 -0.008,0.01 -0.009,0.009 -0.008,0.01 -0.008,0.01 -0.008,0.01 -0.008,0.009 -0.008,0.01 -0.008,0.01 -0.008,0.01 -0.008,0.01 -0.007,0.01 -0.008,0.01 -0.008,0.01 -0.007,0.0102 -0.007,0.01 -0.007,0.0102 -0.007,0.0102 -0.007,0.0102 -0.007,0.0102 -0.007,0.0102 -0.007,0.0102 -0.007,0.0106 -0.007,0.0102 -0.007,0.0106 -0.007,0.0106 -0.007,0.0106 -0.007,0.0106 -0.007,0.0106 -0.007,0.0109 -0.006,0.0106 -0.007,0.0109 -0.006,0.0106 -0.006,0.0109 -0.006,0.0109 -0.006,0.0109 -0.006,0.0109 -0.006,0.0113 -0.006,0.0109 -0.006,0.0113 -0.006,0.0113 -0.006,0.0109 -0.006,0.0113 -0.006,0.0113 -0.006,0.0113 -0.006,0.0113 -0.006,0.0116 -0.005,0.0113 -0.006,0.0116 -0.005,0.0113 -0.005,0.0116 -0.005,0.0116 -0.005,0.0116 -0.005,0.0116 -0.005,0.0116 -0.005,0.012 -0.005,0.0116 -0.005,0.012 -0.005,0.0116 -0.005,0.012 -0.005,0.012 -0.005,0.012 -0.005,0.0116 -0.004,0.0123 -0.004,0.012 -0.004,0.012 -0.004,0.0124 -0.004,0.012 -0.004,0.0123 -0.004,0.012 -0.004,0.0123 -0.004,0.0124 -0.003,0.0123 -0.004,0.0124 -0.003,0.0123 -0.003,0.0124 -0.004,0.0127 -0.003,0.0124 -0.003,0.0127 -0.003,0.0123 -0.003,0.0127 -0.003,0.0127 -0.003,0.0124 -0.003,0.0127 -0.003,0.0127 -0.003,0.0127 -0.002,0.0127 -0.002,0.0127 -0.002,0.0131 -0.002,0.0127 -0.002,0.0131 -0.002,0.0127 -0.002,0.013 -0.002,0.0127 -0.002,0.0131 -0.002,0.0131 -0.002,0.013 -0.002,0.0131 -0.002,0.0131 -0.001,0.013 -0.002,0.0131 -0.001,0.013 -10e-4,0.0134 -0.001,0.0131 -0.001,0.013 -10e-4,0.0134 -0.001,0.0131 -0.001,0.0134 -7.1e-4,0.0134 -10e-4,0.013 -7.2e-4,0.0134 -7.1e-4,0.0134 -3.4e-4,0.0134 -3.5e-4,0.0134 -3.4e-4,0.0134 -3.5e-4,0.0134 -3.4e-4,0.007 h -0.003 v 0.17991 h -0.007 v 1.75648 h 0.4191 v -1.17334 l 3.29918,-0.0229 -0.001,1.19204 h 0.46319 l 0.002,-1.89936 z" />
    <path
       inkscape:connector-curvature="0"
       id="path92-3"
       style="fill:#ffffff;fill-opacity:1;fill-rule:nonzero;stroke:none;stroke-width:0.35277775"
       d="m 103.26416,93.757227 -0.35242,-0.006 -0.01,-0.24166 h 0.003 v -0.0113 l 2.6e-4,-0.0106 v -0.0106 l 2.6e-4,-0.0102 2.7e-4,-0.0106 2.6e-4,-0.0106 2.7e-4,-0.0102 2.6e-4,-0.0102 8e-4,-0.0106 7.9e-4,-0.0102 7.9e-4,-0.0102 8e-4,-0.0106 7.9e-4,-0.0102 10e-4,-0.0102 8e-4,-0.0102 10e-4,-0.0102 0.001,-0.0102 0.001,-0.0102 10e-4,-0.0102 0.001,-0.0102 0.001,-0.01 10e-4,-0.0102 0.001,-0.0102 0.001,-0.01 0.002,-0.0102 0.001,-0.01 0.002,-0.01 0.002,-0.0102 0.002,-0.01 0.002,-0.01 0.002,-0.01 0.002,-0.01 0.002,-0.01 0.002,-0.01 0.002,-0.01 0.002,-0.01 0.002,-0.01 0.002,-0.01 0.002,-0.01 0.002,-0.01 0.002,-0.01 0.002,-0.01 0.003,-0.01 0.003,-0.01 0.002,-0.01 0.003,-0.01 0.003,-0.01 0.003,-0.01 0.003,-0.01 0.003,-0.01 0.003,-0.01 0.003,-0.009 0.003,-0.01 0.003,-0.01 0.003,-0.009 0.004,-0.009 0.003,-0.01 0.004,-0.009 0.003,-0.009 0.004,-0.009 0.003,-0.009 0.004,-0.009 0.004,-0.009 0.004,-0.009 0.004,-0.009 0.004,-0.009 0.004,-0.009 0.004,-0.009 0.004,-0.009 0.004,-0.009 0.004,-0.009 0.004,-0.009 0.004,-0.009 0.005,-0.009 0.004,-0.008 0.005,-0.009 0.004,-0.009 0.005,-0.009 0.005,-0.009 0.005,-0.008 0.005,-0.009 0.005,-0.008 0.005,-0.009 0.005,-0.009 0.005,-0.008 0.005,-0.009 0.005,-0.008 0.005,-0.009 0.005,-0.008 0.005,-0.008 0.005,-0.008 0.005,-0.008 0.005,-0.008 0.005,-0.008 0.005,-0.008 0.006,-0.008 0.005,-0.008 0.006,-0.008 0.006,-0.008 0.006,-0.008 0.006,-0.008 0.006,-0.008 0.006,-0.008 0.006,-0.007 0.006,-0.008 0.006,-0.008 0.006,-0.008 0.006,-0.007 0.006,-0.008 0.006,-0.007 0.006,-0.008 0.006,-0.007 0.006,-0.007 0.006,-0.008 0.006,-0.007 0.006,-0.007 0.006,-0.007 0.006,-0.007 0.007,-0.007 0.006,-0.007 0.007,-0.007 0.006,-0.007 0.007,-0.007 0.007,-0.007 0.007,-0.007 0.007,-0.007 0.007,-0.007 0.007,-0.007 0.007,-0.007 0.007,-0.007 0.007,-0.007 0.007,-0.007 0.007,-0.007 0.007,-0.007 0.007,-0.007 0.007,-0.006 0.007,-0.007 0.007,-0.006 0.007,-0.006 0.007,-0.006 0.007,-0.007 0.007,-0.006 0.007,-0.006 0.007,-0.006 0.007,-0.006 0.008,-0.006 0.007,-0.006 0.008,-0.006 0.008,-0.006 0.008,-0.006 0.008,-0.006 0.008,-0.006 0.008,-0.006 0.008,-0.006 0.008,-0.006 0.008,-0.006 0.008,-0.006 0.008,-0.006 0.008,-0.006 0.008,-0.006 0.008,-0.005 0.008,-0.005 0.008,-0.005 0.008,-0.005 0.009,-0.005 0.008,-0.005 0.008,-0.005 0.008,-0.005 0.008,-0.005 0.009,-0.005 0.009,-0.005 0.008,-0.005 0.009,-0.005 0.008,-0.005 0.009,-0.005 0.009,-0.005 0.008,-0.005 0.009,-0.005 0.008,-0.005 0.009,-0.005 0.009,-0.004 0.009,-0.004 0.009,-0.005 0.009,-0.004 0.009,-0.004 0.009,-0.004 0.009,-0.004 0.009,-0.004 0.009,-0.004 0.009,-0.004 0.009,-0.004 0.009,-0.004 0.009,-0.004 0.009,-0.003 0.009,-0.004 0.009,-0.003 0.009,-0.004 0.009,-0.004 0.009,-0.003 0.01,-0.003 0.009,-0.004 0.01,-0.003 0.009,-0.003 0.009,-0.003 0.009,-0.003 0.01,-0.003 0.01,-0.003 0.01,-0.003 0.01,-0.003 0.01,-0.003 0.01,-0.003 0.01,-0.002 0.01,-0.003 0.01,-0.003 0.01,-0.002 0.01,-0.002 0.01,-0.002 0.01,-0.002 0.01,-0.002 0.01,-0.002 0.01,-0.002 0.01,-0.002 0.01,-0.002 0.01,-0.002 0.01,-0.002 0.01,-0.002 0.01,-0.002 0.01,-0.002 0.0102,-0.002 0.01,-0.002 0.0102,-0.001 0.01,-0.002 0.0102,-0.001 0.01,-0.001 0.0102,-10e-4 0.0102,-0.001 0.01,-0.001 0.0102,-10e-4 0.0102,-0.001 0.0102,-0.001 0.0102,-10e-4 0.0102,-0.001 0.0102,-7.1e-4 0.0102,-7.1e-4 0.0106,-0.001 0.0102,-7.2e-4 0.0102,-3.4e-4 0.0106,-7.2e-4 0.0102,-3.4e-4 0.0106,-7.2e-4 0.0102,-3.4e-4 h 0.0106 l 0.0102,-3.4e-4 h 0.0106 0.0106 l 0.0106,-3.5e-4 0.0102,3.5e-4 h 0.0106 0.0106 l 0.0106,3.4e-4 h 0.0102 l 0.0106,3.4e-4 0.0102,7.2e-4 0.0106,3.4e-4 0.0102,7.2e-4 0.0102,3.4e-4 0.0106,7.2e-4 0.0102,0.001 0.0102,7.1e-4 0.0102,7.1e-4 0.0102,0.001 0.0102,10e-4 0.0102,0.001 0.0102,0.001 0.0102,10e-4 0.0102,0.001 0.0102,0.001 0.01,10e-4 0.0102,0.001 0.01,0.001 0.0102,0.002 0.01,0.001 0.0102,0.002 0.01,0.002 0.01,0.002 0.01,0.002 0.0102,0.002 0.01,0.002 0.01,0.002 0.01,0.002 0.01,0.002 0.01,0.002 0.01,0.002 0.01,0.002 0.01,0.002 0.01,0.002 0.01,0.002 0.01,0.002 0.01,0.003 0.01,0.003 0.01,0.002 0.01,0.003 0.01,0.003 0.01,0.003 0.009,0.003 0.01,0.003 0.009,0.003 0.01,0.003 0.009,0.003 0.01,0.003 0.01,0.003 0.009,0.004 0.009,0.003 0.009,0.003 0.01,0.004 0.009,0.004 0.009,0.003 0.009,0.004 0.009,0.003 0.009,0.004 0.009,0.004 0.009,0.004 0.009,0.004 0.009,0.004 0.009,0.004 0.009,0.004 0.009,0.004 0.009,0.004 0.009,0.004 0.009,0.005 0.009,0.004 0.008,0.004 0.009,0.005 0.009,0.005 0.008,0.005 0.009,0.005 0.009,0.005 0.009,0.005 0.008,0.005 0.009,0.005 0.008,0.005 0.009,0.005 0.008,0.005 0.008,0.005 0.009,0.005 0.008,0.005 0.008,0.005 0.008,0.005 0.008,0.005 0.008,0.005 0.008,0.005 0.008,0.005 0.008,0.006 0.008,0.006 0.008,0.006 0.008,0.006 0.008,0.006 0.008,0.006 0.008,0.006 0.008,0.006 0.008,0.006 0.008,0.006 0.008,0.006 0.008,0.006 0.007,0.006 0.008,0.006 0.007,0.006 0.008,0.006 0.007,0.006 0.007,0.006 0.007,0.006 0.007,0.007 0.007,0.006 0.007,0.006 0.007,0.006 0.007,0.007 0.007,0.006 0.007,0.007 0.007,0.007 0.007,0.007 0.007,0.007 0.007,0.007 0.007,0.007 0.007,0.007 0.007,0.007 0.007,0.007 0.007,0.007 0.007,0.007 0.007,0.007 0.007,0.007 0.007,0.007 0.007,0.007 0.006,0.007 0.007,0.007 0.006,0.007 0.006,0.007 0.006,0.007 0.006,0.007 0.006,0.008 0.006,0.007 0.006,0.007 0.006,0.008 0.006,0.007 0.006,0.008 0.006,0.007 0.006,0.008 0.006,0.008 0.006,0.008 0.006,0.007 0.006,0.008 0.006,0.008 0.006,0.008 0.006,0.008 0.006,0.008 0.005,0.008 0.006,0.008 0.005,0.008 0.006,0.008 0.005,0.008 0.005,0.008 0.005,0.008 0.005,0.008 0.005,0.008 0.005,0.008 0.005,0.009 0.005,0.008 0.005,0.009 0.005,0.008 0.005,0.009 0.005,0.009 0.005,0.008 0.005,0.009 0.005,0.008 0.005,0.009 0.005,0.009 0.005,0.009 0.005,0.009 0.004,0.008 0.004,0.009 0.005,0.009 0.004,0.009 0.004,0.009 0.004,0.009 0.004,0.009 0.004,0.009 0.004,0.009 0.004,0.009 0.004,0.009 0.004,0.009 0.004,0.009 0.004,0.009 0.004,0.009 0.003,0.009 0.004,0.009 0.003,0.009 0.004,0.01 0.003,0.009 0.003,0.009 0.003,0.01 0.003,0.01 0.003,0.009 0.003,0.01 0.003,0.01 0.003,0.01 0.003,0.01 0.003,0.01 0.003,0.01 0.003,0.01 0.003,0.01 0.002,0.01 0.003,0.01 0.002,0.01 0.002,0.01 0.002,0.01 0.002,0.01 0.002,0.01 0.002,0.01 0.002,0.01 0.002,0.01 0.002,0.01 0.002,0.01 0.002,0.01 0.002,0.01 0.002,0.01 0.002,0.0102 10e-4,0.01 0.002,0.01 10e-4,0.0102 0.002,0.01 10e-4,0.0102 0.001,0.0102 0.001,0.01 10e-4,0.0102 0.001,0.0102 0.001,0.0102 10e-4,0.0102 7.9e-4,0.0102 10e-4,0.0102 0.001,0.0102 7.9e-4,0.0102 8e-4,0.0106 7.9e-4,0.0102 7.9e-4,0.0102 2.7e-4,0.005 h -7.9e-4 l -2.7e-4,0.32562 z m 3.3521,-0.24906 v -0.0131 -0.0134 l -2.7e-4,-0.0134 -2.6e-4,-0.0134 -2.7e-4,-0.0134 -2.6e-4,-0.0134 -8e-4,-0.0134 -2.6e-4,-0.0134 -0.001,-0.0134 -7.9e-4,-0.013 -8e-4,-0.0134 -10e-4,-0.0134 -0.001,-0.0131 -0.001,-0.0134 -10e-4,-0.013 -0.001,-0.0131 -0.001,-0.0134 -10e-4,-0.013 -0.002,-0.0131 -10e-4,-0.013 -0.002,-0.0131 -0.002,-0.0131 -0.002,-0.013 -0.002,-0.0131 -0.002,-0.0131 -0.002,-0.0127 -0.002,-0.013 -0.002,-0.0127 -0.002,-0.0131 -0.002,-0.0127 -0.002,-0.0131 -0.002,-0.0127 -0.003,-0.0127 -0.002,-0.0127 -0.003,-0.0127 -0.003,-0.0127 -0.003,-0.0127 -0.003,-0.0124 -0.003,-0.0127 -0.003,-0.0123 -0.003,-0.0127 -0.003,-0.0127 -0.003,-0.0124 -0.003,-0.0124 -0.004,-0.0123 -0.003,-0.0124 -0.004,-0.0123 -0.003,-0.0124 -0.004,-0.0123 -0.004,-0.012 -0.004,-0.0123 -0.004,-0.012 -0.004,-0.0123 -0.004,-0.012 -0.004,-0.012 -0.004,-0.0123 -0.005,-0.0116 -0.005,-0.012 -0.005,-0.012 -0.005,-0.012 -0.005,-0.0116 -0.005,-0.012 -0.005,-0.0116 -0.005,-0.012 -0.005,-0.0116 -0.005,-0.0116 -0.005,-0.0116 -0.005,-0.0116 -0.005,-0.0116 -0.006,-0.0113 -0.005,-0.0116 -0.005,-0.0113 -0.006,-0.0116 -0.006,-0.0113 -0.006,-0.0113 -0.006,-0.0113 -0.006,-0.0113 -0.006,-0.0109 -0.006,-0.0113 -0.006,-0.0113 -0.006,-0.0109 -0.006,-0.0113 -0.006,-0.0109 -0.006,-0.0109 -0.006,-0.0109 -0.006,-0.0109 -0.006,-0.0106 -0.007,-0.0109 -0.007,-0.0106 -0.006,-0.0109 -0.007,-0.0106 -0.007,-0.0106 -0.007,-0.0106 -0.007,-0.0106 -0.007,-0.0106 -0.007,-0.0102 -0.007,-0.0106 -0.007,-0.0102 -0.007,-0.0102 -0.007,-0.0102 -0.007,-0.0102 -0.007,-0.0102 -0.007,-0.0102 -0.007,-0.01 -0.008,-0.0102 -0.007,-0.01 -0.008,-0.01 -0.008,-0.01 -0.008,-0.01 -0.008,-0.01 -0.008,-0.01 -0.008,-0.01 -0.008,-0.01 -0.008,-0.01 -0.008,-0.01 -0.008,-0.009 -0.008,-0.01 -0.008,-0.009 -0.008,-0.01 -0.009,-0.009 -0.008,-0.009 -0.009,-0.009 -0.008,-0.009 -0.009,-0.009 -0.009,-0.009 -0.009,-0.009 -0.009,-0.009 -0.009,-0.009 -0.009,-0.009 -0.009,-0.009 -0.009,-0.009 -0.009,-0.009 -0.009,-0.009 -0.009,-0.008 -0.009,-0.009 -0.01,-0.009 -0.009,-0.008 -0.01,-0.009 -0.009,-0.009 -0.01,-0.008 -0.01,-0.008 -0.009,-0.008 -0.01,-0.008 -0.01,-0.008 -0.01,-0.008 -0.01,-0.008 -0.01,-0.008 -0.01,-0.008 -0.01,-0.008 -0.01,-0.007 -0.0102,-0.008 -0.01,-0.007 -0.0102,-0.008 -0.01,-0.007 -0.0102,-0.007 -0.0102,-0.007 -0.0102,-0.007 -0.0106,-0.007 -0.0102,-0.007 -0.0102,-0.007 -0.0106,-0.007 -0.0106,-0.007 -0.0106,-0.007 -0.0106,-0.007 -0.0106,-0.007 -0.0106,-0.007 -0.0106,-0.007 -0.0109,-0.007 -0.0106,-0.006 -0.0109,-0.006 -0.0109,-0.006 -0.0109,-0.006 -0.0109,-0.006 -0.0109,-0.006 -0.0109,-0.006 -0.0113,-0.006 -0.0109,-0.006 -0.0113,-0.006 -0.0113,-0.006 -0.0113,-0.006 -0.0113,-0.006 -0.0113,-0.006 -0.0113,-0.006 -0.0113,-0.006 -0.0116,-0.006 -0.0113,-0.005 -0.0116,-0.005 -0.0116,-0.005 -0.0116,-0.005 -0.0116,-0.005 -0.0116,-0.005 -0.0116,-0.005 -0.0116,-0.005 -0.012,-0.005 -0.0116,-0.005 -0.012,-0.005 -0.012,-0.005 -0.0116,-0.005 -0.012,-0.004 -0.012,-0.005 -0.012,-0.004 -0.0124,-0.004 -0.012,-0.004 -0.012,-0.004 -0.0124,-0.004 -0.012,-0.004 -0.0124,-0.004 -0.0124,-0.004 -0.0124,-0.004 -0.0124,-0.003 -0.0124,-0.004 -0.0124,-0.003 -0.0124,-0.003 -0.0124,-0.003 -0.0127,-0.003 -0.0124,-0.003 -0.0127,-0.003 -0.0124,-0.003 -0.0127,-0.003 -0.0127,-0.003 -0.0127,-0.003 -0.0127,-0.003 -0.0127,-0.003 -0.0127,-0.002 -0.0127,-0.003 -0.013,-0.002 -0.0127,-0.002 -0.0127,-0.002 -0.013,-0.002 -0.0127,-0.002 -0.013,-0.002 -0.013,-0.002 -0.013,-0.002 -0.013,-0.002 -0.013,-0.002 -0.013,-0.002 -0.013,-0.001 -0.013,-0.002 -0.013,-0.001 -0.013,-0.001 -0.0134,-10e-4 -0.013,-0.001 -0.0134,-0.001 -0.013,-10e-4 -0.0134,-0.001 -0.013,-0.001 -0.0134,-7.2e-4 -0.0134,-7.1e-4 -0.0134,-7.2e-4 -0.0134,-3.4e-4 -0.0134,-7.2e-4 -0.0134,-3.4e-4 -0.0134,-3.4e-4 h -0.0134 -0.0134 l -0.0134,-3.5e-4 -0.0138,3.5e-4 h -0.0134 -0.0134 l -0.0134,3.4e-4 -0.0134,3.4e-4 -0.0134,7.2e-4 -0.0134,3.4e-4 -0.0134,7.2e-4 -0.013,7.1e-4 -0.0134,7.2e-4 -0.0134,0.001 -0.013,0.001 -0.0134,10e-4 -0.013,0.001 -0.0134,0.001 -0.013,10e-4 -0.013,0.001 -0.0134,0.001 -0.013,0.002 -0.013,0.001 -0.013,0.002 -0.013,0.002 -0.013,0.002 -0.013,0.002 -0.0127,0.002 -0.013,0.002 -0.013,0.002 -0.0127,0.002 -0.013,0.002 -0.0127,0.002 -0.0127,0.002 -0.0127,0.003 -0.013,0.002 -0.0127,0.003 -0.0127,0.003 -0.0127,0.003 -0.0124,0.003 -0.0127,0.003 -0.0127,0.003 -0.0124,0.003 -0.0127,0.003 -0.0124,0.003 -0.0124,0.003 -0.0127,0.003 -0.0124,0.003 -0.0124,0.004 -0.0124,0.003 -0.0124,0.004 -0.012,0.004 -0.0124,0.004 -0.0124,0.004 -0.012,0.004 -0.0124,0.004 -0.012,0.004 -0.012,0.004 -0.012,0.004 -0.012,0.005 -0.012,0.004 -0.012,0.005 -0.012,0.005 -0.0116,0.005 -0.012,0.005 -0.0116,0.005 -0.0116,0.005 -0.012,0.005 -0.0116,0.005 -0.0116,0.005 -0.0116,0.005 -0.0113,0.005 -0.0116,0.005 -0.0113,0.005 -0.0116,0.006 -0.0113,0.006 -0.0116,0.006 -0.0113,0.006 -0.0113,0.006 -0.0113,0.006 -0.0109,0.006 -0.0113,0.006 -0.0113,0.006 -0.0109,0.006 -0.0109,0.006 -0.0109,0.006 -0.0113,0.006 -0.0106,0.006 -0.0109,0.006 -0.0109,0.006 -0.0109,0.006 -0.0106,0.007 -0.0106,0.007 -0.0109,0.007 -0.0106,0.007 -0.0106,0.007 -0.0106,0.007 -0.0102,0.007 -0.0106,0.007 -0.0102,0.007 -0.0106,0.007 -0.0102,0.007 -0.0102,0.007 -0.0102,0.007 -0.0102,0.007 -0.0102,0.007 -0.01,0.008 -0.0102,0.007 -0.01,0.008 -0.01,0.007 -0.01,0.008 -0.01,0.008 -0.01,0.008 -0.01,0.008 -0.01,0.008 -0.009,0.008 -0.01,0.008 -0.01,0.008 -0.01,0.008 -0.01,0.008 -0.01,0.009 -0.009,0.009 -0.01,0.008 -0.009,0.009 -0.009,0.009 -0.009,0.008 -0.009,0.009 -0.009,0.009 -0.009,0.009 -0.009,0.009 -0.009,0.009 -0.009,0.009 -0.009,0.009 -0.009,0.009 -0.009,0.009 -0.009,0.009 -0.008,0.009 -0.009,0.009 -0.008,0.009 -0.009,0.009 -0.008,0.01 -0.008,0.009 -0.008,0.01 -0.008,0.009 -0.008,0.01 -0.008,0.01 -0.008,0.01 -0.008,0.01 -0.008,0.01 -0.008,0.01 -0.008,0.01 -0.007,0.01 -0.008,0.01 -0.008,0.01 -0.007,0.0102 -0.007,0.01 -0.007,0.0102 -0.007,0.0102 -0.007,0.0102 -0.007,0.0102 -0.007,0.0102 -0.007,0.0102 -0.007,0.0106 -0.007,0.0102 -0.007,0.0106 -0.007,0.0106 -0.007,0.0106 -0.007,0.0106 -0.007,0.0106 -0.007,0.0109 -0.006,0.0106 -0.007,0.0109 -0.006,0.0106 -0.006,0.0109 -0.006,0.0109 -0.006,0.0109 -0.006,0.0109 -0.006,0.0113 -0.006,0.0109 -0.006,0.0113 -0.006,0.0113 -0.006,0.0109 -0.006,0.0113 -0.006,0.0113 -0.006,0.0113 -0.006,0.0113 -0.006,0.0116 -0.005,0.0113 -0.006,0.0116 -0.005,0.0113 -0.005,0.0116 -0.005,0.0116 -0.005,0.0116 -0.005,0.0116 -0.005,0.0116 -0.005,0.012 -0.005,0.0116 -0.005,0.012 -0.005,0.0116 -0.005,0.012 -0.005,0.012 -0.005,0.012 -0.005,0.0116 -0.004,0.0123 -0.004,0.012 -0.004,0.012 -0.004,0.0123 -0.004,0.012 -0.004,0.0123 -0.004,0.012 -0.004,0.0123 -0.004,0.0124 -0.004,0.0123 -0.004,0.0124 -0.003,0.0123 -0.004,0.0124 -0.003,0.0124 -0.003,0.0127 -0.003,0.0127 -0.003,0.0123 -0.003,0.0127 -0.003,0.0124 -0.003,0.0127 -0.003,0.0127 -0.003,0.0127 -0.003,0.0127 -0.002,0.0127 -0.002,0.0127 -0.002,0.0131 -0.002,0.0127 -0.002,0.0131 -0.002,0.0127 -0.002,0.013 -0.002,0.0127 -0.002,0.0131 -0.002,0.0131 -0.002,0.013 -0.002,0.0131 -0.002,0.0131 -0.001,0.013 -0.002,0.0131 -0.001,0.013 -10e-4,0.0134 -0.001,0.0131 -0.001,0.013 -10e-4,0.0134 -0.001,0.0131 -0.001,0.0134 -7.9e-4,0.0134 -0.001,0.013 -7.9e-4,0.0134 -8e-4,0.0134 -2.6e-4,0.0134 -2.7e-4,0.0134 -2.6e-4,0.0134 -2.7e-4,0.0134 -2.6e-4,0.007 h -0.003 v 0.17991 h -0.007 v 1.75648 h 0.4191 v -1.17337 l 3.29918,-0.0229 -0.001,1.19203 h 0.4632 l 0.002,-1.89935 z" />
    <path
       inkscape:connector-curvature="0"
       id="path96-9"
       style="fill:#ffffff;fill-opacity:1;fill-rule:nonzero;stroke:none;stroke-width:0.35277775"
       d="m 101.9405,92.388797 -0.007,-0.0109 -0.006,-0.0106 -0.007,-0.0106 -0.007,-0.0109 -0.007,-0.0106 -0.007,-0.0106 -0.007,-0.0106 -0.007,-0.0102 -0.007,-0.0106 -0.007,-0.0102 -0.007,-0.0106 -0.007,-0.0102 -0.007,-0.0102 -0.007,-0.0102 -0.007,-0.0102 -0.008,-0.0102 -0.007,-0.01 -0.007,-0.01 -0.008,-0.0102 -0.008,-0.01 -0.007,-0.01 -0.008,-0.01 -0.008,-0.01 -0.008,-0.01 -0.008,-0.01 -0.008,-0.01 -0.008,-0.01 -0.008,-0.01 -0.008,-0.01 -0.009,-0.01 -0.008,-0.01 -0.008,-0.009 -0.009,-0.01 -0.008,-0.009 -0.009,-0.009 -0.008,-0.009 -0.009,-0.009 -0.009,-0.009 -0.009,-0.009 -0.009,-0.009 -0.009,-0.009 -0.009,-0.009 -0.009,-0.009 -0.009,-0.009 -0.009,-0.008 -0.009,-0.009 -0.009,-0.009 -0.009,-0.008 -0.009,-0.009 -0.01,-0.008 -0.009,-0.009 -0.009,-0.008 -0.01,-0.008 -0.009,-0.008 -0.01,-0.008 -0.01,-0.008 -0.01,-0.008 -0.01,-0.008 -0.01,-0.008 -0.01,-0.008 -0.01,-0.008 -0.01,-0.007 -0.01,-0.008 -0.01,-0.008 -0.0102,-0.007 -0.01,-0.007 -0.0102,-0.007 -0.0102,-0.007 -0.0102,-0.007 -0.0102,-0.007 -0.0102,-0.007 -0.0102,-0.007 -0.0106,-0.007 -0.0106,-0.007 -0.0102,-0.007 -0.0106,-0.007 -0.0106,-0.007 -0.0106,-0.007 -0.0106,-0.007 -0.0109,-0.007 -0.0106,-0.006 -0.0109,-0.007 -0.0109,-0.006 -0.0106,-0.006 -0.0109,-0.006 -0.0109,-0.006 -0.0113,-0.006 -0.0109,-0.006 -0.0109,-0.006 -0.0113,-0.006 -0.0113,-0.006 -0.0109,-0.006 -0.0113,-0.006 -0.0113,-0.006 -0.0113,-0.006 -0.0116,-0.006 -0.0113,-0.006 -0.0113,-0.005 -0.0116,-0.006 -0.0113,-0.005 -0.0116,-0.005 -0.0116,-0.005 -0.0116,-0.005 -0.0116,-0.005 -0.012,-0.005 -0.0116,-0.005 -0.0116,-0.005 -0.012,-0.005 -0.0116,-0.005 -0.012,-0.005 -0.012,-0.005 -0.012,-0.005 -0.012,-0.005 -0.012,-0.004 -0.012,-0.004 -0.012,-0.004 -0.0124,-0.004 -0.012,-0.004 -0.0124,-0.004 -0.012,-0.004 -0.0124,-0.004 -0.0124,-0.004 -0.0124,-0.003 -0.0124,-0.004 -0.0124,-0.004 -0.0124,-0.003 -0.0127,-0.003 -0.0124,-0.004 -0.0127,-0.003 -0.0124,-0.003 -0.0127,-0.003 -0.0127,-0.003 -0.0124,-0.003 -0.0127,-0.003 -0.0127,-0.003 -0.0127,-0.003 -0.0127,-0.002 -0.013,-0.002 -0.0127,-0.002 -0.0127,-0.002 -0.013,-0.002 -0.0127,-0.002 -0.013,-0.002 -0.013,-0.002 -0.0127,-0.002 -0.013,-0.002 -0.013,-0.002 -0.013,-0.002 -0.013,-0.002 -0.013,-0.001 -0.013,-0.002 -0.0134,-0.001 -0.013,-10e-4 -0.013,-0.001 -0.0134,-0.001 -0.013,-10e-4 -0.0134,-0.001 -0.013,-0.001 -0.0134,-7.1e-4 -0.013,-10e-4 -0.0134,-7.1e-4 -0.0134,-7.2e-4 -0.0134,-3.4e-4 -0.0134,-3.5e-4 -0.0134,-3.4e-4 -0.0134,-3.4e-4 -0.007,-3.5e-4 v -0.003 h -0.293869 l -0.0109,-0.11183 h -0.44344 l 0.0286,4.10492 0.23424,-0.004 v 0 l 0.2346,-0.004 -0.0134,-3.26566 0.004,-0.24095 0.225779,-0.009 v 0.003 l 0.0113,3.5e-4 h 0.0106 0.0106 l 0.0102,3.4e-4 0.0106,3.4e-4 0.0102,3.5e-4 0.0106,3.4e-4 0.0102,3.4e-4 0.0106,7.2e-4 0.0102,7.1e-4 0.0102,7.2e-4 0.0102,7.1e-4 0.0106,7.2e-4 0.0102,10e-4 0.0102,7.1e-4 0.0102,0.001 0.0102,0.001 0.0102,10e-4 0.0102,0.001 0.01,0.001 0.0102,10e-4 0.0102,0.001 0.01,0.001 0.0102,10e-4 0.0102,0.002 0.01,10e-4 0.01,0.002 0.0102,0.002 0.01,0.002 0.01,0.002 0.01,0.002 0.01,0.002 0.01,0.002 0.01,0.002 0.01,0.002 0.01,0.002 0.009,0.002 0.01,0.002 0.01,0.002 0.01,0.002 0.01,0.002 0.01,0.003 0.009,0.002 0.01,0.003 0.01,0.002 0.01,0.003 0.01,0.003 0.01,0.003 0.01,0.003 0.01,0.003 0.01,0.003 0.009,0.003 0.01,0.003 0.009,0.003 0.01,0.003 0.009,0.003 0.01,0.004 0.009,0.003 0.009,0.004 0.009,0.003 0.009,0.004 0.009,0.004 0.009,0.003 0.009,0.004 0.009,0.004 0.009,0.004 0.009,0.004 0.009,0.004 0.009,0.004 0.009,0.004 0.009,0.004 0.009,0.004 0.009,0.004 0.009,0.005 0.009,0.004 0.009,0.005 0.009,0.005 0.009,0.004 0.009,0.005 0.008,0.005 0.009,0.005 0.009,0.005 0.008,0.005 0.009,0.005 0.008,0.005 0.009,0.005 0.008,0.005 0.009,0.005 0.008,0.005 0.008,0.005 0.008,0.005 0.009,0.005 0.008,0.005 0.008,0.005 0.008,0.005 0.008,0.006 0.008,0.005 0.008,0.006 0.008,0.006 0.008,0.006 0.008,0.006 0.008,0.006 0.008,0.006 0.008,0.006 0.008,0.006 0.007,0.006 0.008,0.006 0.008,0.006 0.008,0.006 0.007,0.006 0.008,0.006 0.007,0.006 0.007,0.006 0.008,0.006 0.007,0.006 0.007,0.006 0.007,0.006 0.007,0.006 0.007,0.007 0.007,0.006 0.007,0.007 0.007,0.006 0.007,0.007 0.007,0.007 0.007,0.007 0.007,0.007 0.007,0.007 0.007,0.007 0.007,0.007 0.007,0.007 0.007,0.007 0.007,0.007 0.007,0.007 0.007,0.007 0.006,0.007 0.007,0.007 0.007,0.007 0.006,0.007 0.006,0.007 0.004,0.004 h 0.57609 z" />
    <path
       inkscape:connector-curvature="0"
       id="path100-7"
       style="fill:#ffffff;fill-opacity:1;fill-rule:nonzero;stroke:none;stroke-width:0.35277775"
       d="m 93.649271,95.456767 -0.0233,-1.26859 h 0.002 v -0.4191 h -0.9846 v 0.4191 h 0.51365 l 0.008,0.43745 -0.006,0.35242 -0.2413,0.01 v -0.003 h -0.0116 -0.0102 l -0.0106,-3.4e-4 -0.0106,-3.5e-4 h -0.0102 l -0.0106,-3.4e-4 -0.0102,-7.2e-4 -0.0102,-3.4e-4 -0.0106,-7.1e-4 -0.0102,-3.5e-4 -0.0102,-7.1e-4 -0.0106,-0.001 -0.0102,-7.2e-4 -0.0102,-7.1e-4 -0.0102,-0.001 -0.0102,-10e-4 -0.0102,-0.001 -0.0102,-0.001 -0.0102,-10e-4 -0.0102,-0.001 -0.0102,-0.001 -0.01,-10e-4 -0.0102,-0.001 -0.01,-0.001 -0.0102,-0.002 -0.01,-0.001 -0.0102,-0.002 -0.01,-0.002 -0.01,-0.002 -0.01,-0.002 -0.01,-0.002 -0.01,-0.002 -0.01,-0.002 -0.01,-0.002 -0.01,-0.002 -0.01,-0.002 -0.01,-0.002 -0.01,-0.003 -0.01,-0.002 -0.01,-0.002 -0.01,-0.002 -0.01,-0.002 -0.01,-0.003 -0.01,-0.002 -0.01,-0.003 -0.01,-0.003 -0.01,-0.003 -0.01,-0.003 -0.01,-0.003 -0.01,-0.003 -0.01,-0.003 -0.01,-0.003 -0.009,-0.003 -0.01,-0.004 -0.009,-0.003 -0.01,-0.003 -0.009,-0.003 -0.009,-0.003 -0.009,-0.004 -0.01,-0.004 -0.009,-0.003 -0.009,-0.004 -0.009,-0.004 -0.009,-0.004 -0.009,-0.004 -0.009,-0.004 -0.009,-0.004 -0.009,-0.004 -0.009,-0.004 -0.009,-0.004 -0.009,-0.004 -0.009,-0.004 -0.009,-0.004 -0.009,-0.004 -0.009,-0.005 -0.009,-0.004 -0.009,-0.005 -0.009,-0.005 -0.009,-0.005 -0.008,-0.005 -0.009,-0.005 -0.009,-0.005 -0.009,-0.005 -0.008,-0.005 -0.008,-0.005 -0.008,-0.005 -0.009,-0.005 -0.009,-0.005 -0.008,-0.005 -0.008,-0.005 -0.008,-0.005 -0.008,-0.005 -0.008,-0.005 -0.008,-0.005 -0.008,-0.005 -0.008,-0.005 -0.008,-0.006 -0.008,-0.006 -0.008,-0.006 -0.008,-0.006 -0.008,-0.006 -0.008,-0.006 -0.008,-0.006 -0.008,-0.006 -0.008,-0.006 -0.008,-0.006 -0.008,-0.006 -0.007,-0.006 -0.008,-0.006 -0.007,-0.006 -0.008,-0.006 -0.007,-0.006 -0.008,-0.006 -0.007,-0.006 -0.007,-0.006 -0.007,-0.006 -0.007,-0.007 -0.007,-0.006 -0.007,-0.006 -0.007,-0.007 -0.007,-0.006 -0.007,-0.007 -0.007,-0.007 -0.007,-0.007 -0.007,-0.007 -0.007,-0.007 -0.007,-0.007 -0.007,-0.007 -0.007,-0.007 -0.007,-0.007 -0.007,-0.007 -0.007,-0.007 -0.007,-0.007 -0.007,-0.007 -0.007,-0.007 -0.006,-0.007 -0.007,-0.007 -0.006,-0.007 -0.007,-0.007 -0.006,-0.007 -0.007,-0.007 -0.006,-0.007 -0.006,-0.007 -0.006,-0.008 -0.006,-0.007 -0.006,-0.007 -0.006,-0.008 -0.006,-0.008 -0.006,-0.007 -0.006,-0.008 -0.006,-0.008 -0.006,-0.008 -0.006,-0.008 -0.006,-0.008 -0.006,-0.008 -0.006,-0.008 -0.005,-0.008 -0.006,-0.008 -0.006,-0.008 -0.006,-0.008 -0.005,-0.008 -0.005,-0.008 -0.005,-0.008 -0.005,-0.008 -0.005,-0.008 -0.005,-0.009 -0.005,-0.008 -0.005,-0.009 -0.005,-0.008 -0.005,-0.009 -0.005,-0.008 -0.005,-0.009 -0.005,-0.008 -0.005,-0.009 -0.005,-0.008 -0.005,-0.009 -0.005,-0.009 -0.005,-0.008 -0.005,-0.009 -0.005,-0.009 -0.004,-0.009 -0.005,-0.008 -0.004,-0.009 -0.004,-0.009 -0.004,-0.009 -0.004,-0.009 -0.004,-0.009 -0.004,-0.009 -0.004,-0.009 -0.004,-0.009 -0.004,-0.009 -0.004,-0.009 -0.004,-0.009 -0.003,-0.009 -0.004,-0.009 -0.003,-0.009 -0.004,-0.009 -0.004,-0.009 -0.003,-0.009 -0.003,-0.009 -0.004,-0.01 -0.003,-0.009 -0.003,-0.01 -0.003,-0.009 -0.003,-0.01 -0.003,-0.01 -0.003,-0.01 -0.003,-0.01 -0.003,-0.01 -0.003,-0.01 -0.003,-0.01 -0.003,-0.01 -0.002,-0.01 -0.003,-0.01 -0.002,-0.01 -0.002,-0.01 -0.002,-0.01 -0.002,-0.01 -0.002,-0.01 -0.002,-0.01 -0.002,-0.01 -0.002,-0.01 -0.002,-0.01 -0.002,-0.01 -0.002,-0.01 -0.002,-0.01 -0.002,-0.01 -0.002,-0.01 -0.002,-0.0102 -0.002,-0.01 -0.002,-0.01 -10e-4,-0.0102 -0.001,-0.01 -0.001,-0.0102 -10e-4,-0.0102 -0.001,-0.01 -0.001,-0.0102 -10e-4,-0.0102 -0.001,-0.0102 -0.001,-0.0102 -10e-4,-0.0102 -0.001,-0.0102 -7.2e-4,-0.0102 -7.1e-4,-0.0102 -0.001,-0.0102 -7.2e-4,-0.0106 -3.4e-4,-0.0102 -7.1e-4,-0.0102 -3.5e-4,-0.0106 -7.1e-4,-0.0102 -3.5e-4,-0.0106 v -0.0102 l -3.4e-4,-0.0106 -3.4e-4,-0.0106 v -0.0106 -0.0102 -0.0106 -0.0106 l 3.4e-4,-0.0106 3.4e-4,-0.0102 v -0.0106 l 3.5e-4,-0.0102 7.1e-4,-0.0106 3.5e-4,-0.0102 7.1e-4,-0.0106 3.4e-4,-0.0102 7.2e-4,-0.0102 0.001,-0.0106 7.1e-4,-0.0102 7.2e-4,-0.0102 0.001,-0.0102 10e-4,-0.0102 0.001,-0.0102 0.001,-0.0102 10e-4,-0.0102 0.001,-0.0102 0.001,-0.01 10e-4,-0.0102 0.001,-0.0102 0.001,-0.01 10e-4,-0.0102 0.002,-0.01 0.002,-0.01 0.002,-0.0102 0.002,-0.01 0.002,-0.01 0.002,-0.01 0.002,-0.01 0.002,-0.01 0.002,-0.01 0.002,-0.01 0.002,-0.01 0.002,-0.01 0.002,-0.009 0.002,-0.01 0.002,-0.01 0.002,-0.01 0.002,-0.01 0.003,-0.01 0.002,-0.009 0.003,-0.01 0.003,-0.01 0.003,-0.01 0.003,-0.01 0.003,-0.01 0.003,-0.01 0.003,-0.01 0.003,-0.01 0.003,-0.009 0.003,-0.01 0.003,-0.009 0.004,-0.01 0.003,-0.009 0.003,-0.009 0.004,-0.009 0.004,-0.009 0.003,-0.009 0.004,-0.009 0.003,-0.009 0.004,-0.009 0.004,-0.009 0.004,-0.009 0.004,-0.009 0.004,-0.009 0.004,-0.009 0.004,-0.009 0.004,-0.009 0.004,-0.009 0.004,-0.009 0.004,-0.009 0.005,-0.008 0.004,-0.009 0.005,-0.009 0.005,-0.009 0.005,-0.009 0.005,-0.009 0.005,-0.009 0.005,-0.009 0.005,-0.008 0.005,-0.009 0.005,-0.008 0.005,-0.008 0.005,-0.009 0.005,-0.008 0.005,-0.009 0.005,-0.008 0.005,-0.008 0.005,-0.008 0.005,-0.008 0.005,-0.008 0.005,-0.008 0.005,-0.008 0.006,-0.008 0.006,-0.008 0.006,-0.008 0.005,-0.008 0.006,-0.008 0.006,-0.008 0.006,-0.008 0.006,-0.008 0.006,-0.008 0.006,-0.008 0.006,-0.008 0.006,-0.007 0.006,-0.008 0.006,-0.008 0.006,-0.007 0.006,-0.007 0.006,-0.008 0.006,-0.007 0.006,-0.007 0.007,-0.007 0.006,-0.007 0.007,-0.007 0.006,-0.007 0.007,-0.007 0.006,-0.007 0.007,-0.007 0.007,-0.007 0.007,-0.007 0.007,-0.007 0.007,-0.007 0.007,-0.007 0.007,-0.007 0.007,-0.007 0.007,-0.007 0.007,-0.007 0.007,-0.007 0.007,-0.007 0.007,-0.007 0.007,-0.007 0.007,-0.006 0.007,-0.007 0.007,-0.006 0.007,-0.006 0.007,-0.007 0.007,-0.006 0.007,-0.006 0.007,-0.006 0.008,-0.006 0.007,-0.006 0.008,-0.006 0.007,-0.006 0.008,-0.006 0.007,-0.006 0.008,-0.006 0.008,-0.006 0.008,-0.006 0.008,-0.006 0.008,-0.006 0.008,-0.006 0.008,-0.006 0.008,-0.006 0.008,-0.005 0.008,-0.006 0.008,-0.006 0.008,-0.005 0.008,-0.005 0.008,-0.005 0.008,-0.005 0.008,-0.005 0.008,-0.005 0.008,-0.005 0.008,-0.005 0.009,-0.005 0.009,-0.005 0.008,-0.005 0.008,-0.005 0.008,-0.005 0.009,-0.005 0.009,-0.005 0.009,-0.005 0.008,-0.005 0.009,-0.005 0.009,-0.005 0.009,-0.005 0.009,-0.004 0.009,-0.005 0.009,-0.004 0.009,-0.004 0.009,-0.004 0.009,-0.004 0.009,-0.004 0.009,-0.004 0.009,-0.004 0.009,-0.004 0.009,-0.004 0.009,-0.004 0.009,-0.004 0.009,-0.004 0.009,-0.003 0.009,-0.004 0.01,-0.004 0.009,-0.003 0.009,-0.004 0.009,-0.003 0.01,-0.003 0.009,-0.003 0.01,-0.004 0.009,-0.003 0.01,-0.003 0.01,-0.003 0.01,-0.003 0.01,-0.003 0.01,-0.003 0.01,-0.003 0.01,-0.003 0.01,-0.003 0.01,-0.002 0.01,-0.003 0.01,-0.002 0.01,-0.002 0.01,-0.002 0.01,-0.002 0.01,-0.002 0.01,-0.002 0.01,-0.002 0.01,-0.002 0.01,-0.002 0.01,-0.002 0.01,-0.002 0.01,-0.002 0.01,-0.002 0.01,-0.002 0.01,-0.002 0.0102,-0.002 0.01,-0.002 0.0102,-0.001 0.01,-10e-4 0.0102,-0.001 0.01,-0.001 0.0102,-10e-4 0.0102,-0.001 0.0102,-0.001 0.0102,-10e-4 0.0102,-0.001 0.0102,-0.001 0.0102,-10e-4 0.0102,-7.2e-4 0.0102,-0.001 0.0106,-7.1e-4 0.0102,-7.2e-4 0.0102,-3.4e-4 0.0106,-7.1e-4 0.0102,-3.5e-4 0.0102,-7.1e-4 0.0106,-3.5e-4 0.0102,-3.4e-4 h 0.0106 l 0.0106,-3.4e-4 h 0.0106 0.0109 l -0.001,-0.46885 h -0.0127 l -0.0134,3.5e-4 h -0.0134 l -0.0134,3.4e-4 -0.0134,3.5e-4 -0.0134,3.4e-4 -0.0134,7.1e-4 -0.0134,7.2e-4 -0.0134,7.1e-4 -0.0131,7.2e-4 -0.0134,10e-4 -0.0134,7.1e-4 -0.0131,10e-4 -0.0134,0.001 -0.0131,0.001 -0.0134,10e-4 -0.013,0.001 -0.0131,0.001 -0.013,10e-4 -0.0131,0.002 -0.0131,0.002 -0.013,0.002 -0.0131,0.002 -0.0131,0.002 -0.013,0.002 -0.0127,0.002 -0.0131,0.002 -0.0127,0.002 -0.0131,0.002 -0.0127,0.002 -0.013,0.002 -0.0127,0.003 -0.0127,0.002 -0.0127,0.003 -0.0127,0.003 -0.0127,0.003 -0.0127,0.003 -0.0123,0.003 -0.0127,0.003 -0.0127,0.003 -0.0123,0.003 -0.0127,0.003 -0.0124,0.004 -0.0123,0.003 -0.0124,0.004 -0.0123,0.003 -0.0124,0.004 -0.0123,0.004 -0.0124,0.004 -0.012,0.004 -0.0123,0.004 -0.0124,0.004 -0.012,0.004 -0.012,0.004 -0.012,0.004 -0.0124,0.005 -0.012,0.004 -0.0116,0.005 -0.012,0.005 -0.012,0.005 -0.0116,0.005 -0.012,0.005 -0.012,0.005 -0.0116,0.005 -0.0116,0.005 -0.0116,0.005 -0.0116,0.005 -0.0116,0.005 -0.0116,0.005 -0.0113,0.005 -0.0116,0.005 -0.0116,0.006 -0.0113,0.005 -0.0113,0.006 -0.0113,0.006 -0.0113,0.006 -0.0113,0.006 -0.0113,0.006 -0.0109,0.006 -0.0113,0.006 -0.0109,0.006 -0.0113,0.006 -0.0109,0.006 -0.0109,0.006 -0.0109,0.006 -0.0109,0.007 -0.0109,0.006 -0.0106,0.006 -0.0106,0.007 -0.0109,0.007 -0.0106,0.007 -0.0106,0.007 -0.0106,0.007 -0.0106,0.007 -0.0106,0.007 -0.0102,0.007 -0.0106,0.007 -0.0102,0.007 -0.0102,0.007 -0.0106,0.007 -0.0102,0.007 -0.01,0.007 -0.0102,0.007 -0.0102,0.007 -0.01,0.008 -0.01,0.007 -0.0102,0.008 -0.01,0.008 -0.01,0.008 -0.01,0.008 -0.01,0.008 -0.01,0.008 -0.01,0.008 -0.01,0.008 -0.01,0.008 -0.01,0.008 -0.009,0.008 -0.009,0.009 -0.01,0.008 -0.009,0.008 -0.009,0.008 -0.009,0.009 -0.009,0.009 -0.009,0.008 -0.009,0.009 -0.009,0.009 -0.009,0.009 -0.009,0.009 -0.009,0.009 -0.009,0.009 -0.009,0.009 -0.009,0.009 -0.009,0.009 -0.009,0.009 -0.008,0.009 -0.009,0.009 -0.008,0.009 -0.008,0.01 -0.009,0.009 -0.008,0.01 -0.008,0.01 -0.008,0.01 -0.008,0.01 -0.008,0.01 -0.008,0.01 -0.008,0.01 -0.008,0.01 -0.008,0.01 -0.008,0.01 -0.008,0.01 -0.007,0.01 -0.007,0.0102 -0.008,0.01 -0.007,0.0102 -0.007,0.0102 -0.007,0.0102 -0.007,0.0102 -0.007,0.0102 -0.007,0.0102 -0.007,0.0106 -0.007,0.0102 -0.007,0.0106 -0.007,0.0106 -0.007,0.0106 -0.007,0.0106 -0.007,0.0106 -0.007,0.0109 -0.007,0.0106 -0.006,0.0109 -0.007,0.0106 -0.006,0.0109 -0.006,0.0109 -0.006,0.0109 -0.006,0.0109 -0.006,0.0113 -0.006,0.0109 -0.006,0.0113 -0.006,0.0109 -0.006,0.0113 -0.006,0.0113 -0.006,0.0113 -0.006,0.0113 -0.005,0.0113 -0.006,0.0116 -0.006,0.0113 -0.005,0.0116 -0.005,0.0113 -0.005,0.0116 -0.005,0.0116 -0.005,0.0116 -0.005,0.0116 -0.005,0.0116 -0.005,0.012 -0.005,0.0116 -0.005,0.012 -0.005,0.0116 -0.005,0.012 -0.005,0.012 -0.004,0.012 -0.005,0.012 -0.004,0.012 -0.005,0.012 -0.004,0.012 -0.004,0.0123 -0.004,0.012 -0.004,0.0123 -0.004,0.012 -0.004,0.0123 -0.004,0.0124 -0.004,0.0124 -0.003,0.0123 -0.003,0.0124 -0.004,0.0123 -0.003,0.0127 -0.003,0.0124 -0.003,0.0123 -0.003,0.0127 -0.003,0.0127 -0.003,0.0124 -0.003,0.0127 -0.003,0.0127 -0.003,0.0127 -0.003,0.0127 -0.003,0.0127 -0.003,0.0131 -0.002,0.0127 -0.002,0.0127 -0.002,0.0131 -0.002,0.0127 -0.002,0.0131 -0.002,0.0127 -0.002,0.013 -0.002,0.0131 -0.002,0.0131 -0.002,0.013 -0.002,0.0131 -0.002,0.013 -10e-4,0.0131 -0.001,0.0131 -0.001,0.0134 -10e-4,0.0131 -0.001,0.0131 -0.001,0.0134 -7.2e-4,0.0134 -0.001,0.013 -0.001,0.0134 -7.1e-4,0.0131 -7.2e-4,0.0134 -7.1e-4,0.0134 -3.4e-4,0.0134 -7.2e-4,0.0134 -3.4e-4,0.0134 -3.5e-4,0.0134 v 0.0134 0.0134 l -3.4e-4,0.0138 3.4e-4,0.0134 v 0.0134 0.0134 l 3.5e-4,0.0134 3.4e-4,0.0134 7.2e-4,0.0134 3.4e-4,0.0134 7.1e-4,0.0134 7.2e-4,0.0134 7.1e-4,0.0131 0.001,0.0134 0.001,0.0134 7.2e-4,0.0131 0.001,0.0134 0.001,0.0131 10e-4,0.0131 0.001,0.0134 0.001,0.0131 10e-4,0.0131 0.002,0.013 0.002,0.0131 0.002,0.013 0.002,0.0131 0.002,0.0131 0.002,0.013 0.002,0.0127 0.002,0.0131 0.002,0.0127 0.002,0.0131 0.002,0.0127 0.002,0.013 0.003,0.0127 0.003,0.0127 0.003,0.0127 0.003,0.0127 0.003,0.0127 0.003,0.0127 0.003,0.0124 0.003,0.0127 0.003,0.0127 0.003,0.0123 0.003,0.0124 0.003,0.0127 0.004,0.0123 0.003,0.0124 0.003,0.0123 0.004,0.0124 0.004,0.0124 0.004,0.0123 0.004,0.012 0.004,0.0123 0.004,0.012 0.004,0.0123 0.004,0.012 0.005,0.012 0.004,0.012 0.005,0.0123 0.004,0.0116 0.005,0.012 0.005,0.012 0.005,0.0116 0.005,0.012 0.005,0.0116 0.005,0.012 0.005,0.0116 0.005,0.0116 0.005,0.0116 0.005,0.0116 0.005,0.0116 0.005,0.0113 0.005,0.0116 0.006,0.0113 0.006,0.0116 0.005,0.0113 0.006,0.0113 0.006,0.0113 0.006,0.0113 0.006,0.0113 0.006,0.0109 0.006,0.0113 0.006,0.0109 0.006,0.0113 0.006,0.0109 0.006,0.0109 0.006,0.0109 0.006,0.0109 0.007,0.0106 0.006,0.0109 0.007,0.0106 0.007,0.0109 0.007,0.0106 0.007,0.0106 0.007,0.0106 0.007,0.0106 0.007,0.0106 0.007,0.0102 0.007,0.0106 0.007,0.0102 0.007,0.0102 0.007,0.0102 0.007,0.0102 0.007,0.0102 0.007,0.0102 0.008,0.01 0.007,0.0102 0.007,0.01 0.008,0.01 0.008,0.01 0.008,0.01 0.008,0.01 0.008,0.01 0.008,0.01 0.008,0.01 0.008,0.01 0.008,0.01 0.008,0.01 0.008,0.009 0.009,0.01 0.008,0.01 0.008,0.009 0.009,0.009 0.008,0.009 0.009,0.009 0.009,0.009 0.009,0.009 0.009,0.009 0.009,0.009 0.009,0.009 0.009,0.009 0.009,0.008 0.009,0.009 0.009,0.009 0.009,0.009 0.009,0.009 0.009,0.009 0.009,0.009 0.009,0.008 0.01,0.009 0.009,0.008 0.009,0.008 0.01,0.008 0.01,0.008 0.01,0.008 0.01,0.008 0.01,0.008 0.01,0.008 0.01,0.008 0.01,0.008 0.01,0.008 0.0102,0.008 0.01,0.007 0.01,0.007 0.0102,0.008 0.0102,0.007 0.01,0.007 0.0102,0.007 0.0106,0.007 0.0102,0.007 0.0102,0.007 0.0106,0.007 0.0102,0.007 0.0106,0.007 0.0106,0.007 0.0106,0.007 0.0106,0.007 0.0106,0.007 0.0109,0.007 0.0106,0.007 0.0106,0.006 0.0109,0.006 0.0109,0.007 0.0109,0.006 0.0109,0.006 0.0109,0.006 0.0113,0.006 0.0109,0.006 0.0113,0.006 0.0109,0.006 0.0113,0.006 0.0113,0.006 0.0113,0.006 0.0113,0.006 0.0113,0.006 0.0113,0.005 0.0116,0.006 0.0116,0.005 0.0113,0.005 0.0116,0.005 0.0116,0.005 0.0116,0.005 0.0116,0.005 0.0116,0.005 0.0116,0.005 0.012,0.005 0.012,0.005 0.0116,0.005 0.012,0.005 0.012,0.005 0.0116,0.005 0.012,0.004 0.0124,0.004 0.012,0.005 0.012,0.004 0.012,0.004 0.0124,0.004 0.0123,0.004 0.012,0.004 0.0124,0.004 0.0123,0.004 0.0124,0.004 0.0123,0.003 0.0124,0.004 0.0123,0.003 0.0124,0.004 0.0127,0.003 0.0123,0.003 0.0127,0.003 0.0127,0.003 0.0123,0.003 0.0127,0.003 0.0127,0.003 0.0127,0.003 0.0127,0.003 0.0127,0.002 0.0127,0.003 0.013,0.002 0.0127,0.002 0.0131,0.002 0.0127,0.002 0.0131,0.002 0.0127,0.002 0.013,0.002 0.0131,0.002 0.0131,0.002 0.013,0.002 0.0131,0.002 0.0131,0.002 0.013,0.001 0.0131,0.001 0.013,10e-4 0.0134,0.001 0.0131,0.001 0.0134,10e-4 0.0131,0.001 0.0134,7.2e-4 0.0134,0.001 0.0131,7.1e-4 0.0134,7.2e-4 0.0134,7.1e-4 0.0134,3.4e-4 0.0134,7.2e-4 0.0134,3.4e-4 0.0134,3.5e-4 h 0.007 v 0.004 z" />
    <flowRoot
       xml:space="preserve"
       id="flowRoot831-36-4-0-2-9-5-3-9-6-9-9-9"
       style="font-style:normal;font-variant:normal;font-weight:500;font-stretch:normal;font-size:40px;line-height:0;font-family:Roboto;-inkscape-font-specification:'Roboto Medium';letter-spacing:0px;word-spacing:0px;fill:#ffffff;fill-opacity:1;stroke:none"
       transform="matrix(0.1974814,0,0,0.1974814,67.376751,80.585687)"><flowRegion
         id="flowRegion833-7-5-4-2-4-3-6-1-0-0-6-0"
         style="font-style:normal;font-variant:normal;font-weight:500;font-stretch:normal;font-family:Roboto;-inkscape-font-specification:'Roboto Medium';fill:#ffffff;fill-opacity:1"><rect
           id="rect835-5-25-8-6-9-5-7-2-6-2-0-9"
           width="337.39096"
           height="335.37064"
           x="136.37059"
           y="73.981346"
           style="font-style:normal;font-variant:normal;font-weight:500;font-stretch:normal;font-family:Roboto;-inkscape-font-specification:'Roboto Medium';fill:#ffffff;fill-opacity:1" /></flowRegion><flowPara
         style="font-style:normal;font-variant:normal;font-weight:300;font-stretch:normal;font-size:6.81949139px;line-height:1;font-family:Roboto;-inkscape-font-specification:'Roboto Light';fill:#ffffff;fill-opacity:1"
         id="flowPara1408-7-2-01-7-9">Organization tool for citizen's collectives</flowPara></flowRoot>  </g>
</svg>
