<?xml version="1.0" encoding="UTF-8" standalone="no"?>
<!-- Created with Inkscape (http://www.inkscape.org/) -->

<svg
   width="59.31292mm"
   height="20.264433mm"
   viewBox="0 0 59.31292 20.264433"
   version="1.1"
   id="svg1294"
   inkscape:version="1.1 (1:1.1+202105261517+ce6663b3b7)"
   sodipodi:docname="logo-color-tagline.svg"
   xmlns:inkscape="http://www.inkscape.org/namespaces/inkscape"
   xmlns:sodipodi="http://sodipodi.sourceforge.net/DTD/sodipodi-0.dtd"
   xmlns="http://www.w3.org/2000/svg"
   xmlns:svg="http://www.w3.org/2000/svg">
  <sodipodi:namedview
     id="namedview1296"
     pagecolor="#ffffff"
     bordercolor="#666666"
     borderopacity="1.0"
     inkscape:pageshadow="2"
     inkscape:pageopacity="0.0"
     inkscape:pagecheckerboard="0"
     inkscape:document-units="mm"
     showgrid="false"
     lock-margins="true"
     fit-margin-top="3"
     fit-margin-left="3"
     fit-margin-right="3"
     fit-margin-bottom="3"
     inkscape:zoom="5.7727273"
     inkscape:cx="122.12598"
     inkscape:cy="46.165354"
     inkscape:window-width="1920"
     inkscape:window-height="1028"
     inkscape:window-x="0"
     inkscape:window-y="0"
     inkscape:window-maximized="1"
     inkscape:current-layer="layer1" />
  <defs
     id="defs1291">
    <rect
       x="100.499"
       y="24.559414"
       width="100.2468"
       height="22.078007"
       id="rect995-3-3-92" />
    <rect
       x="100.499"
       y="24.559414"
       width="186.77821"
       height="37.874428"
       id="rect995-3-0-6-6" />
  </defs>
  <g
     inkscape:label="Layer 1"
     inkscape:groupmode="layer"
     id="layer1"
     transform="translate(-125.07687,-177.60112)">
    <text
       xml:space="preserve"
       id="text993-6-0-6"
       style="font-style:normal;font-weight:normal;font-size:10.5833px;line-height:1.25;font-family:sans-serif;white-space:pre;shape-inside:url(#rect995-3-3-92);fill:#362d29;fill-opacity:1;stroke:none"
       transform="matrix(0.89790737,0,0,0.89790737,54.670619,159.5857)"><tspan
         x="100.49805"
         y="33.922333"
         id="tspan1445"><tspan
           style="font-family:Nunito;-inkscape-font-specification:Nunito"
           id="tspan1443">Agorakit</tspan></tspan></text>
    <text
       xml:space="preserve"
       id="text993-6-6-6-1"
       style="font-style:normal;font-weight:normal;font-size:10.5833px;line-height:1.25;font-family:sans-serif;white-space:pre;shape-inside:url(#rect995-3-0-6-6);fill:#705d56;fill-opacity:1;stroke:none"
       transform="matrix(0.2484404,0,0,0.2484404,119.9392,185.94882)"><tspan
         x="100.49805"
         y="33.922333"
         id="tspan1449"><tspan
           style="font-weight:300;font-family:Nunito;-inkscape-font-specification:'Nunito Light'"
           id="tspan1447">Open source tool for collectives</tspan></tspan></text>
    <g
       id="g2255"
       transform="translate(58.735639,59.419038)">
      <path
         style="fill:none;fill-opacity:1;stroke:#362d29;stroke-width:1.511;stroke-linecap:round;stroke-miterlimit:4;stroke-dasharray:none;stroke-opacity:1"
         id="path2007"
         sodipodi:type="arc"
         sodipodi:cx="76.896538"
         sodipodi:cy="130.09802"
         sodipodi:rx="6.3628006"
         sodipodi:ry="6.3628006"
         sodipodi:start="3.1415927"
         sodipodi:end="0"
         sodipodi:arc-type="arc"
         sodipodi:open="true"
         d="m 70.533737,130.09802 a 6.3628006,6.3628006 0 0 1 6.362801,-6.3628 6.3628006,6.3628006 0 0 1 6.3628,6.3628" />
      <path
         d="m 77.283381,129.65126 c 0,0.31487 -0.255076,0.56995 -0.569953,0.56995 -0.31447,0 -0.569952,-0.25508 -0.569952,-0.56995 0,-0.31488 0.255482,-0.56996 0.569952,-0.56996 0.314877,0 0.569953,0.25508 0.569953,0.56996"
         style="fill:#55ab56;fill-opacity:1;fill-rule:nonzero;stroke:none;stroke-width:0.406818"
         id="path30-3-5-0-9"
         inkscape:connector-curvature="0" />
      <path
         d="m 70.481138,125.46225 c 0,0.31488 -0.255075,0.56995 -0.569953,0.56995 -0.31447,0 -0.569951,-0.25507 -0.569951,-0.56995 0,-0.31488 0.255481,-0.56995 0.569951,-0.56995 0.314878,0 0.569953,0.25507 0.569953,0.56995"
         style="fill:#404ba7;fill-opacity:1;fill-rule:nonzero;stroke:none;stroke-width:0.406818"
         id="path34-5-6-4-0"
         inkscape:connector-curvature="0" />
      <path
         d="m 72.794224,123.15315 c 0,0.31488 -0.255075,0.56995 -0.569952,0.56995 -0.314471,0 -0.569952,-0.25507 -0.569952,-0.56995 0,-0.31488 0.255481,-0.56995 0.569952,-0.56995 0.314877,0 0.569952,0.25507 0.569952,0.56995"
         style="fill:#e2a412;fill-opacity:1;fill-rule:nonzero;stroke:none;stroke-width:0.406818"
         id="path38-6-2-8-9"
         inkscape:connector-curvature="0" />
      <path
         d="m 77.322149,121.74104 c 0,0.30878 -0.250192,0.55897 -0.558968,0.55897 -0.308775,0 -0.558967,-0.25019 -0.558967,-0.55897 0,-0.30877 0.250192,-0.55896 0.558967,-0.55896 0.308776,0 0.558968,0.25019 0.558968,0.55896"
         style="fill:#ed1c24;fill-opacity:1;fill-rule:nonzero;stroke:none;stroke-width:0.406818"
         id="path42-2-9-7-1"
         inkscape:connector-curvature="0" />
      <path
         d="m 85.031759,126.43902 c 0,0.30877 -0.250192,0.55897 -0.558968,0.55897 -0.308775,0 -0.558967,-0.2502 -0.558967,-0.55897 0,-0.30877 0.250192,-0.55897 0.558967,-0.55897 0.308776,0 0.558968,0.2502 0.558968,0.55897"
         style="fill:#e2a412;fill-opacity:1;fill-rule:nonzero;stroke:none;stroke-width:0.406818"
         id="path46-9-1-1-7"
         inkscape:connector-curvature="0" />
      <path
         d="m 81.378777,128.04672 c 0,0.30878 -0.250193,0.55897 -0.558969,0.55897 -0.308774,0 -0.558967,-0.25019 -0.558967,-0.55897 0,-0.30877 0.250193,-0.55896 0.558967,-0.55896 0.308776,0 0.558969,0.25019 0.558969,0.55896"
         style="fill:#5ccaee;fill-opacity:1;fill-rule:nonzero;stroke:none;stroke-width:0.406818"
         id="path50-1-2-7-7"
         inkscape:connector-curvature="0" />
      <path
         d="m 73.39721,128.04672 c 0,0.31488 -0.255075,0.56995 -0.569953,0.56995 -0.31447,0 -0.569951,-0.25507 -0.569951,-0.56995 0,-0.31488 0.255481,-0.56995 0.569951,-0.56995 0.314878,0 0.569953,0.25507 0.569953,0.56995"
         style="fill:#ed1c24;fill-opacity:1;fill-rule:nonzero;stroke:none;stroke-width:0.406818"
         id="path54-2-7-2-1"
         inkscape:connector-curvature="0" />
      <path
         d="m 75.042097,126.43902 c 0,0.30877 -0.250193,0.55897 -0.558969,0.55897 -0.308774,0 -0.558967,-0.2502 -0.558967,-0.55897 0,-0.30877 0.250193,-0.55897 0.558967,-0.55897 0.308776,0 0.558969,0.2502 0.558969,0.55897"
         style="fill:#5ccaee;fill-opacity:1;fill-rule:nonzero;stroke:none;stroke-width:0.406818"
         id="path58-7-0-7-1"
         inkscape:connector-curvature="0" />
      <path
         d="m 77.322149,125.70471 c 0,0.30878 -0.250192,0.55897 -0.558968,0.55897 -0.308775,0 -0.558967,-0.25019 -0.558967,-0.55897 0,-0.30877 0.250192,-0.55896 0.558967,-0.55896 0.308776,0 0.558968,0.25019 0.558968,0.55896"
         style="fill:#f1a80e;fill-opacity:1;fill-rule:nonzero;stroke:none;stroke-width:0.406818"
         id="path62-0-9-2-5"
         inkscape:connector-curvature="0" />
      <path
         d="m 79.64618,126.43902 c 0,0.30877 -0.250193,0.55897 -0.558969,0.55897 -0.308774,0 -0.558967,-0.2502 -0.558967,-0.55897 0,-0.30877 0.250193,-0.55897 0.558967,-0.55897 0.308776,0 0.558969,0.2502 0.558969,0.55897"
         style="fill:#ed1c24;fill-opacity:1;fill-rule:nonzero;stroke:none;stroke-width:0.406818"
         id="path66-9-3-26-9"
         inkscape:connector-curvature="0" />
      <path
         d="m 83.0556,123.15315 c 0,0.30878 -0.250193,0.55897 -0.558968,0.55897 -0.308775,0 -0.558968,-0.25019 -0.558968,-0.55897 0,-0.30877 0.250193,-0.55897 0.558968,-0.55897 0.308775,0 0.558968,0.2502 0.558968,0.55897"
         style="fill:#4872c1;fill-opacity:1;fill-rule:nonzero;stroke:none;stroke-width:0.406818"
         id="path70-3-6-10-7"
         inkscape:connector-curvature="0" />
      <path
         style="fill:none;fill-opacity:1;stroke:#362d29;stroke-width:0.827;stroke-linecap:round;stroke-miterlimit:4;stroke-dasharray:none;stroke-opacity:1"
         id="path2007-7"
         sodipodi:type="arc"
         sodipodi:cx="76.845467"
         sodipodi:cy="130.16026"
         sodipodi:rx="2.8712883"
         sodipodi:ry="2.8712883"
         sodipodi:start="3.1415927"
         sodipodi:end="0"
         sodipodi:arc-type="arc"
         sodipodi:open="true"
         d="m 73.974178,130.16026 a 2.8712883,2.8712883 0 0 1 2.871289,-2.87129 2.8712883,2.8712883 0 0 1 2.871288,2.87129" />
    </g>
  </g>
</svg>
