<?xml version="1.0" encoding="UTF-8" standalone="no"?>
<!-- Created with Inkscape (http://www.inkscape.org/) -->

<svg
   width="57.31292mm"
   height="15.239729mm"
   viewBox="0 0 57.31292 15.239729"
   version="1.1"
   id="svg1013"
   inkscape:version="1.1 (1:1.1+202105261517+ce6663b3b7)"
   sodipodi:docname="logo-color.svg"
   xmlns:inkscape="http://www.inkscape.org/namespaces/inkscape"
   xmlns:sodipodi="http://sodipodi.sourceforge.net/DTD/sodipodi-0.dtd"
   xmlns="http://www.w3.org/2000/svg"
   xmlns:svg="http://www.w3.org/2000/svg">
  <sodipodi:namedview
     id="namedview1015"
     pagecolor="#ffffff"
     bordercolor="#666666"
     borderopacity="1.0"
     inkscape:pageshadow="2"
     inkscape:pageopacity="0.0"
     inkscape:pagecheckerboard="0"
     inkscape:document-units="mm"
     showgrid="false"
     fit-margin-left="2"
     lock-margins="true"
     fit-margin-top="2"
     fit-margin-right="2"
     fit-margin-bottom="2"
     inkscape:zoom="5.7727273"
     inkscape:cx="133.73228"
     inkscape:cy="42.354331"
     inkscape:window-width="1920"
     inkscape:window-height="1028"
     inkscape:window-x="0"
     inkscape:window-y="0"
     inkscape:window-maximized="1"
     inkscape:current-layer="layer1" />
  <defs
     id="defs1010">
    <rect
       x="100.499"
       y="24.559414"
       width="100.2468"
       height="22.078007"
       id="rect995-3-3-92" />
    <rect
       x="100.499"
       y="24.559414"
       width="186.77821"
       height="37.874428"
       id="rect995-3-0-6-6" />
  </defs>
  <g
     inkscape:label="Layer 1"
     inkscape:groupmode="layer"
     id="layer1"
     transform="translate(-123.51021,-194.00112)">
    <g
       aria-label="Agorakit"
       transform="matrix(0.89790737,0,0,0.89790737,52.103953,174.9857)"
       id="text993-6-0-6"
       style="font-size:10.5833px;line-height:1.25;white-space:pre;shape-inside:url(#rect995-3-3-92);fill:#362d29">
      <path
         d="m 101.26004,33.996417 q -0.25399,0 -0.34924,-0.169333 -0.0952,-0.169333 0.0212,-0.423332 l 2.91041,-6.625146 q 0.16933,-0.391582 0.51858,-0.391582 0.15875,0 0.28575,0.09525 0.13758,0.08467 0.22225,0.296332 l 2.92099,6.625146 q 0.11642,0.253999 0.0318,0.423332 -0.0847,0.169333 -0.33867,0.169333 -0.19049,0 -0.30691,-0.09525 -0.11642,-0.105833 -0.1905,-0.296333 L 106.2977,32.01734 h -3.88408 l -0.67733,1.587494 q -0.16933,0.391583 -0.47625,0.391583 z m 3.09033,-6.519313 -1.61925,3.809988 h 3.25966 l -1.61925,-3.809988 z"
         style="font-family:Nunito;-inkscape-font-specification:Nunito"
         id="path25" />
      <path
         d="m 111.24007,35.922577 q -0.56092,0 -1.10067,-0.137583 -0.52916,-0.126999 -0.96308,-0.412748 -0.15875,-0.09525 -0.1905,-0.232833 -0.0212,-0.127 0.0423,-0.253999 0.0635,-0.116417 0.17991,-0.169333 0.127,-0.05292 0.26458,0.02117 0.46567,0.285749 0.889,0.391582 0.42333,0.105833 0.83608,0.105833 1.524,0 1.524,-1.566329 v -0.910163 q -0.22225,0.486831 -0.6985,0.77258 -0.46567,0.275166 -1.06891,0.275166 -0.70908,0 -1.22767,-0.328082 -0.51858,-0.328082 -0.80433,-0.899581 -0.27516,-0.582081 -0.27516,-1.344079 0,-0.761997 0.27516,-1.333495 0.28575,-0.582082 0.80433,-0.899581 0.51859,-0.317499 1.22767,-0.317499 0.60324,0 1.06891,0.264583 0.46567,0.264582 0.68791,0.740831 v -0.550332 q 0,-0.433915 0.42334,-0.433915 0.42333,0 0.42333,0.433915 v 4.413236 q 0,1.18533 -0.59267,1.777994 -0.58208,0.592665 -1.72507,0.592665 z m -0.127,-2.815158 q 0.74083,0 1.17474,-0.507998 0.43392,-0.507998 0.43392,-1.365246 0,-0.857247 -0.43392,-1.354662 -0.43391,-0.507998 -1.17474,-0.507998 -0.73025,0 -1.16417,0.507998 -0.43391,0.497415 -0.43391,1.354662 0,0.857248 0.43391,1.365246 0.43392,0.507998 1.16417,0.507998 z"
         style="font-family:Nunito;-inkscape-font-specification:Nunito"
         id="path27" />
      <path
         d="m 117.30428,34.017583 q -0.75141,0 -1.30175,-0.328082 -0.55033,-0.328082 -0.85724,-0.920747 -0.29633,-0.603248 -0.29633,-1.418162 0,-0.814914 0.29633,-1.407579 0.30691,-0.603248 0.85724,-0.931331 0.55034,-0.328082 1.30175,-0.328082 0.74083,0 1.29116,0.328082 0.56092,0.328083 0.85725,0.931331 0.30692,0.592665 0.30692,1.407579 0,0.814914 -0.30692,1.418162 -0.29633,0.592665 -0.85725,0.920747 -0.55033,0.328082 -1.29116,0.328082 z m 0,-0.687914 q 0.71967,0 1.15358,-0.507999 0.43392,-0.518581 0.43392,-1.471078 0,-0.963081 -0.43392,-1.471079 -0.43391,-0.507998 -1.15358,-0.507998 -0.73025,0 -1.16416,0.507998 -0.42333,0.507998 -0.42333,1.471079 0,0.952497 0.42333,1.471078 0.43391,0.507999 1.16416,0.507999 z"
         style="font-family:Nunito;-inkscape-font-specification:Nunito"
         id="path29" />
      <path
         d="m 121.48468,33.996417 q -0.43391,0 -0.43391,-0.444499 v -4.413236 q 0,-0.433915 0.41274,-0.433915 0.42334,0 0.42334,0.433915 v 0.560915 q 0.21166,-0.486832 0.65616,-0.740831 0.4445,-0.264583 1.05833,-0.285749 0.33867,-0.03175 0.35983,0.338665 0.0318,0.370416 -0.381,0.412749 l -0.16933,0.02117 q -0.73025,0.0635 -1.11124,0.465665 -0.381,0.391582 -0.381,1.079496 v 2.561159 q 0,0.444499 -0.43392,0.444499 z"
         style="font-family:Nunito;-inkscape-font-specification:Nunito"
         id="path31" />
      <path
         d="m 126.4059,34.017583 q -0.52916,0 -0.95249,-0.201083 -0.41275,-0.211666 -0.65617,-0.571498 -0.24342,-0.359832 -0.24342,-0.80433 0,-0.560915 0.28575,-0.888998 0.29634,-0.328082 0.96308,-0.465665 0.67734,-0.148166 1.8415,-0.148166 h 0.33866 v -0.328082 q 0,-0.656165 -0.27516,-0.941914 -0.26458,-0.296332 -0.85725,-0.296332 -0.37041,0 -0.75141,0.09525 -0.37042,0.09525 -0.77258,0.306916 -0.17992,0.09525 -0.30692,0.04233 -0.11642,-0.0635 -0.16933,-0.190499 -0.0423,-0.137583 0,-0.275166 0.0529,-0.148166 0.21166,-0.222249 0.45508,-0.232833 0.91017,-0.338666 0.46566,-0.105833 0.87841,-0.105833 0.99483,0 1.47108,0.486832 0.48683,0.486832 0.48683,1.513412 v 2.868074 q 0,0.444499 -0.39158,0.444499 -0.41275,0 -0.41275,-0.444499 v -0.518582 q -0.20108,0.455082 -0.62441,0.719665 -0.41275,0.264582 -0.97367,0.264582 z m 0.13759,-0.645581 q 0.63499,0 1.03716,-0.433915 0.40216,-0.444499 0.40216,-1.12183 v -0.317499 h -0.32808 q -0.85725,0 -1.35466,0.08467 -0.48683,0.07408 -0.68792,0.275166 -0.19049,0.190499 -0.19049,0.529165 0,0.433915 0.29633,0.709081 0.30691,0.275166 0.8255,0.275166 z"
         style="font-family:Nunito;-inkscape-font-specification:Nunito"
         id="path33" />
      <path
         d="m 130.81913,33.996417 q -0.42334,0 -0.42334,-0.444499 v -6.730979 q 0,-0.433915 0.42334,-0.433915 0.43391,0 0.43391,0.433915 v 4.243904 h 0.0212 l 2.16957,-2.074327 q 0.13759,-0.137583 0.254,-0.211666 0.11642,-0.07408 0.30692,-0.07408 0.254,0 0.32808,0.201082 0.0847,0.1905 -0.10583,0.391583 l -2.06375,1.95791 2.26483,2.127243 q 0.22225,0.211666 0.11642,0.412749 -0.0953,0.201083 -0.32808,0.201083 -0.1905,0 -0.3175,-0.07408 -0.11642,-0.08467 -0.27517,-0.243415 l -2.34949,-2.169577 h -0.0212 v 2.042577 q 0,0.444499 -0.43391,0.444499 z"
         style="font-family:Nunito;-inkscape-font-specification:Nunito"
         id="path35" />
      <path
         d="m 136.11076,27.540604 q -0.56092,0 -0.56092,-0.529165 0,-0.518582 0.56092,-0.518582 0.56091,0 0.56091,0.518582 0,0.529165 -0.56091,0.529165 z m 0,6.434646 q -0.42333,0 -0.42333,-0.465665 v -4.32857 q 0,-0.455082 0.42333,-0.455082 0.43391,0 0.43391,0.455082 v 4.32857 q 0,0.465665 -0.43391,0.465665 z"
         style="font-family:Nunito;-inkscape-font-specification:Nunito"
         id="path37" />
      <path
         d="m 140.20648,34.017583 q -0.91017,0 -1.36525,-0.476248 -0.45508,-0.486832 -0.45508,-1.396996 v -2.698741 h -0.70908 q -0.37042,0 -0.37042,-0.338666 0,-0.328082 0.37042,-0.328082 h 0.70908 v -1.21708 q 0,-0.433915 0.43391,-0.433915 0.42334,0 0.42334,0.433915 v 1.21708 h 1.33349 q 0.37042,0 0.37042,0.328082 0,0.338666 -0.37042,0.338666 h -1.33349 v 2.614075 q 0,0.603248 0.25399,0.920747 0.254,0.306915 0.8255,0.306915 0.20108,0 0.33867,-0.04233 0.13758,-0.04233 0.24341,-0.04233 0.0953,-0.01058 0.15875,0.0635 0.0635,0.07408 0.0635,0.253999 0,0.127 -0.0529,0.232833 -0.0423,0.105833 -0.15875,0.148166 -0.127,0.04233 -0.33867,0.07408 -0.20108,0.04233 -0.37041,0.04233 z"
         style="font-family:Nunito;-inkscape-font-specification:Nunito"
         id="path39" />
    </g>
    <g
       id="g2255"
       transform="translate(56.168973,74.819038)">
      <path
         style="fill:none;fill-opacity:1;stroke:#362d29;stroke-width:1.511;stroke-linecap:round;stroke-miterlimit:4;stroke-dasharray:none;stroke-opacity:1"
         id="path2007"
         sodipodi:type="arc"
         sodipodi:cx="76.896538"
         sodipodi:cy="130.09802"
         sodipodi:rx="6.3628006"
         sodipodi:ry="6.3628006"
         sodipodi:start="3.1415927"
         sodipodi:end="0"
         sodipodi:arc-type="arc"
         sodipodi:open="true"
         d="m 70.533737,130.09802 a 6.3628006,6.3628006 0 0 1 6.362801,-6.3628 6.3628006,6.3628006 0 0 1 6.3628,6.3628" />
      <path
         d="m 77.283381,129.65126 c 0,0.31487 -0.255076,0.56995 -0.569953,0.56995 -0.31447,0 -0.569952,-0.25508 -0.569952,-0.56995 0,-0.31488 0.255482,-0.56996 0.569952,-0.56996 0.314877,0 0.569953,0.25508 0.569953,0.56996"
         style="fill:#55ab56;fill-opacity:1;fill-rule:nonzero;stroke:none;stroke-width:0.406818"
         id="path30-3-5-0-9"
         inkscape:connector-curvature="0" />
      <path
         d="m 70.481138,125.46225 c 0,0.31488 -0.255075,0.56995 -0.569953,0.56995 -0.31447,0 -0.569951,-0.25507 -0.569951,-0.56995 0,-0.31488 0.255481,-0.56995 0.569951,-0.56995 0.314878,0 0.569953,0.25507 0.569953,0.56995"
         style="fill:#404ba7;fill-opacity:1;fill-rule:nonzero;stroke:none;stroke-width:0.406818"
         id="path34-5-6-4-0"
         inkscape:connector-curvature="0" />
      <path
         d="m 72.794224,123.15315 c 0,0.31488 -0.255075,0.56995 -0.569952,0.56995 -0.314471,0 -0.569952,-0.25507 -0.569952,-0.56995 0,-0.31488 0.255481,-0.56995 0.569952,-0.56995 0.314877,0 0.569952,0.25507 0.569952,0.56995"
         style="fill:#e2a412;fill-opacity:1;fill-rule:nonzero;stroke:none;stroke-width:0.406818"
         id="path38-6-2-8-9"
         inkscape:connector-curvature="0" />
      <path
         d="m 77.322149,121.74104 c 0,0.30878 -0.250192,0.55897 -0.558968,0.55897 -0.308775,0 -0.558967,-0.25019 -0.558967,-0.55897 0,-0.30877 0.250192,-0.55896 0.558967,-0.55896 0.308776,0 0.558968,0.25019 0.558968,0.55896"
         style="fill:#ed1c24;fill-opacity:1;fill-rule:nonzero;stroke:none;stroke-width:0.406818"
         id="path42-2-9-7-1"
         inkscape:connector-curvature="0" />
      <path
         d="m 85.031759,126.43902 c 0,0.30877 -0.250192,0.55897 -0.558968,0.55897 -0.308775,0 -0.558967,-0.2502 -0.558967,-0.55897 0,-0.30877 0.250192,-0.55897 0.558967,-0.55897 0.308776,0 0.558968,0.2502 0.558968,0.55897"
         style="fill:#e2a412;fill-opacity:1;fill-rule:nonzero;stroke:none;stroke-width:0.406818"
         id="path46-9-1-1-7"
         inkscape:connector-curvature="0" />
      <path
         d="m 81.378777,128.04672 c 0,0.30878 -0.250193,0.55897 -0.558969,0.55897 -0.308774,0 -0.558967,-0.25019 -0.558967,-0.55897 0,-0.30877 0.250193,-0.55896 0.558967,-0.55896 0.308776,0 0.558969,0.25019 0.558969,0.55896"
         style="fill:#5ccaee;fill-opacity:1;fill-rule:nonzero;stroke:none;stroke-width:0.406818"
         id="path50-1-2-7-7"
         inkscape:connector-curvature="0" />
      <path
         d="m 73.39721,128.04672 c 0,0.31488 -0.255075,0.56995 -0.569953,0.56995 -0.31447,0 -0.569951,-0.25507 -0.569951,-0.56995 0,-0.31488 0.255481,-0.56995 0.569951,-0.56995 0.314878,0 0.569953,0.25507 0.569953,0.56995"
         style="fill:#ed1c24;fill-opacity:1;fill-rule:nonzero;stroke:none;stroke-width:0.406818"
         id="path54-2-7-2-1"
         inkscape:connector-curvature="0" />
      <path
         d="m 75.042097,126.43902 c 0,0.30877 -0.250193,0.55897 -0.558969,0.55897 -0.308774,0 -0.558967,-0.2502 -0.558967,-0.55897 0,-0.30877 0.250193,-0.55897 0.558967,-0.55897 0.308776,0 0.558969,0.2502 0.558969,0.55897"
         style="fill:#5ccaee;fill-opacity:1;fill-rule:nonzero;stroke:none;stroke-width:0.406818"
         id="path58-7-0-7-1"
         inkscape:connector-curvature="0" />
      <path
         d="m 77.322149,125.70471 c 0,0.30878 -0.250192,0.55897 -0.558968,0.55897 -0.308775,0 -0.558967,-0.25019 -0.558967,-0.55897 0,-0.30877 0.250192,-0.55896 0.558967,-0.55896 0.308776,0 0.558968,0.25019 0.558968,0.55896"
         style="fill:#f1a80e;fill-opacity:1;fill-rule:nonzero;stroke:none;stroke-width:0.406818"
         id="path62-0-9-2-5"
         inkscape:connector-curvature="0" />
      <path
         d="m 79.64618,126.43902 c 0,0.30877 -0.250193,0.55897 -0.558969,0.55897 -0.308774,0 -0.558967,-0.2502 -0.558967,-0.55897 0,-0.30877 0.250193,-0.55897 0.558967,-0.55897 0.308776,0 0.558969,0.2502 0.558969,0.55897"
         style="fill:#ed1c24;fill-opacity:1;fill-rule:nonzero;stroke:none;stroke-width:0.406818"
         id="path66-9-3-26-9"
         inkscape:connector-curvature="0" />
      <path
         d="m 83.0556,123.15315 c 0,0.30878 -0.250193,0.55897 -0.558968,0.55897 -0.308775,0 -0.558968,-0.25019 -0.558968,-0.55897 0,-0.30877 0.250193,-0.55897 0.558968,-0.55897 0.308775,0 0.558968,0.2502 0.558968,0.55897"
         style="fill:#4872c1;fill-opacity:1;fill-rule:nonzero;stroke:none;stroke-width:0.406818"
         id="path70-3-6-10-7"
         inkscape:connector-curvature="0" />
      <path
         style="fill:none;fill-opacity:1;stroke:#362d29;stroke-width:0.827;stroke-linecap:round;stroke-miterlimit:4;stroke-dasharray:none;stroke-opacity:1"
         id="path2007-7"
         sodipodi:type="arc"
         sodipodi:cx="76.845467"
         sodipodi:cy="130.16026"
         sodipodi:rx="2.8712883"
         sodipodi:ry="2.8712883"
         sodipodi:start="3.1415927"
         sodipodi:end="0"
         sodipodi:arc-type="arc"
         sodipodi:open="true"
         d="m 73.974178,130.16026 a 2.8712883,2.8712883 0 0 1 2.871289,-2.87129 2.8712883,2.8712883 0 0 1 2.871288,2.87129" />
    </g>
  </g>
</svg>
